<svg width="360" height="264" viewBox="0 0 360 264" fill="none" xmlns="http://www.w3.org/2000/svg">
<path d="M86.2282 250.686C85.8996 250.047 85.104 249.805 84.4813 250.15C70.5576 257.516 54.8177 261.407 38.9741 261.407C-14.1264 261.407 -57.4023 218.733 -58.4228 165.893C-59.0455 166.066 -59.6509 166.257 -60.2735 166.429C-60.533 166.499 -60.7751 166.516 -61 166.516C-59.6509 220.497 -15.3544 264 38.9741 264C55.2501 264 71.4051 260.006 85.692 252.45C86.3147 252.104 86.5569 251.326 86.2282 250.686Z" fill="#F0F0F0"/>
<path d="M46.9302 226.393C46.2903 226.393 45.7368 225.909 45.6503 225.269C45.5638 224.56 46.0654 223.903 46.7746 223.817C50.4415 223.35 54.0737 222.52 57.5849 221.396C58.2768 221.171 59.0033 221.552 59.2281 222.226C59.453 222.9 59.0724 223.644 58.3979 223.851C54.7483 225.044 50.9431 225.892 47.1379 226.376C47.0514 226.376 46.9994 226.393 46.9302 226.393Z" fill="#F0F0F0"/>
<path d="M74.5876 215.569C74.1725 215.569 73.7746 215.379 73.5325 215.016C73.1174 214.428 73.2558 213.615 73.8439 213.201C78.7561 209.708 83.1321 205.523 86.8163 200.734C87.2487 200.163 88.0616 200.06 88.6324 200.492C89.2032 200.924 89.3069 201.737 88.8745 202.307C85.0347 207.287 80.4857 211.662 75.3487 215.31C75.1065 215.5 74.8471 215.569 74.5876 215.569Z" fill="#F0F0F0"/>
<path d="M93.6484 193.696C93.4408 193.696 93.2506 193.645 93.0603 193.558C92.4203 193.23 92.1782 192.452 92.5068 191.812C96.9347 183.288 99.2871 173.691 99.2871 164.009C99.2871 142.758 88.4248 123.479 70.2462 112.431C69.6408 112.05 69.4332 111.255 69.8137 110.65C70.177 110.045 70.9726 109.837 71.5953 110.218C90.5523 121.733 101.882 141.842 101.882 164.009C101.882 174.089 99.4428 184.118 94.8073 193.005C94.5824 193.437 94.1327 193.696 93.6484 193.696Z" fill="#F0F0F0"/>
<path d="M-1.65556 118.984C-2.01879 118.984 -2.38201 118.828 -2.62417 118.534C-3.09117 117.998 -3.0393 117.168 -2.5031 116.702C8.96451 106.638 23.7012 101.105 38.974 101.105C43.2463 101.105 47.5185 101.538 51.6524 102.385C52.3616 102.523 52.8113 103.215 52.6556 103.924C52.5173 104.633 51.8254 105.082 51.1335 104.927C47.1553 104.114 43.0733 103.699 38.974 103.699C24.3238 103.699 10.2099 109.007 -0.790735 118.655C-1.05018 118.88 -1.36152 118.984 -1.65556 118.984Z" fill="#F0F0F0"/>
<path d="M118.244 165.306C117.535 165.306 116.947 164.718 116.947 164.009C116.947 161.346 116.808 158.666 116.549 156.038C112.502 116.148 79.1539 86.0628 38.974 86.0628C38.2648 86.0628 37.6768 85.4749 37.6768 84.766C37.6768 84.0571 38.2648 83.4692 38.974 83.4692C80.4857 83.4692 114.94 114.558 119.126 155.778C119.403 158.493 119.541 161.26 119.541 164.009C119.541 164.718 118.953 165.306 118.244 165.306Z" fill="#F0F0F0"/>
<path d="M2.51272 94.8981C2.04571 94.8981 1.596 94.6388 1.35385 94.2066C1.02522 93.5668 1.26738 92.7887 1.90735 92.4602C9.05083 88.76 16.6786 86.1665 24.5831 84.7314C25.2923 84.6103 25.9669 85.0772 26.0879 85.7861C26.209 86.495 25.742 87.1693 25.0328 87.2903C17.3705 88.6736 10.0021 91.1807 3.08351 94.7599C2.92784 94.8636 2.72027 94.8981 2.51272 94.8981Z" fill="#F0F0F0"/>
<path d="M19.4982 242.145C19.3945 242.145 19.2907 242.128 19.1869 242.11C-1.25761 236.958 -19.2287 223.592 -30.1429 205.437C-30.5061 204.832 -30.3158 204.019 -29.6932 203.656C-29.0705 203.293 -28.2749 203.483 -27.9116 204.106C-17.3607 221.673 0.0396194 234.606 19.8269 239.603C20.5187 239.776 20.9338 240.485 20.7609 241.177C20.6052 241.747 20.069 242.145 19.4982 242.145Z" fill="#F0F0F0"/>
<path d="M38.9569 244.548C38.2478 244.548 37.6597 243.96 37.6597 243.251C37.6597 242.543 38.2478 241.955 38.9569 241.955C56.7724 241.955 74.19 235.799 88.0099 224.595C88.5634 224.145 89.3764 224.232 89.8261 224.785C90.2758 225.338 90.1893 226.151 89.6358 226.601C75.3661 238.185 57.3777 244.548 38.9569 244.548Z" fill="#F0F0F0"/>
<path d="M131.061 200.941C130.905 200.941 130.75 200.907 130.594 200.855C129.919 200.596 129.591 199.852 129.85 199.178C134.192 187.973 136.406 176.129 136.406 163.991C136.406 137.658 126.045 112.984 107.261 94.518C106.742 94.0166 106.742 93.1866 107.244 92.6852C107.745 92.1665 108.576 92.1664 109.077 92.6679C128.38 111.618 139 136.949 139 163.991C139 176.441 136.734 188.596 132.272 200.112C132.064 200.63 131.58 200.941 131.061 200.941Z" fill="#F0F0F0"/>
<path d="M91.573 81.7747C91.3309 81.7747 91.0887 81.7056 90.8811 81.5672C86.1246 78.5587 81.074 75.965 75.885 73.8383C75.2278 73.5617 74.8991 72.8182 75.1759 72.1439C75.4526 71.4868 76.2137 71.1584 76.871 71.435C82.2156 73.6136 87.3872 76.2936 92.2821 79.3713C92.8875 79.7517 93.0778 80.5471 92.68 81.1523C92.4205 81.55 92.0054 81.7747 91.573 81.7747Z" fill="#F0F0F0"/>
<path d="M-47.8546 118.258C-48.0622 118.258 -48.2697 118.206 -48.4773 118.102C-49.1 117.756 -49.3421 116.978 -48.9962 116.339C-36.9405 94.1548 -17.1878 77.4694 6.64685 69.3428C17.0248 65.7983 27.9043 64 38.9741 64C39.6832 64 40.2713 64.5879 40.2713 65.2968C40.2713 66.0057 39.6832 66.5936 38.9741 66.5936C28.1983 66.5936 17.5956 68.34 7.49436 71.7981C-15.7176 79.7171 -34.9514 95.9704 -46.6957 117.584C-46.9552 118.016 -47.4049 118.258 -47.8546 118.258Z" fill="#F0F0F0"/>
<g clip-path="url(#clip0_1277_5765)">
<path d="M63 37H155C157.209 37 159 38.7909 159 41V93C159 95.2091 157.209 97 155 97H63C60.7909 97 59 95.2091 59 93V41C59 38.7909 60.7909 37 63 37Z" fill="#55A5FF"/>
<path d="M79.2888 59.3045H82.026L82.7135 58.6958H79.9762L79.2888 59.3045Z" fill="white"/>
<path d="M80.9996 65.2855C80.9467 65.2855 80.8942 65.2844 80.8412 65.282C79.9128 65.2402 79.1554 64.7478 78.8151 63.9645C78.5393 63.3301 78.5362 62.3938 79.3539 61.6696L80.1101 61H77.4765C76.6632 62.038 76.4762 63.3546 77.0088 64.5804C77.6228 65.9934 79.0538 66.9184 80.7421 66.9941C80.8273 66.9979 80.9133 66.9999 80.9996 66.9999C83.7566 66.9999 85.9995 65.0133 85.9995 62.5714H84.064C84.064 64.068 82.6894 65.2855 80.9996 65.2855Z" fill="white"/>
<path d="M80.9997 52.7143C81.0526 52.7143 81.105 52.7154 81.1581 52.7178C82.0865 52.7596 82.8439 53.252 83.1842 54.0353C83.46 54.6697 83.4631 55.606 82.6453 56.3302L81.8892 56.9999H84.5227C85.3361 55.962 85.5232 54.6454 84.9905 53.4195C84.3764 52.0066 82.9455 51.0816 81.2571 51.0059C81.1718 51.002 81.086 51 80.9997 51C78.2426 51 75.9998 52.9867 75.9998 55.4285H77.9352C77.9352 53.9318 79.3099 52.7143 80.9997 52.7143Z" fill="white"/>
<path d="M85.5968 59.5903H76.4033V60.7145H85.5968V59.5903Z" fill="white"/>
<path d="M85.5968 57.2859H76.4033V58.41H85.5968V57.2859Z" fill="white"/>
<path d="M129.008 79.8052C124.398 79.8052 120.112 77.3153 117.847 73.3056C117.524 72.7235 117.718 71.9798 118.3 71.6564C118.882 71.3331 119.626 71.5271 119.95 72.1091C121.794 75.3589 125.271 77.3799 129.008 77.3799C134.75 77.3799 139.408 72.7235 139.408 66.9838C139.408 61.2441 134.75 56.5877 129.008 56.5877C123.266 56.5877 118.607 61.2441 118.607 66.9838C118.607 67.6467 118.057 68.1964 117.394 68.1964C116.731 68.1964 116.181 67.6467 116.181 66.9838C116.181 59.9183 121.939 54.1625 129.008 54.1625C136.076 54.1625 141.834 59.9183 141.834 66.9838C141.834 74.0493 136.076 79.8052 129.008 79.8052Z" fill="#8CC8FF"/>
<path d="M129.008 87C117.977 87 109 78.0267 109 67C109 55.9733 117.977 47 129.008 47C134.588 47 139.958 49.3605 143.727 53.4511C144.18 53.9361 144.148 54.7122 143.662 55.1649C143.177 55.6176 142.401 55.5853 141.948 55.1002C138.632 51.4947 133.909 49.4252 129.008 49.4252C119.303 49.4252 111.426 57.3153 111.426 67C111.426 76.7009 119.319 84.5748 129.008 84.5748C138.713 84.5748 146.59 76.6847 146.59 67C146.59 64.7526 146.169 62.5699 145.344 60.5004C145.102 59.886 145.393 59.1746 146.024 58.9321C146.655 58.6896 147.35 58.9806 147.593 59.6112C148.531 61.9717 149 64.4616 149 67.0162C149.016 78.0105 140.039 87 129.008 87Z" fill="#8CC8FF"/>
<path d="M333.272 202.678C329.381 192.032 327.85 188.314 319.924 191.959C311.998 195.605 328.372 214.435 328.372 214.435L333.272 202.678Z" fill="white"/>
<path d="M387.152 171.361C394.393 195.769 379.406 225.299 358.708 238.131L356.114 234.413C350.854 237.275 345.27 239.425 339.559 240.738C333.488 230.22 326.481 220.231 319.924 209.95C328.301 206.742 335.524 204.044 337.217 194.584C341.829 169.028 311.926 174.496 292.255 180.512C287.391 160.843 285.59 130.001 285.59 130.001C333.507 117.515 375.749 132.863 387.152 171.361Z" fill="#2D3C5A"/>
<path d="M336.245 198.03C343.109 209.113 348.242 224.005 356.115 234.413C350.872 237.275 345.27 239.426 339.578 240.72C333.507 230.203 326.5 220.214 319.943 209.933C325.185 207.928 332.967 201.457 336.245 198.03Z" fill="white"/>
<path d="M327.419 194.693C333.724 194.693 336.444 196.553 337.327 200.946C338.227 205.339 333.273 209.75 333.273 209.75L327.419 194.693Z" fill="white"/>
<path d="M246.809 81.0577C241.242 94.5284 240.882 108.911 258.337 114.579C270.227 118.444 284.458 112.811 290.024 99.3407C295.59 85.87 290.438 70.8681 278.495 65.8189C266.552 60.7515 252.375 67.5871 246.809 81.0577Z" fill="white"/>
<path d="M256.697 81.6411C255.702 81.6411 254.896 80.825 254.896 79.8183C254.896 78.8116 255.702 77.9955 256.697 77.9955C257.692 77.9955 258.498 78.8116 258.498 79.8183C258.498 80.825 257.692 81.6411 256.697 81.6411Z" fill="#2D3C5A"/>
<path d="M255.345 62.7934C255.345 50.7263 274.962 64.3246 278.493 65.8193C289.157 67.8791 298.452 81.9513 295.21 94.5835C292.436 105.338 280.24 118.171 273.845 115.036C263.217 108.656 261.578 98.0833 266.55 87.9848C264.712 85.7792 266.82 82.5528 265.973 80.0009C264.604 75.9906 255.255 67.0588 255.345 62.7934Z" fill="#2D3C5A"/>
<path d="M270.098 87.1096C289.95 85.2868 287.644 101.401 280.132 105.046C274.079 107.981 264.658 106.869 260.893 97.7549C257.146 88.6408 270.098 87.1096 270.098 87.1096Z" fill="white"/>
<path d="M268.352 93.9997C272.153 92.0857 276.8 92.9607 279.538 96.2782C280.277 97.1714 279.016 98.4656 278.259 97.5724C276.062 94.8929 272.387 93.9997 269.252 95.5673C268.226 96.096 267.325 94.5283 268.352 93.9997Z" fill="#2D3C5A"/>
<path d="M245.294 85.5241C247.347 82.0061 249.851 78.8161 252.787 76.0272C253.634 75.2252 254.913 76.5194 254.067 77.3214C251.22 80.0192 248.824 83.0633 246.861 86.4538C246.266 87.4563 244.699 86.5449 245.294 85.5241Z" fill="#2D3C5A"/>
<path d="M271.178 130.347C299.316 124.149 310.646 137.656 320.752 179.271C330.858 220.886 348.89 244.984 348.89 244.984C348.89 244.984 267.035 268.389 232.412 263.267C232.412 263.249 211.516 143.489 271.178 130.347Z" fill="#2D3C5A"/>
<path d="M293.552 135.141L290.652 120.85L252.372 125.224L256.966 142.742L293.552 135.141Z" fill="#2D3C5A"/>
<path d="M319.923 172.727C320.085 172.727 320.265 172.691 320.427 172.636C321.112 172.363 321.454 171.561 321.184 170.85L314.23 153.296C313.96 152.603 313.168 152.257 312.465 152.53C311.781 152.804 311.438 153.606 311.709 154.317L318.662 171.871C318.878 172.399 319.383 172.727 319.923 172.727Z" fill="white"/>
<path d="M160.284 118.845C155.114 109.622 152.556 94.6564 146.378 81.3316C141.172 70.0848 136.686 66.512 134.218 71.3972C132.633 74.5325 135.893 78.0141 138.001 88.4406C138.001 88.4406 130.201 90.0629 129.679 95.5861C129.679 95.5861 122.869 97.2813 122.365 106.523C122.113 111.135 120.816 116.676 125.95 115.801C126.977 120.449 128.021 129.764 128.886 136.199C130.435 147.701 135.93 151.182 135.93 151.182L160.284 118.845Z" fill="white"/>
<path d="M159.618 117.514C169.111 136.763 175.29 143.891 186.675 147.245C203.842 152.276 244.734 129.509 270.223 133.829L276.294 186.873C276.294 186.873 239.239 211.372 196.384 207.835C159.258 204.773 134.651 166.275 130.129 147.318C134.561 134.74 149.404 124.514 159.618 117.514Z" fill="#2D3C5A"/>
<path d="M236.358 204.244C236.538 204.244 236.718 204.208 236.88 204.135C236.934 204.117 243.149 201.455 249.256 201.455C249.274 201.455 249.274 201.455 249.292 201.455C250.031 201.455 250.643 200.854 250.643 200.088C250.643 199.323 249.995 198.721 249.256 198.721C242.591 198.721 236.106 201.51 235.818 201.619C235.133 201.911 234.809 202.713 235.115 203.406C235.331 203.934 235.836 204.244 236.358 204.244Z" fill="#2D3C5A"/>
<path d="M139.371 89.9534L140.704 93.5444C141.118 94.6381 139.371 95.112 138.975 94.0366C138.524 92.8335 138.092 91.6304 137.642 90.4456C137.227 89.3337 138.975 88.8597 139.371 89.9534Z" fill="#2D3C5A"/>
<path d="M123.896 106.924C124.058 105.776 125.788 106.268 125.625 107.416C125.409 108.911 125.625 110.388 126.148 111.809C126.562 112.903 124.815 113.377 124.418 112.301C123.788 110.533 123.644 108.765 123.896 106.924Z" fill="#2D3C5A"/>
<path d="M130.777 96.6071C131.065 97.4273 131.353 98.2294 131.659 99.0497C132.056 100.162 130.308 100.636 129.93 99.5418C129.642 98.7215 129.354 97.9195 129.047 97.0992C128.651 95.9873 130.38 95.4952 130.777 96.6071Z" fill="#2D3C5A"/>
<path d="M158.537 115.51C160.717 100.016 158.069 93.326 152.971 86.8914C147.873 80.4568 144.864 89.972 144.864 89.972L158.537 115.51Z" fill="white"/>
<path d="M149.367 87.839C151.51 92.0497 152.934 96.4792 153.636 101.164C153.816 102.312 152.069 102.804 151.907 101.656C151.222 97.1172 149.889 92.8517 147.818 88.7686C147.277 87.7114 148.826 86.7817 149.367 87.839Z" fill="#2D3C5A"/>
</g>
<defs>
<clipPath id="clip0_1277_5765">
<rect width="330" height="264" fill="white" transform="matrix(-1 0 0 1 389 0)"/>
</clipPath>
</defs>
</svg>
