<svg width="60" height="60" viewBox="0 0 60 60" fill="none" xmlns="http://www.w3.org/2000/svg">
<g clip-path="url(#clip0_1319_630)">
<path d="M38.0933 18.5017C38.17 18.3173 38.0165 18.1438 38.0165 18.1438C38.0165 18.1438 36.8102 16.1261 32.5662 15.6705C30.2852 15.4319 27.1927 15.8875 25.0213 17.0482C21.0734 19.1417 20.4812 22.6021 20.4812 22.6021C20.4593 22.6888 20.4264 22.9492 20.5141 23.0577C20.6018 23.1661 20.7334 23.1661 20.8979 23.1119C22.2907 22.6455 26.425 21.2895 29.035 20.6061C32.7526 19.6299 35.8123 19.0333 37.7643 18.7078C37.9178 18.6753 38.0384 18.6319 38.0933 18.5017Z" fill="#FAAF18"/>
<path d="M42.3374 34.7946C40.1113 39.741 35.8453 43.1797 30.2415 43.2556C26.1729 43.3098 22.576 41.9322 19.9769 39.5241L18.4087 40.1858V37.7776C16.698 35.4997 15.7 32.6034 15.7 29.3275C15.7 20.9207 22.2031 14.3037 31.2833 14.3037C32.7638 14.3037 34.1017 14.5315 35.1106 14.7593C33.5533 14.2712 32.0071 14 30.2854 14C20.5472 14 13.9893 21.8102 13.9893 29.8698C13.9893 38.6454 20.9529 46 30.088 46C38.8172 46 43.5218 39.9146 45.0352 36.2481L42.3374 34.7946Z" fill="#185494"/>
<path d="M40.0784 33.059C41.3615 32.918 42.2498 32.4081 42.7323 31.9309C43.1709 31.497 43.2806 30.9112 43.2806 30.4664C43.3025 29.8156 43.2806 27.7763 43.2806 27.7763L39.892 28.5031C39.892 28.5031 39.892 28.7526 39.892 29.2841C39.903 29.8048 40.1552 30.0868 40.7035 29.9892C40.879 29.9566 41.1422 29.8807 41.1422 29.8807V30.5207C41.1422 30.499 41.197 30.8787 40.3416 31.0414C39.223 31.2149 38.7186 30.5315 38.7076 29.3275C38.7295 28.0366 39.4643 27.299 40.3635 27.0929C41.3724 26.8651 41.9427 27.1037 42.2717 27.1471C43.3903 27.3098 43.7083 25.6502 42.6884 25.2597C41.9317 24.9559 40.9557 24.9017 40.0236 25.0861C38.7734 25.3356 36.3279 26.3661 36.3169 29.718C36.306 32.3864 38.2909 33.2542 40.0784 33.059Z" fill="#ED1D21"/>
<path d="M29.0571 35.912C29.0571 35.912 30.0989 35.554 30.1867 35.5323C31.0201 35.2503 31.3272 34.7513 31.3272 33.9052C31.3162 32.9832 31.3162 31.1825 31.3162 31.1825L33.7398 33.9377C34.1346 34.3391 34.6281 34.3716 35.0777 34.2415C35.5383 34.1113 35.9331 33.6882 35.944 33.0916C35.944 31.1065 35.944 26.2469 35.944 26.2469C35.944 26.2469 35.3189 26.3771 34.8035 26.5181C34.2113 26.6808 33.7508 27.0604 33.7508 28.0584C33.7508 28.4055 33.7508 30.434 33.7508 30.434C33.7508 30.434 32.369 28.731 31.4807 27.8523C31.0091 27.3859 30.2196 27.6679 30.2196 27.6679L29.0571 28.015V35.912Z" fill="#EE1C23"/>
<path d="M28.3223 28.1884C28.3223 28.1884 27.5985 28.3945 27.0063 28.6115C26.2387 28.8827 25.7891 29.3274 25.7891 30.4772C25.7891 31.5403 25.7891 37.0399 25.7891 37.0399C25.7891 37.0399 26.458 36.8122 27.0941 36.5735C27.9823 36.2372 28.3223 35.7816 28.3223 34.8596C28.3223 34.0677 28.3223 28.1884 28.3223 28.1884Z" fill="#ED1C23"/>
<path d="M24.714 29.7505C24.0451 29.4467 23.4748 29.783 23.2335 30.1518L21.1828 33.6122V30.8244L18.7483 31.8115L18.7373 39.6867L20.4481 38.9817C20.4481 38.9817 20.788 38.884 20.9854 38.5694C21.1719 38.2766 21.1609 37.7993 21.1609 37.7993V35.3044L23.069 37.3111C23.4858 37.745 24.2534 37.962 24.9333 37.4196C25.5475 36.9315 25.4488 36.0962 25.1088 35.7166L23.3761 33.9918C23.3761 33.9918 24.9004 31.6054 25.1527 31.2149C25.4817 30.6725 25.3172 30.0217 24.714 29.7505Z" fill="#EE1D23"/>
<path d="M23.7603 39.0142C23.6726 39.2203 23.881 39.4264 23.881 39.4264C24.7583 40.522 28.6733 41.9104 32.9282 40.8908C39.4204 39.3396 40.7912 34.7945 40.9447 34.1545C40.9776 34.0243 40.9995 33.8182 40.8789 33.6881C40.7802 33.5796 40.6267 33.5796 40.4293 33.623C35.9111 34.6752 28.4211 36.9423 24.0893 38.7755C23.9029 38.8515 23.8261 38.884 23.7603 39.0142Z" fill="#FAAF18"/>
<path d="M19.9111 28.6874C19.9002 28.2535 19.5602 28.0149 18.979 28.3078V29.7071C18.979 29.7071 19.1654 29.6203 19.308 29.5552C19.6589 29.3925 19.9221 29.1105 19.9111 28.6874ZM18.968 27.4183C19.0777 27.3749 19.1545 27.3424 19.2422 27.299C19.5602 27.1471 19.7905 26.8542 19.7905 26.4854C19.7905 26.0624 19.4396 25.9539 18.968 26.1925C18.968 26.2034 18.968 27.4183 18.968 27.4183ZM21.4684 28.4813C21.4903 29.5878 20.6898 30.1735 19.637 30.5966L17.4985 31.4969V25.7586C17.4985 25.7586 18.8474 25.2163 19.2861 25.0535C20.5362 24.5979 21.271 25.1512 21.271 25.9756C21.271 26.5288 21.0297 26.9952 20.5143 27.4074C21.0188 27.4942 21.4574 27.9064 21.4684 28.4813Z" fill="#EE1C23"/>
<path d="M25.5254 23.6434C25.5254 23.1552 25.1855 23.0359 24.7797 23.1444C24.4507 23.242 24.0669 23.383 24.0669 23.383V26.9518C24.0669 27.3098 24.0121 27.7545 23.5624 27.863C23.2225 27.9498 23.058 27.722 23.058 27.364V24.4461C23.058 23.9579 22.718 23.8169 22.3123 23.9471C21.8517 24.099 21.5885 24.2074 21.5885 24.2074C21.5885 24.2074 21.5885 26.7349 21.5885 27.7437C21.5775 28.9261 22.411 29.5227 23.6611 29.1539C24.7687 28.8284 25.5145 28.2101 25.5254 26.6373V23.6434Z" fill="#ED1D1F"/>
<path d="M37.4348 25.1186C37.7528 25.0535 37.9502 24.8257 37.9502 24.4352C37.9502 24.0881 37.9502 23.8169 37.9502 23.8169L36.2175 24.1965V23.1877C36.2175 23.1877 37.0729 23.0142 37.3032 22.9599C37.5993 22.8948 37.7528 22.7321 37.7528 22.3959C37.7528 22.0813 37.7528 21.8101 37.7528 21.8101L36.2175 22.1355V21.3328C36.2175 21.3328 37.0181 21.1701 37.4458 21.0833C37.7857 21.0182 37.8954 20.7904 37.8954 20.4759C37.8954 20.2698 37.8954 19.8684 37.8954 19.8684C37.1278 19.9986 35.6692 20.2915 34.759 20.4976L34.748 25.726C34.748 25.726 36.4807 25.3247 37.4348 25.1186Z" fill="#EE1C23"/>
<path d="M27.39 24.9017C27.39 24.9017 28.2453 24.4569 28.2453 23.7627C28.2344 23.1661 27.686 23.2963 27.4009 23.4047L27.39 24.9017ZM27.4009 25.7153C27.4009 25.7153 27.4009 26.7132 27.4009 27.1254C27.4009 27.5051 27.1377 27.7763 26.8087 27.9064C26.8087 27.8956 26.8087 27.9173 26.8087 27.9064C26.5346 28.0041 25.9424 28.1993 25.9424 28.1993V22.8081C25.9424 22.8081 27.1597 22.3851 27.8725 22.2224C28.9691 21.962 29.7587 22.461 29.7477 23.3505C29.7368 24.1966 29.2652 24.7064 28.8375 25.0644L29.7806 25.9539C30.0658 26.2359 30.0877 26.7349 29.7697 27.0386C29.5723 27.223 29.0569 27.4075 28.6621 26.9953C28.6511 26.9953 27.4009 25.7153 27.4009 25.7153Z" fill="#EE1D23"/>
<path d="M39.6947 22.0054C39.6947 22.0054 40.5391 21.6908 40.5281 21.0182C40.5172 20.4542 39.9579 20.5518 39.6837 20.6169L39.6947 22.0054ZM38.269 24.9559V19.7925C38.269 19.7925 39.7934 19.5213 40.1882 19.4779C41.2848 19.3369 42.0196 19.9443 41.9976 20.7904C41.9867 21.5389 41.5151 21.9945 41.1094 22.2657C41.1094 22.2657 41.8551 23.0901 42.0525 23.3179C42.3157 23.6108 42.3047 24.1206 41.9099 24.3701C41.5261 24.6087 41.1313 24.4894 40.912 24.2399L39.6947 22.8081C39.6947 22.8081 39.6947 23.6867 39.6947 24.0664C39.6947 24.446 39.4644 24.7281 39.0696 24.804L38.269 24.9559Z" fill="#EE1D23"/>
<path d="M34.4089 22.7865L32.2485 23.2746C32.2485 23.2746 32.2485 23.5024 32.2485 23.8712C32.2485 24.1533 32.4459 24.3268 32.731 24.2726C32.9065 24.2401 33.049 24.2075 33.049 24.2075V24.8041C33.049 25.0428 32.6981 25.1946 32.3253 25.1838C31.7989 25.1621 31.5137 24.7607 31.5028 24.0014C31.5137 23.0034 31.9963 22.4177 32.6433 22.255C32.9613 22.1682 33.2574 22.2116 33.4877 22.2441C34.047 22.3309 34.365 22.0706 34.376 21.615C34.3869 21.1268 33.9483 20.8231 33.0161 20.8557C30.9764 20.9207 29.9346 22.3743 29.9346 24.099C29.9346 25.8672 31.108 26.6482 32.5336 26.3987C33.3342 26.236 33.7399 25.9756 34.0141 25.737C34.2882 25.4984 34.4089 25.1404 34.4089 24.8258V22.7865Z" fill="#EE1D23"/>
<path d="M25.8873 17.0048C23.4966 18.0461 21.8845 20.5302 21.7968 21.5715C21.7639 21.9837 22.3232 22.0488 22.378 21.6041C22.8825 19.6949 24.4178 17.8943 25.8873 17.0048Z" fill="white"/>
<path d="M33.7942 18.7838C35.0772 18.4692 35.7901 18.4258 35.801 17.8509C35.8229 16.8963 33.0814 15.7899 30.5591 15.996C33.1252 16.1695 34.6605 17.1458 34.6605 17.8184C34.6715 18.2522 34.2877 18.6319 33.7942 18.7838Z" fill="white"/>
<path d="M34.584 39.8278C36.5141 39.0794 38.3674 37.6366 39.3982 35.4888C39.6943 34.8705 38.839 34.5451 38.5977 35.2827C37.9945 36.8122 36.7663 38.6021 34.584 39.8278Z" fill="white"/>
<path d="M44.3111 33.3736H44.5743C44.7168 33.3736 44.9032 33.3953 44.9032 33.5689C44.9032 33.7641 44.7717 33.7858 44.5962 33.7858H44.322L44.3111 33.3736ZM43.993 34.6862H44.3001V34.0245H44.4975L44.8813 34.6862H45.2103L44.7936 34.0028C45.0239 33.9811 45.2103 33.8726 45.2103 33.5906C45.2103 33.2543 44.991 33.1241 44.5962 33.1241H43.993V34.6862ZM43.1157 33.9051C43.1157 34.7512 43.7956 35.3045 44.5633 35.3045C45.3309 35.3045 46.0109 34.7621 46.0109 33.9051C46.0109 33.059 45.3309 32.5167 44.5633 32.5167C43.7956 32.5167 43.1157 33.059 43.1157 33.9051ZM43.4995 33.9051C43.4995 33.276 43.9711 32.8095 44.5633 32.8095C45.1445 32.8095 45.627 33.2651 45.627 33.9051C45.627 34.5451 45.1445 35.0007 44.5633 35.0007C43.9711 35.0116 43.4995 34.5451 43.4995 33.9051Z" fill="#EE1D23"/>
</g>
<defs>
<clipPath id="clip0_1319_630">
<rect width="32" height="32" fill="white" transform="translate(14 14)"/>
</clipPath>
</defs>
</svg>
