<svg width="531" height="491" viewBox="0 0 531 491" fill="none" xmlns="http://www.w3.org/2000/svg">
<g filter="url(#filter0_d_1311_1288)">
<path d="M150 33.4C150 25.5593 150 21.6389 151.526 18.6441C152.868 16.0099 155.01 13.8681 157.644 12.5259C160.639 11 164.559 11 172.4 11H457.6C465.441 11 469.361 11 472.356 12.5259C474.99 13.8681 477.132 16.0099 478.474 18.6441C480 21.6389 480 25.5593 480 33.4V268.6C480 276.441 480 280.361 478.474 283.356C477.132 285.99 474.99 288.132 472.356 289.474C469.361 291 465.441 291 457.6 291H172.4C164.559 291 160.639 291 157.644 289.474C155.01 288.132 152.868 285.99 151.526 283.356C150 280.361 150 276.441 150 268.6V33.4Z" fill="white"/>
</g>
<g filter="url(#filter1_d_1311_1288)">
<path fill-rule="evenodd" clip-rule="evenodd" d="M172.376 10.5H457.624C461.524 10.5 464.481 10.5 466.836 10.6924C469.201 10.8857 471.003 11.2756 472.583 12.0804C475.311 13.4706 477.529 15.6888 478.92 18.4171C479.724 19.9968 480.114 21.7987 480.308 24.1641C480.5 26.5189 480.5 29.4757 480.5 33.3759V268.624C480.5 272.524 480.5 275.481 480.308 277.836C480.114 280.201 479.724 282.003 478.92 283.583C477.529 286.311 475.311 288.529 472.583 289.92C471.003 290.724 469.201 291.114 466.836 291.308C464.481 291.5 461.524 291.5 457.624 291.5H172.376C168.476 291.5 165.519 291.5 163.164 291.308C160.799 291.114 158.997 290.724 157.417 289.92C154.689 288.529 152.471 286.311 151.08 283.583C150.276 282.003 149.886 280.201 149.692 277.836C149.5 275.481 149.5 272.524 149.5 268.624V33.3764C149.5 29.476 149.5 26.519 149.692 24.1641C149.886 21.7987 150.276 19.9968 151.08 18.4171C152.471 15.6888 154.689 13.4706 157.417 12.0804C158.997 11.2756 160.799 10.8857 163.164 10.6924C165.519 10.5 168.476 10.5 172.376 10.5ZM163.246 11.6891C160.942 11.8773 159.286 12.2504 157.871 12.9714C155.331 14.2657 153.266 16.3309 151.971 18.8711C151.25 20.2863 150.877 21.9419 150.689 24.2455C150.5 26.555 150.5 29.4714 150.5 33.4V268.6C150.5 272.529 150.5 275.445 150.689 277.754C150.877 280.058 151.25 281.714 151.971 283.129C153.266 285.669 155.331 287.734 157.871 289.029C159.286 289.75 160.942 290.123 163.246 290.311C165.555 290.5 168.471 290.5 172.4 290.5H457.6C461.529 290.5 464.445 290.5 466.754 290.311C469.058 290.123 470.714 289.75 472.129 289.029C474.669 287.734 476.734 285.669 478.029 283.129C478.75 281.714 479.123 280.058 479.311 277.754C479.5 275.445 479.5 272.529 479.5 268.6V33.4C479.5 29.4714 479.5 26.555 479.311 24.2455C479.123 21.9419 478.75 20.2863 478.029 18.8711C476.734 16.3309 474.669 14.2657 472.129 12.9714C470.714 12.2504 469.058 11.8773 466.754 11.6891C464.445 11.5004 461.529 11.5 457.6 11.5H172.4C168.471 11.5 165.555 11.5004 163.246 11.6891Z" fill="url(#paint0_linear_1311_1288)"/>
</g>
<path fill-rule="evenodd" clip-rule="evenodd" d="M152.946 106L150 106L150 104L152.946 104L152.946 106ZM164.732 106L158.839 106L158.839 104L164.732 104L164.732 106ZM176.518 106L170.625 106L170.625 104L176.518 104L176.518 106ZM188.304 106L182.411 106L182.411 104L188.304 104L188.304 106ZM200.089 106L194.196 106L194.196 104L200.089 104L200.089 106ZM211.875 106L205.982 106L205.982 104L211.875 104L211.875 106ZM223.661 106L217.768 106L217.768 104L223.661 104L223.661 106ZM235.446 106L229.554 106L229.554 104L235.446 104L235.446 106ZM247.232 106L241.339 106L241.339 104L247.232 104L247.232 106ZM259.018 106L253.125 106L253.125 104L259.018 104L259.018 106ZM270.804 106L264.911 106L264.911 104L270.804 104L270.804 106ZM282.589 106L276.696 106L276.696 104L282.589 104L282.589 106ZM294.375 106L288.482 106L288.482 104L294.375 104L294.375 106ZM306.161 106L300.268 106L300.268 104L306.161 104L306.161 106ZM317.946 106L312.054 106L312.054 104L317.946 104L317.946 106ZM329.732 106L323.839 106L323.839 104L329.732 104L329.732 106ZM341.518 106L335.625 106L335.625 104L341.518 104L341.518 106ZM353.304 106L347.411 106L347.411 104L353.304 104L353.304 106ZM365.089 106L359.196 106L359.196 104L365.089 104L365.089 106ZM376.875 106L370.982 106L370.982 104L376.875 104L376.875 106ZM388.661 106L382.768 106L382.768 104L388.661 104L388.661 106ZM400.446 106L394.554 106L394.554 104L400.446 104L400.446 106ZM412.232 106L406.339 106L406.339 104L412.232 104L412.232 106ZM424.018 106L418.125 106L418.125 104L424.018 104L424.018 106ZM435.803 106L429.911 106L429.911 104L435.803 104L435.803 106ZM447.589 106L441.696 106L441.696 104L447.589 104L447.589 106ZM459.375 106L453.482 106L453.482 104L459.375 104L459.375 106ZM471.161 106L465.268 106L465.268 104L471.161 104L471.161 106ZM480 106L477.053 106L477.053 104L480 104L480 106Z" fill="#E0E2E6"/>
<path d="M176.516 153H172V135.594L166.609 137.266V133.594L176.031 130.219H176.516V153Z" fill="#2D3C5A"/>
<path d="M199.516 153H183.922V149.906L191.281 142.062C192.292 140.958 193.036 139.995 193.516 139.172C194.005 138.349 194.25 137.568 194.25 136.828C194.25 135.818 193.995 135.026 193.484 134.453C192.974 133.87 192.245 133.578 191.297 133.578C190.276 133.578 189.469 133.932 188.875 134.641C188.292 135.339 188 136.26 188 137.406H183.469C183.469 136.021 183.797 134.755 184.453 133.609C185.12 132.464 186.057 131.568 187.266 130.922C188.474 130.266 189.844 129.938 191.375 129.938C193.719 129.938 195.536 130.5 196.828 131.625C198.13 132.75 198.781 134.339 198.781 136.391C198.781 137.516 198.49 138.661 197.906 139.828C197.323 140.995 196.323 142.354 194.906 143.906L189.734 149.359H199.516V153Z" fill="#2D3C5A"/>
<path d="M225.578 143.594C225.578 146.74 224.927 149.146 223.625 150.812C222.323 152.479 220.417 153.312 217.906 153.312C215.427 153.312 213.531 152.495 212.219 150.859C210.906 149.224 210.234 146.88 210.203 143.828V139.641C210.203 136.464 210.859 134.052 212.172 132.406C213.495 130.76 215.396 129.938 217.875 129.938C220.354 129.938 222.25 130.755 223.562 132.391C224.875 134.016 225.547 136.354 225.578 139.406V143.594ZM221.062 139C221.062 137.115 220.802 135.745 220.281 134.891C219.771 134.026 218.969 133.594 217.875 133.594C216.812 133.594 216.026 134.005 215.516 134.828C215.016 135.641 214.75 136.917 214.719 138.656V144.188C214.719 146.042 214.969 147.422 215.469 148.328C215.979 149.224 216.792 149.672 217.906 149.672C219.01 149.672 219.807 149.24 220.297 148.375C220.786 147.51 221.042 146.188 221.062 144.406V139Z" fill="#2D3C5A"/>
<path d="M243.953 143.594C243.953 146.74 243.302 149.146 242 150.812C240.698 152.479 238.792 153.312 236.281 153.312C233.802 153.312 231.906 152.495 230.594 150.859C229.281 149.224 228.609 146.88 228.578 143.828V139.641C228.578 136.464 229.234 134.052 230.547 132.406C231.87 130.76 233.771 129.938 236.25 129.938C238.729 129.938 240.625 130.755 241.938 132.391C243.25 134.016 243.922 136.354 243.953 139.406V143.594ZM239.438 139C239.438 137.115 239.177 135.745 238.656 134.891C238.146 134.026 237.344 133.594 236.25 133.594C235.188 133.594 234.401 134.005 233.891 134.828C233.391 135.641 233.125 136.917 233.094 138.656V144.188C233.094 146.042 233.344 147.422 233.844 148.328C234.354 149.224 235.167 149.672 236.281 149.672C237.385 149.672 238.182 149.24 238.672 148.375C239.161 147.51 239.417 146.188 239.438 144.406V139Z" fill="#2D3C5A"/>
<path d="M262.328 143.594C262.328 146.74 261.677 149.146 260.375 150.812C259.073 152.479 257.167 153.312 254.656 153.312C252.177 153.312 250.281 152.495 248.969 150.859C247.656 149.224 246.984 146.88 246.953 143.828V139.641C246.953 136.464 247.609 134.052 248.922 132.406C250.245 130.76 252.146 129.938 254.625 129.938C257.104 129.938 259 130.755 260.312 132.391C261.625 134.016 262.297 136.354 262.328 139.406V143.594ZM257.812 139C257.812 137.115 257.552 135.745 257.031 134.891C256.521 134.026 255.719 133.594 254.625 133.594C253.562 133.594 252.776 134.005 252.266 134.828C251.766 135.641 251.5 136.917 251.469 138.656V144.188C251.469 146.042 251.719 147.422 252.219 148.328C252.729 149.224 253.542 149.672 254.656 149.672C255.76 149.672 256.557 149.24 257.047 148.375C257.536 147.51 257.792 146.188 257.812 144.406V139Z" fill="#2D3C5A"/>
<path d="M282.289 142.305H285.026L285.713 141.696H282.976L282.289 142.305Z" fill="#C0C5CE"/>
<path d="M284 148.286C283.947 148.286 283.894 148.284 283.841 148.282C282.913 148.24 282.156 147.748 281.815 146.965C281.54 146.33 281.536 145.394 282.354 144.67L283.11 144H280.477C279.663 145.038 279.476 146.355 280.009 147.58C280.623 148.993 282.054 149.918 283.742 149.994C283.828 149.998 283.914 150 284 150C286.757 150 289 148.013 289 145.571H287.064C287.064 147.068 285.69 148.286 284 148.286Z" fill="#C0C5CE"/>
<path d="M284 135.714C284.053 135.714 284.105 135.715 284.158 135.718C285.087 135.76 285.844 136.252 286.184 137.035C286.46 137.67 286.463 138.606 285.646 139.33L284.889 140H287.523C288.336 138.962 288.523 137.645 287.991 136.42C287.377 135.007 285.946 134.082 284.257 134.006C284.172 134.002 284.086 134 284 134C281.243 134 279 135.987 279 138.429H280.935C280.935 136.932 282.31 135.714 284 135.714Z" fill="#C0C5CE"/>
<path d="M288.597 142.59H279.404V143.714H288.597V142.59Z" fill="#C0C5CE"/>
<path d="M288.597 140.286H279.404V141.41H288.597V140.286Z" fill="#C0C5CE"/>
<path d="M174.11 188.44H172.805V186H165.661V188.447H164.349L164.342 184.927H165.155C165.584 184.444 165.923 183.797 166.174 182.985C166.429 182.17 166.589 181.276 166.652 180.306L166.871 176.047H172.825V184.927H174.124L174.11 188.44ZM166.652 184.927H171.506V177.127H168.136L167.992 180.053C167.933 181.197 167.78 182.172 167.534 182.979C167.293 183.785 166.999 184.435 166.652 184.927Z" fill="#969DAC"/>
<path d="M175.149 182.233C175.149 181.509 175.291 180.857 175.573 180.278C175.86 179.7 176.257 179.253 176.763 178.938C177.273 178.624 177.854 178.467 178.506 178.467C179.513 178.467 180.326 178.815 180.946 179.513C181.571 180.21 181.883 181.137 181.883 182.295V182.384C181.883 183.104 181.744 183.751 181.466 184.325C181.192 184.895 180.798 185.339 180.283 185.658C179.773 185.977 179.185 186.137 178.52 186.137C177.517 186.137 176.703 185.788 176.079 185.091C175.459 184.394 175.149 183.471 175.149 182.322V182.233ZM176.421 182.384C176.421 183.204 176.61 183.863 176.988 184.359C177.371 184.856 177.882 185.104 178.52 185.104C179.162 185.104 179.673 184.854 180.051 184.353C180.429 183.847 180.618 183.14 180.618 182.233C180.618 181.422 180.424 180.766 180.037 180.265C179.654 179.759 179.144 179.506 178.506 179.506C177.882 179.506 177.378 179.754 176.995 180.251C176.612 180.748 176.421 181.459 176.421 182.384Z" fill="#969DAC"/>
<path d="M186.436 185.104C186.887 185.104 187.281 184.968 187.618 184.694C187.955 184.421 188.142 184.079 188.179 183.669H189.375C189.352 184.093 189.206 184.496 188.938 184.879C188.669 185.262 188.309 185.567 187.857 185.795C187.411 186.023 186.937 186.137 186.436 186.137C185.428 186.137 184.626 185.802 184.029 185.132C183.437 184.457 183.141 183.537 183.141 182.37V182.158C183.141 181.438 183.273 180.798 183.537 180.237C183.801 179.677 184.18 179.242 184.672 178.932C185.169 178.622 185.754 178.467 186.429 178.467C187.258 178.467 187.946 178.715 188.493 179.212C189.045 179.709 189.339 180.354 189.375 181.146H188.179C188.142 180.668 187.96 180.276 187.632 179.971C187.308 179.661 186.907 179.506 186.429 179.506C185.786 179.506 185.287 179.738 184.932 180.203C184.581 180.663 184.405 181.331 184.405 182.206V182.445C184.405 183.298 184.581 183.954 184.932 184.414C185.283 184.874 185.784 185.104 186.436 185.104Z" fill="#969DAC"/>
<path d="M196.293 179.629H193.812V186H192.547V179.629H190.113V178.604H196.293V179.629Z" fill="#969DAC"/>
<path d="M200.025 184.147L201.748 178.604H203.102L200.128 187.142C199.668 188.372 198.936 188.987 197.934 188.987L197.694 188.967L197.223 188.878V187.853L197.564 187.88C197.993 187.88 198.326 187.793 198.562 187.62C198.804 187.447 199.002 187.13 199.157 186.67L199.438 185.918L196.799 178.604H198.18L200.025 184.147Z" fill="#969DAC"/>
<path d="M210.286 186H209.021V179.649H205.617V186H204.346V178.604H210.286V186Z" fill="#969DAC"/>
<path d="M218.359 186H217.095V182.842H213.697V186H212.426V178.604H213.697V181.81H217.095V178.604H218.359V186Z" fill="#969DAC"/>
<path d="M221.777 181.153H223.698C224.537 181.162 225.2 181.381 225.688 181.81C226.175 182.238 226.419 182.819 226.419 183.553C226.419 184.291 226.168 184.883 225.667 185.33C225.166 185.777 224.491 186 223.644 186H220.513V178.604H221.777V181.153ZM229.058 186H227.786V178.604H229.058V186ZM221.777 182.186V184.968H223.657C224.131 184.968 224.498 184.847 224.758 184.605C225.018 184.359 225.147 184.024 225.147 183.601C225.147 183.19 225.02 182.855 224.765 182.596C224.514 182.331 224.161 182.195 223.705 182.186H221.777Z" fill="#969DAC"/>
<path d="M234.335 186.137C233.332 186.137 232.517 185.809 231.888 185.152C231.259 184.492 230.944 183.61 230.944 182.507V182.274C230.944 181.541 231.083 180.887 231.361 180.312C231.644 179.734 232.036 179.283 232.537 178.959C233.043 178.631 233.59 178.467 234.178 178.467C235.139 178.467 235.887 178.784 236.42 179.417C236.953 180.05 237.22 180.957 237.22 182.138V182.664H232.209C232.227 183.393 232.439 183.983 232.845 184.435C233.255 184.881 233.774 185.104 234.403 185.104C234.85 185.104 235.228 185.013 235.538 184.831C235.848 184.649 236.119 184.407 236.352 184.106L237.124 184.708C236.504 185.66 235.575 186.137 234.335 186.137ZM234.178 179.506C233.667 179.506 233.239 179.693 232.893 180.066C232.546 180.436 232.332 180.955 232.25 181.625H235.955V181.529C235.919 180.887 235.745 180.39 235.436 180.039C235.126 179.684 234.706 179.506 234.178 179.506Z" fill="#969DAC"/>
<path d="M245.129 185.104C245.58 185.104 245.974 184.968 246.312 184.694C246.649 184.421 246.836 184.079 246.872 183.669H248.068C248.046 184.093 247.9 184.496 247.631 184.879C247.362 185.262 247.002 185.567 246.551 185.795C246.104 186.023 245.63 186.137 245.129 186.137C244.122 186.137 243.32 185.802 242.723 185.132C242.13 184.457 241.834 183.537 241.834 182.37V182.158C241.834 181.438 241.966 180.798 242.23 180.237C242.495 179.677 242.873 179.242 243.365 178.932C243.862 178.622 244.448 178.467 245.122 178.467C245.951 178.467 246.64 178.715 247.187 179.212C247.738 179.709 248.032 180.354 248.068 181.146H246.872C246.836 180.668 246.653 180.276 246.325 179.971C246.002 179.661 245.601 179.506 245.122 179.506C244.479 179.506 243.98 179.738 243.625 180.203C243.274 180.663 243.099 181.331 243.099 182.206V182.445C243.099 183.298 243.274 183.954 243.625 184.414C243.976 184.874 244.477 185.104 245.129 185.104Z" fill="#969DAC"/>
<path d="M255.738 182.384C255.738 183.509 255.481 184.416 254.966 185.104C254.451 185.793 253.754 186.137 252.874 186.137C251.976 186.137 251.27 185.852 250.755 185.282V188.844H249.49V178.604H250.646L250.707 179.424C251.222 178.786 251.938 178.467 252.854 178.467C253.742 178.467 254.444 178.802 254.959 179.472C255.479 180.142 255.738 181.074 255.738 182.268V182.384ZM254.474 182.24C254.474 181.406 254.296 180.748 253.94 180.265C253.585 179.782 253.097 179.54 252.478 179.54C251.712 179.54 251.138 179.88 250.755 180.559V184.093C251.133 184.767 251.712 185.104 252.491 185.104C253.097 185.104 253.578 184.865 253.934 184.387C254.294 183.904 254.474 183.188 254.474 182.24Z" fill="#969DAC"/>
<path d="M260.421 186.137C259.418 186.137 258.603 185.809 257.974 185.152C257.345 184.492 257.03 183.61 257.03 182.507V182.274C257.03 181.541 257.169 180.887 257.447 180.312C257.73 179.734 258.122 179.283 258.623 178.959C259.129 178.631 259.676 178.467 260.264 178.467C261.225 178.467 261.973 178.784 262.506 179.417C263.039 180.05 263.306 180.957 263.306 182.138V182.664H258.295C258.313 183.393 258.525 183.983 258.931 184.435C259.341 184.881 259.86 185.104 260.489 185.104C260.936 185.104 261.314 185.013 261.624 184.831C261.934 184.649 262.205 184.407 262.438 184.106L263.21 184.708C262.59 185.66 261.66 186.137 260.421 186.137ZM260.264 179.506C259.753 179.506 259.325 179.693 258.979 180.066C258.632 180.436 258.418 180.955 258.336 181.625H262.041V181.529C262.005 180.887 261.831 180.39 261.521 180.039C261.212 179.684 260.792 179.506 260.264 179.506Z" fill="#969DAC"/>
<path d="M264.714 184.968L265.151 184.428C265.644 183.79 265.924 182.833 265.992 181.557L266.108 178.604H270.873V184.968H271.823V188.174H270.559V186H265.397V188.174H264.133L264.14 184.968H264.714ZM266.211 184.968H269.608V179.772H267.332L267.257 181.536C267.179 183.008 266.831 184.152 266.211 184.968Z" fill="#969DAC"/>
<path d="M276.191 185.104C276.643 185.104 277.037 184.968 277.374 184.694C277.711 184.421 277.898 184.079 277.935 183.669H279.131C279.108 184.093 278.962 184.496 278.693 184.879C278.424 185.262 278.064 185.567 277.613 185.795C277.167 186.023 276.693 186.137 276.191 186.137C275.184 186.137 274.382 185.802 273.785 185.132C273.193 184.457 272.896 183.537 272.896 182.37V182.158C272.896 181.438 273.029 180.798 273.293 180.237C273.557 179.677 273.936 179.242 274.428 178.932C274.924 178.622 275.51 178.467 276.185 178.467C277.014 178.467 277.702 178.715 278.249 179.212C278.8 179.709 279.094 180.354 279.131 181.146H277.935C277.898 180.668 277.716 180.276 277.388 179.971C277.064 179.661 276.663 179.506 276.185 179.506C275.542 179.506 275.043 179.738 274.688 180.203C274.337 180.663 274.161 181.331 274.161 182.206V182.445C274.161 183.298 274.337 183.954 274.688 184.414C275.038 184.874 275.54 185.104 276.191 185.104Z" fill="#969DAC"/>
<path d="M286.049 179.629H283.567V186H282.303V179.629H279.869V178.604H286.049V179.629Z" fill="#969DAC"/>
<path d="M287.396 186V178.604H290.28C291.265 178.604 292.019 178.777 292.543 179.123C293.072 179.465 293.336 179.968 293.336 180.634C293.336 180.976 293.233 181.285 293.028 181.563C292.823 181.837 292.52 182.047 292.119 182.192C292.566 182.297 292.924 182.502 293.192 182.808C293.466 183.113 293.603 183.478 293.603 183.901C293.603 184.58 293.352 185.1 292.851 185.46C292.354 185.82 291.65 186 290.738 186H287.396ZM288.66 182.753V184.981H290.752C291.281 184.981 291.675 184.883 291.935 184.688C292.199 184.492 292.331 184.216 292.331 183.86C292.331 183.122 291.789 182.753 290.704 182.753H288.66ZM288.66 181.741H290.294C291.479 181.741 292.071 181.395 292.071 180.702C292.071 180.009 291.511 179.652 290.39 179.629H288.66V181.741Z" fill="#969DAC"/>
<path d="M299.844 186C299.771 185.854 299.712 185.594 299.666 185.221C299.078 185.831 298.376 186.137 297.561 186.137C296.831 186.137 296.232 185.932 295.763 185.521C295.298 185.107 295.065 184.583 295.065 183.949C295.065 183.179 295.357 182.582 295.94 182.158C296.528 181.73 297.353 181.516 298.415 181.516H299.646V180.935C299.646 180.493 299.513 180.142 299.249 179.882C298.985 179.618 298.595 179.485 298.08 179.485C297.629 179.485 297.251 179.599 296.945 179.827C296.64 180.055 296.487 180.331 296.487 180.654H295.216C295.216 180.285 295.346 179.93 295.605 179.588C295.87 179.242 296.225 178.968 296.672 178.768C297.123 178.567 297.618 178.467 298.155 178.467C299.007 178.467 299.675 178.681 300.158 179.109C300.641 179.533 300.892 180.119 300.91 180.866V184.271C300.91 184.95 300.997 185.49 301.17 185.891V186H299.844ZM297.745 185.036C298.142 185.036 298.518 184.934 298.873 184.729C299.229 184.523 299.486 184.257 299.646 183.929V182.411H298.654C297.105 182.411 296.33 182.865 296.33 183.771C296.33 184.168 296.462 184.478 296.727 184.701C296.991 184.924 297.33 185.036 297.745 185.036Z" fill="#969DAC"/>
<path d="M306.304 184.968L306.741 184.428C307.233 183.79 307.514 182.833 307.582 181.557L307.698 178.604H312.463V184.968H313.413V188.174H312.148V186H306.987V188.174H305.723L305.729 184.968H306.304ZM307.801 184.968H311.198V179.772H308.922L308.847 181.536C308.769 183.008 308.421 184.152 307.801 184.968Z" fill="#969DAC"/>
<path d="M320.878 178.604V186H319.606V179.649H317.091L316.94 182.418C316.858 183.689 316.644 184.599 316.298 185.146C315.956 185.692 315.411 185.977 314.664 186H314.158V184.886L314.521 184.858C314.931 184.813 315.225 184.576 315.402 184.147C315.58 183.719 315.694 182.926 315.744 181.769L315.881 178.604H320.878Z" fill="#969DAC"/>
<path d="M328.562 178.604V186H327.29V183.122H325.383L323.64 186H322.272L324.132 182.931C323.658 182.757 323.293 182.491 323.038 182.131C322.787 181.766 322.662 181.342 322.662 180.859C322.662 180.185 322.915 179.643 323.421 179.232C323.927 178.818 324.604 178.608 325.451 178.604H328.562ZM323.934 180.873C323.934 181.233 324.057 181.525 324.303 181.748C324.549 181.967 324.875 182.078 325.28 182.083H327.29V179.629H325.472C325.002 179.629 324.629 179.745 324.351 179.978C324.073 180.205 323.934 180.504 323.934 180.873Z" fill="#969DAC"/>
<path d="M337.031 185.104C337.482 185.104 337.877 184.968 338.214 184.694C338.551 184.421 338.738 184.079 338.774 183.669H339.971C339.948 184.093 339.802 184.496 339.533 184.879C339.264 185.262 338.904 185.567 338.453 185.795C338.007 186.023 337.533 186.137 337.031 186.137C336.024 186.137 335.222 185.802 334.625 185.132C334.033 184.457 333.736 183.537 333.736 182.37V182.158C333.736 181.438 333.868 180.798 334.133 180.237C334.397 179.677 334.775 179.242 335.268 178.932C335.764 178.622 336.35 178.467 337.024 178.467C337.854 178.467 338.542 178.715 339.089 179.212C339.64 179.709 339.934 180.354 339.971 181.146H338.774C338.738 180.668 338.556 180.276 338.228 179.971C337.904 179.661 337.503 179.506 337.024 179.506C336.382 179.506 335.883 179.738 335.527 180.203C335.176 180.663 335.001 181.331 335.001 182.206V182.445C335.001 183.298 335.176 183.954 335.527 184.414C335.878 184.874 336.38 185.104 337.031 185.104Z" fill="#969DAC"/>
<path d="M347.436 186H346.171V182.842H342.773V186H341.502V178.604H342.773V181.81H346.171V178.604H347.436V186Z" fill="#969DAC"/>
<path d="M355.126 178.604V186H353.854V183.122H351.947L350.204 186H348.837L350.696 182.931C350.222 182.757 349.858 182.491 349.603 182.131C349.352 181.766 349.227 181.342 349.227 180.859C349.227 180.185 349.479 179.643 349.985 179.232C350.491 178.818 351.168 178.608 352.016 178.604H355.126ZM350.498 180.873C350.498 181.233 350.621 181.525 350.867 181.748C351.113 181.967 351.439 182.078 351.845 182.083H353.854V179.629H352.036C351.567 179.629 351.193 179.745 350.915 179.978C350.637 180.205 350.498 180.504 350.498 180.873Z" fill="#969DAC"/>
<path d="M362.652 179.629H360.171V186H358.906V179.629H356.473V178.604H362.652V179.629Z" fill="#969DAC"/>
<path d="M368.668 178.604H369.933V186H368.668V180.606L365.257 186H363.992V178.604H365.257V184.004L368.668 178.604Z" fill="#969DAC"/>
<path d="M377.616 178.604V186H376.345V183.122H374.438L372.694 186H371.327L373.187 182.931C372.713 182.757 372.348 182.491 372.093 182.131C371.842 181.766 371.717 181.342 371.717 180.859C371.717 180.185 371.97 179.643 372.476 179.232C372.981 178.818 373.658 178.608 374.506 178.604H377.616ZM372.988 180.873C372.988 181.233 373.111 181.525 373.357 181.748C373.604 181.967 373.929 182.078 374.335 182.083H376.345V179.629H374.526C374.057 179.629 373.683 179.745 373.405 179.978C373.127 180.205 372.988 180.504 372.988 180.873Z" fill="#969DAC"/>
<path d="M164 223.8C164 219.32 164 217.079 164.872 215.368C165.639 213.863 166.863 212.639 168.368 211.872C170.079 211 172.32 211 176.8 211H453.2C457.68 211 459.921 211 461.632 211.872C463.137 212.639 464.361 213.863 465.128 215.368C466 217.079 466 219.32 466 223.8V254.2C466 258.68 466 260.921 465.128 262.632C464.361 264.137 463.137 265.361 461.632 266.128C459.921 267 457.68 267 453.2 267H176.8C172.32 267 170.079 267 168.368 266.128C166.863 265.361 165.639 264.137 164.872 262.632C164 260.921 164 258.68 164 254.2V223.8Z" fill="#0AB48C"/>
<path d="M269.2 240.939C269.042 242.293 268.541 243.339 267.697 244.077C266.859 244.81 265.743 245.176 264.349 245.176C262.837 245.176 261.624 244.634 260.71 243.55C259.802 242.466 259.348 241.016 259.348 239.199V237.969C259.348 236.779 259.559 235.733 259.98 234.831C260.408 233.929 261.012 233.237 261.791 232.757C262.57 232.271 263.473 232.027 264.498 232.027C265.857 232.027 266.947 232.408 267.768 233.17C268.588 233.926 269.065 234.975 269.2 236.316H267.504C267.357 235.297 267.038 234.559 266.546 234.102C266.06 233.645 265.377 233.416 264.498 233.416C263.42 233.416 262.573 233.814 261.958 234.611C261.349 235.408 261.044 236.542 261.044 238.013V239.252C261.044 240.641 261.334 241.745 261.914 242.565C262.494 243.386 263.306 243.796 264.349 243.796C265.286 243.796 266.004 243.585 266.502 243.163C267.006 242.735 267.34 241.994 267.504 240.939H269.2Z" fill="white"/>
<path d="M279.026 245H277.4V240.939H273.032V245H271.397V235.49H273.032V239.612H277.4V235.49H279.026V245Z" fill="white"/>
<path d="M288.914 235.49V245H287.279V241.3H284.827L282.586 245H280.828L283.219 241.054C282.609 240.831 282.141 240.488 281.812 240.025C281.49 239.557 281.329 239.012 281.329 238.391C281.329 237.523 281.654 236.826 282.305 236.299C282.955 235.766 283.825 235.496 284.915 235.49H288.914ZM282.964 238.408C282.964 238.871 283.122 239.246 283.438 239.533C283.755 239.814 284.174 239.958 284.695 239.964H287.279V236.809H284.941C284.338 236.809 283.857 236.958 283.5 237.257C283.143 237.55 282.964 237.934 282.964 238.408Z" fill="white"/>
<path d="M298.591 236.809H295.4V245H293.774V236.809H290.646V235.49H298.591V236.809Z" fill="white"/>
<path d="M301.948 238.769H304.418C305.496 238.78 306.349 239.062 306.976 239.612C307.603 240.163 307.916 240.91 307.916 241.854C307.916 242.803 307.594 243.564 306.949 244.139C306.305 244.713 305.438 245 304.348 245H300.322V235.49H301.948V238.769ZM301.948 240.096V243.673H304.365C304.975 243.673 305.446 243.518 305.78 243.207C306.114 242.891 306.281 242.46 306.281 241.915C306.281 241.388 306.117 240.957 305.789 240.623C305.467 240.283 305.013 240.107 304.427 240.096H301.948Z" fill="white"/>
<path d="M314.332 243.673L314.895 242.979C315.527 242.158 315.888 240.928 315.976 239.287L316.125 235.49H322.251V243.673H323.473V247.795H321.847V245H315.211V247.795H313.585L313.594 243.673H314.332ZM316.257 243.673H320.625V236.993H317.698L317.602 239.261C317.502 241.153 317.054 242.624 316.257 243.673Z" fill="white"/>
<path d="M329.221 245.176C327.932 245.176 326.883 244.754 326.074 243.91C325.266 243.061 324.861 241.927 324.861 240.509V240.21C324.861 239.267 325.04 238.426 325.397 237.688C325.761 236.943 326.265 236.363 326.909 235.947C327.56 235.525 328.263 235.314 329.019 235.314C330.255 235.314 331.216 235.722 331.901 236.536C332.587 237.351 332.93 238.517 332.93 240.034V240.711H326.487C326.511 241.648 326.783 242.407 327.305 242.987C327.832 243.562 328.5 243.849 329.309 243.849C329.883 243.849 330.369 243.731 330.768 243.497C331.166 243.263 331.515 242.952 331.813 242.565L332.807 243.339C332.01 244.563 330.814 245.176 329.221 245.176ZM329.019 236.65C328.362 236.65 327.812 236.891 327.366 237.371C326.921 237.846 326.646 238.514 326.54 239.375H331.304V239.252C331.257 238.426 331.034 237.787 330.636 237.336C330.237 236.879 329.698 236.65 329.019 236.65Z" fill="white"/>
<path d="M342.589 245H340.963V240.939H336.595V245H334.96V235.49H336.595V239.612H340.963V235.49H342.589V245Z" fill="white"/>
<path d="M346.983 238.769H349.453C350.531 238.78 351.384 239.062 352.011 239.612C352.638 240.163 352.951 240.91 352.951 241.854C352.951 242.803 352.629 243.564 351.984 244.139C351.34 244.713 350.473 245 349.383 245H345.357V235.49H346.983V238.769ZM346.983 240.096V243.673H349.4C350.01 243.673 350.481 243.518 350.815 243.207C351.149 242.891 351.316 242.46 351.316 241.915C351.316 241.388 351.152 240.957 350.824 240.623C350.502 240.283 350.048 240.107 349.462 240.096H346.983Z" fill="white"/>
<path d="M361.125 236.835H356.739V245H355.104V235.49H361.125V236.835Z" fill="white"/>
<path d="M368.692 235.49H370.318V245H368.692V238.065L364.307 245H362.681V235.49H364.307V242.434L368.692 235.49Z" fill="white"/>
<path d="M211.065 48.834C210.937 50.1992 210.433 51.2656 209.554 52.0332C208.675 52.7949 207.506 53.1758 206.047 53.1758C205.027 53.1758 204.128 52.9355 203.349 52.4551C202.575 51.9688 201.978 51.2803 201.556 50.3896C201.134 49.499 200.914 48.4648 200.896 47.2871V46.0918C200.896 44.8848 201.11 43.8213 201.538 42.9014C201.966 41.9814 202.578 41.2725 203.375 40.7744C204.178 40.2764 205.104 40.0273 206.152 40.0273C207.564 40.0273 208.701 40.4111 209.562 41.1787C210.424 41.9463 210.925 43.0303 211.065 44.4307H208.851C208.745 43.5107 208.476 42.8486 208.042 42.4443C207.614 42.0342 206.984 41.8291 206.152 41.8291C205.186 41.8291 204.441 42.1836 203.92 42.8926C203.404 43.5957 203.141 44.6299 203.129 45.9951V47.1289C203.129 48.5117 203.375 49.5664 203.867 50.293C204.365 51.0195 205.092 51.3828 206.047 51.3828C206.92 51.3828 207.576 51.1865 208.016 50.7939C208.455 50.4014 208.733 49.748 208.851 48.834H211.065Z" fill="#2D3C5A"/>
<path d="M220.909 53H218.773V49.1592H215.073V53H212.938V43.4902H215.073V47.4541H218.773V43.4902H220.909V53Z" fill="#2D3C5A"/>
<path d="M230.806 43.4902V53H228.679V49.5107H226.684L224.653 53H222.438L224.68 49.1592C224.094 48.9131 223.643 48.5615 223.326 48.1045C223.016 47.6475 222.86 47.123 222.86 46.5312C222.86 45.6465 223.2 44.9229 223.88 44.3604C224.565 43.792 225.488 43.502 226.648 43.4902H230.806ZM224.996 46.584C224.996 46.9824 225.143 47.3076 225.436 47.5596C225.734 47.8057 226.115 47.9287 226.578 47.9287H228.679V45.1865H226.71C226.188 45.1865 225.772 45.3184 225.462 45.582C225.151 45.8457 224.996 46.1797 224.996 46.584Z" fill="#2D3C5A"/>
<path d="M240.658 45.1865H237.573V53H235.438V45.1865H232.388V43.4902H240.658V45.1865Z" fill="#2D3C5A"/>
<path d="M244.385 46.5137H246.477C247.256 46.5137 247.936 46.6484 248.516 46.918C249.096 47.1875 249.535 47.5654 249.834 48.0518C250.139 48.5381 250.291 49.1035 250.291 49.748C250.291 50.7266 249.945 51.5117 249.254 52.1035C248.562 52.6953 247.643 52.9941 246.494 53H242.249V43.4902H244.385V46.5137ZM244.385 48.2275V51.2949H246.468C246.989 51.2949 247.399 51.166 247.698 50.9082C248.003 50.6445 248.155 50.2725 248.155 49.792C248.155 49.3115 248.006 48.9336 247.707 48.6582C247.414 48.377 247.016 48.2334 246.512 48.2275H244.385Z" fill="#2D3C5A"/>
<path d="M256.522 51.2949C257.114 50.6328 257.51 50.0059 257.709 49.4141C257.914 48.8164 258.037 48.0547 258.078 47.1289L258.201 43.4902H264.802V51.2949H266.12V55.8301H263.993V53H257.894V55.8301H255.731L255.74 51.2949H256.522ZM259.027 51.2949H262.675V45.3271H260.275L260.214 47.1465C260.132 48.8926 259.736 50.2754 259.027 51.2949Z" fill="#2D3C5A"/>
<path d="M271.833 53.1758C270.479 53.1758 269.381 52.751 268.537 51.9014C267.699 51.0459 267.28 49.9092 267.28 48.4912V48.2275C267.28 47.2783 267.462 46.4316 267.825 45.6875C268.194 44.9375 268.71 44.3545 269.372 43.9385C270.034 43.5225 270.772 43.3145 271.587 43.3145C272.882 43.3145 273.881 43.7275 274.584 44.5537C275.293 45.3799 275.647 46.5488 275.647 48.0605V48.9219H269.434C269.498 49.707 269.759 50.3281 270.216 50.7852C270.679 51.2422 271.259 51.4707 271.956 51.4707C272.935 51.4707 273.731 51.0752 274.347 50.2842L275.498 51.3828C275.117 51.9512 274.607 52.3936 273.969 52.71C273.336 53.0205 272.624 53.1758 271.833 53.1758ZM271.578 45.0283C270.992 45.0283 270.518 45.2334 270.154 45.6436C269.797 46.0537 269.568 46.625 269.469 47.3574H273.538V47.1992C273.491 46.4844 273.301 45.9453 272.967 45.582C272.633 45.2129 272.17 45.0283 271.578 45.0283Z" fill="#2D3C5A"/>
<path d="M285.368 53H283.232V49.1592H279.532V53H277.396V43.4902H279.532V47.4541H283.232V43.4902H285.368V53Z" fill="#2D3C5A"/>
<path d="M289.947 46.5137H292.039C292.818 46.5137 293.498 46.6484 294.078 46.918C294.658 47.1875 295.098 47.5654 295.396 48.0518C295.701 48.5381 295.854 49.1035 295.854 49.748C295.854 50.7266 295.508 51.5117 294.816 52.1035C294.125 52.6953 293.205 52.9941 292.057 53H287.812V43.4902H289.947V46.5137ZM289.947 48.2275V51.2949H292.03C292.552 51.2949 292.962 51.166 293.261 50.9082C293.565 50.6445 293.718 50.2725 293.718 49.792C293.718 49.3115 293.568 48.9336 293.27 48.6582C292.977 48.377 292.578 48.2334 292.074 48.2275H289.947Z" fill="#2D3C5A"/>
<path d="M303.896 45.2129H299.765V53H297.638V43.4902H303.896V45.2129Z" fill="#2D3C5A"/>
<path d="M311.041 43.4902H313.168V53H311.041V46.6543L307.314 53H305.188V43.4902H307.314V49.8359L311.041 43.4902Z" fill="#2D3C5A"/>
<path d="M208.477 73.8418C208.354 74.8945 207.964 75.708 207.308 76.2822C206.656 76.8519 205.788 77.1367 204.703 77.1367C203.527 77.1367 202.584 76.7152 201.873 75.8721C201.167 75.029 200.813 73.901 200.813 72.4883V71.5312C200.813 70.6061 200.978 69.7926 201.306 69.0908C201.638 68.389 202.108 67.8512 202.714 67.4775C203.32 67.0993 204.022 66.9102 204.819 66.9102C205.877 66.9102 206.724 67.2064 207.362 67.7988C208 68.3867 208.372 69.2025 208.477 70.2461H207.157C207.043 69.4531 206.795 68.8789 206.412 68.5234C206.034 68.168 205.503 67.9902 204.819 67.9902C203.981 67.9902 203.322 68.3001 202.844 68.9199C202.37 69.5397 202.133 70.4215 202.133 71.5654V72.5293C202.133 73.6094 202.358 74.4684 202.81 75.1064C203.261 75.7445 203.892 76.0635 204.703 76.0635C205.432 76.0635 205.991 75.8994 206.378 75.5713C206.77 75.2386 207.03 74.6621 207.157 73.8418H208.477Z" fill="#969DAC"/>
<path d="M216.119 77H214.854V73.8418H211.457V77H210.186V69.6035H211.457V72.8096H214.854V69.6035H216.119V77Z" fill="#969DAC"/>
<path d="M222.941 69.6035H224.206V77H222.941V71.6064L219.53 77H218.266V69.6035H219.53V75.0039L222.941 69.6035Z" fill="#969DAC"/>
<path d="M230.495 75.3252L233.011 69.6035H234.59V77H233.325V71.6201L230.933 77H230.058L227.617 71.5039V77H226.353V69.6035H227.993L230.495 75.3252Z" fill="#969DAC"/>
<path d="M241.193 77C241.12 76.8542 241.061 76.5944 241.016 76.2207C240.428 76.8314 239.726 77.1367 238.91 77.1367C238.181 77.1367 237.582 76.9316 237.112 76.5215C236.647 76.1068 236.415 75.5827 236.415 74.9492C236.415 74.179 236.707 73.582 237.29 73.1582C237.878 72.7298 238.703 72.5156 239.765 72.5156H240.995V71.9346C240.995 71.4925 240.863 71.1416 240.599 70.8818C240.334 70.6175 239.945 70.4854 239.43 70.4854C238.979 70.4854 238.6 70.5993 238.295 70.8271C237.99 71.055 237.837 71.3307 237.837 71.6543H236.565C236.565 71.2852 236.695 70.9297 236.955 70.5879C237.219 70.2415 237.575 69.9681 238.021 69.7676C238.473 69.5671 238.967 69.4668 239.505 69.4668C240.357 69.4668 241.025 69.681 241.508 70.1094C241.991 70.5332 242.242 71.1188 242.26 71.8662V75.2705C242.26 75.9495 242.346 76.4896 242.52 76.8906V77H241.193ZM239.095 76.0361C239.491 76.0361 239.867 75.9336 240.223 75.7285C240.578 75.5234 240.836 75.2568 240.995 74.9287V73.4111H240.004C238.454 73.4111 237.68 73.8646 237.68 74.7715C237.68 75.168 237.812 75.4779 238.076 75.7012C238.34 75.9245 238.68 76.0361 239.095 76.0361Z" fill="#969DAC"/>
<path d="M249.027 69.6035H250.292V77H249.027V71.6064L245.616 77H244.352V69.6035H245.616V75.0039L249.027 69.6035ZM249.369 66.9102C249.369 67.4616 249.18 67.9059 248.802 68.2432C248.428 68.5758 247.936 68.7422 247.325 68.7422C246.715 68.7422 246.22 68.5736 245.842 68.2363C245.464 67.8991 245.274 67.457 245.274 66.9102H246.307C246.307 67.2292 246.393 67.4798 246.566 67.6621C246.74 67.8398 246.993 67.9287 247.325 67.9287C247.644 67.9287 247.893 67.8398 248.07 67.6621C248.253 67.4844 248.344 67.2337 248.344 66.9102H249.369Z" fill="#969DAC"/>
<path d="M257.818 70.6289H255.337V77H254.072V70.6289H251.639V69.6035H257.818V70.6289Z" fill="#969DAC"/>
<path d="M261.571 77.1367C260.569 77.1367 259.753 76.8086 259.124 76.1523C258.495 75.4915 258.181 74.6097 258.181 73.5068V73.2744C258.181 72.5407 258.32 71.8867 258.598 71.3125C258.88 70.7337 259.272 70.2826 259.773 69.959C260.279 69.6309 260.826 69.4668 261.414 69.4668C262.376 69.4668 263.123 69.7835 263.656 70.417C264.189 71.0505 264.456 71.9574 264.456 73.1377V73.6641H259.445C259.464 74.3932 259.675 74.9834 260.081 75.4346C260.491 75.8812 261.011 76.1045 261.64 76.1045C262.086 76.1045 262.465 76.0133 262.774 75.8311C263.084 75.6488 263.355 75.4072 263.588 75.1064L264.36 75.708C263.741 76.6605 262.811 77.1367 261.571 77.1367ZM261.414 70.5059C260.904 70.5059 260.475 70.6927 260.129 71.0664C259.783 71.4355 259.568 71.9551 259.486 72.625H263.191V72.5293C263.155 71.8867 262.982 71.39 262.672 71.0391C262.362 70.6836 261.943 70.5059 261.414 70.5059Z" fill="#969DAC"/>
<path d="M269.337 75.9678L269.774 75.4277C270.267 74.7897 270.547 73.8327 270.615 72.5566L270.731 69.6035H275.496V75.9678H276.446V79.1738H275.182V77H270.021V79.1738H268.756L268.763 75.9678H269.337ZM270.834 75.9678H274.231V70.7725H271.955L271.88 72.5361C271.802 74.0081 271.454 75.152 270.834 75.9678Z" fill="#969DAC"/>
<path d="M277.513 73.2334C277.513 72.5088 277.654 71.8571 277.937 71.2783C278.224 70.6995 278.62 70.2529 279.126 69.9385C279.636 69.624 280.217 69.4668 280.869 69.4668C281.876 69.4668 282.69 69.8154 283.31 70.5127C283.934 71.21 284.246 72.1374 284.246 73.2949V73.3838C284.246 74.1038 284.107 74.751 283.829 75.3252C283.556 75.8949 283.161 76.3392 282.646 76.6582C282.136 76.9772 281.548 77.1367 280.883 77.1367C279.88 77.1367 279.067 76.7881 278.442 76.0908C277.823 75.3936 277.513 74.4707 277.513 73.3223V73.2334ZM278.784 73.3838C278.784 74.2041 278.973 74.8626 279.352 75.3594C279.734 75.8561 280.245 76.1045 280.883 76.1045C281.525 76.1045 282.036 75.8538 282.414 75.3525C282.792 74.8467 282.981 74.1403 282.981 73.2334C282.981 72.4222 282.788 71.766 282.4 71.2646C282.018 70.7588 281.507 70.5059 280.869 70.5059C280.245 70.5059 279.741 70.7542 279.358 71.251C278.976 71.7477 278.784 72.4587 278.784 73.3838Z" fill="#969DAC"/>
<path d="M288.799 76.1045C289.25 76.1045 289.644 75.9678 289.981 75.6943C290.319 75.4209 290.506 75.0791 290.542 74.6689H291.738C291.715 75.0928 291.57 75.4961 291.301 75.8789C291.032 76.2617 290.672 76.5671 290.221 76.7949C289.774 77.0228 289.3 77.1367 288.799 77.1367C287.792 77.1367 286.99 76.8018 286.393 76.1318C285.8 75.4574 285.504 74.5368 285.504 73.3701V73.1582C285.504 72.4382 285.636 71.7979 285.9 71.2373C286.165 70.6768 286.543 70.2415 287.035 69.9316C287.532 69.6217 288.118 69.4668 288.792 69.4668C289.621 69.4668 290.31 69.7152 290.856 70.2119C291.408 70.7087 291.702 71.3535 291.738 72.1465H290.542C290.506 71.668 290.323 71.276 289.995 70.9707C289.672 70.6608 289.271 70.5059 288.792 70.5059C288.149 70.5059 287.65 70.7383 287.295 71.2031C286.944 71.6634 286.769 72.3311 286.769 73.2061V73.4453C286.769 74.2975 286.944 74.9538 287.295 75.4141C287.646 75.8743 288.147 76.1045 288.799 76.1045Z" fill="#969DAC"/>
<path d="M298.656 70.6289H296.175V77H294.91V70.6289H292.477V69.6035H298.656V70.6289Z" fill="#969DAC"/>
<path d="M302.389 75.1475L304.111 69.6035H305.465L302.491 78.1416C302.031 79.3721 301.299 79.9873 300.297 79.9873L300.058 79.9668L299.586 79.8779V78.8525L299.928 78.8799C300.356 78.8799 300.689 78.7933 300.926 78.6201C301.167 78.4469 301.366 78.1302 301.521 77.6699L301.801 76.918L299.162 69.6035H300.543L302.389 75.1475Z" fill="#969DAC"/>
<path d="M312.649 77H311.385V70.6494H307.98V77H306.709V69.6035H312.649V77Z" fill="#969DAC"/>
<path d="M320.723 77H319.458V73.8418H316.061V77H314.789V69.6035H316.061V72.8096H319.458V69.6035H320.723V77Z" fill="#969DAC"/>
<path d="M324.141 72.1533H326.062C326.9 72.1624 327.563 72.3812 328.051 72.8096C328.538 73.238 328.782 73.819 328.782 74.5527C328.782 75.291 328.532 75.8835 328.03 76.3301C327.529 76.7767 326.854 77 326.007 77H322.876V69.6035H324.141V72.1533ZM331.421 77H330.149V69.6035H331.421V77ZM324.141 73.1855V75.9678H326.021C326.494 75.9678 326.861 75.847 327.121 75.6055C327.381 75.3594 327.511 75.0244 327.511 74.6006C327.511 74.1904 327.383 73.8555 327.128 73.5957C326.877 73.3314 326.524 73.1947 326.068 73.1855H324.141Z" fill="#969DAC"/>
<path d="M336.698 77.1367C335.696 77.1367 334.88 76.8086 334.251 76.1523C333.622 75.4915 333.308 74.6097 333.308 73.5068V73.2744C333.308 72.5407 333.447 71.8867 333.725 71.3125C334.007 70.7337 334.399 70.2826 334.9 69.959C335.406 69.6309 335.953 69.4668 336.541 69.4668C337.503 69.4668 338.25 69.7835 338.783 70.417C339.316 71.0505 339.583 71.9574 339.583 73.1377V73.6641H334.572C334.59 74.3932 334.802 74.9834 335.208 75.4346C335.618 75.8812 336.138 76.1045 336.767 76.1045C337.213 76.1045 337.591 76.0133 337.901 75.8311C338.211 75.6488 338.482 75.4072 338.715 75.1064L339.487 75.708C338.868 76.6605 337.938 77.1367 336.698 77.1367ZM336.541 70.5059C336.031 70.5059 335.602 70.6927 335.256 71.0664C334.91 71.4355 334.695 71.9551 334.613 72.625H338.318V72.5293C338.282 71.8867 338.109 71.39 337.799 71.0391C337.489 70.6836 337.07 70.5059 336.541 70.5059Z" fill="#969DAC"/>
<path d="M344.642 77V69.6035H347.526C348.511 69.6035 349.265 69.7767 349.789 70.123C350.318 70.4648 350.582 70.9684 350.582 71.6338C350.582 71.9756 350.479 72.2855 350.274 72.5635C350.069 72.8369 349.766 73.0465 349.365 73.1924C349.812 73.2972 350.17 73.5023 350.438 73.8076C350.712 74.113 350.849 74.4775 350.849 74.9014C350.849 75.5804 350.598 76.0999 350.097 76.46C349.6 76.82 348.896 77 347.984 77H344.642ZM345.906 73.7529V75.9814H347.998C348.527 75.9814 348.921 75.8835 349.181 75.6875C349.445 75.4915 349.577 75.2158 349.577 74.8604C349.577 74.1221 349.035 73.7529 347.95 73.7529H345.906ZM345.906 72.7412H347.54C348.725 72.7412 349.317 72.3949 349.317 71.7021C349.317 71.0094 348.757 70.6517 347.636 70.6289H345.906V72.7412Z" fill="#969DAC"/>
<path d="M357.09 77C357.017 76.8542 356.958 76.5944 356.912 76.2207C356.324 76.8314 355.622 77.1367 354.807 77.1367C354.077 77.1367 353.478 76.9316 353.009 76.5215C352.544 76.1068 352.312 75.5827 352.312 74.9492C352.312 74.179 352.603 73.582 353.187 73.1582C353.774 72.7298 354.599 72.5156 355.661 72.5156H356.892V71.9346C356.892 71.4925 356.759 71.1416 356.495 70.8818C356.231 70.6175 355.841 70.4854 355.326 70.4854C354.875 70.4854 354.497 70.5993 354.191 70.8271C353.886 71.055 353.733 71.3307 353.733 71.6543H352.462C352.462 71.2852 352.592 70.9297 352.852 70.5879C353.116 70.2415 353.471 69.9681 353.918 69.7676C354.369 69.5671 354.864 69.4668 355.401 69.4668C356.254 69.4668 356.921 69.681 357.404 70.1094C357.887 70.5332 358.138 71.1188 358.156 71.8662V75.2705C358.156 75.9495 358.243 76.4896 358.416 76.8906V77H357.09ZM354.991 76.0361C355.388 76.0361 355.764 75.9336 356.119 75.7285C356.475 75.5234 356.732 75.2568 356.892 74.9287V73.4111H355.9C354.351 73.4111 353.576 73.8646 353.576 74.7715C353.576 75.168 353.708 75.4779 353.973 75.7012C354.237 75.9245 354.576 76.0361 354.991 76.0361Z" fill="#969DAC"/>
<path d="M364.397 75.3252L366.913 69.6035H368.492V77H367.228V71.6201L364.835 77H363.96L361.52 71.5039V77H360.255V69.6035H361.896L364.397 75.3252Z" fill="#969DAC"/>
<path d="M373.94 75.9678L374.378 75.4277C374.87 74.7897 375.15 73.8327 375.219 72.5566L375.335 69.6035H380.1V75.9678H381.05V79.1738H379.785V77H374.624V79.1738H373.359L373.366 75.9678H373.94ZM375.438 75.9678H378.835V70.7725H376.559L376.483 72.5361C376.406 74.0081 376.057 75.152 375.438 75.9678Z" fill="#969DAC"/>
<path d="M385.521 77.1367C384.518 77.1367 383.702 76.8086 383.073 76.1523C382.444 75.4915 382.13 74.6097 382.13 73.5068V73.2744C382.13 72.5407 382.269 71.8867 382.547 71.3125C382.829 70.7337 383.221 70.2826 383.723 69.959C384.229 69.6309 384.775 69.4668 385.363 69.4668C386.325 69.4668 387.072 69.7835 387.605 70.417C388.139 71.0505 388.405 71.9574 388.405 73.1377V73.6641H383.395C383.413 74.3932 383.625 74.9834 384.03 75.4346C384.44 75.8812 384.96 76.1045 385.589 76.1045C386.035 76.1045 386.414 76.0133 386.724 75.8311C387.034 75.6488 387.305 75.4072 387.537 75.1064L388.31 75.708C387.69 76.6605 386.76 77.1367 385.521 77.1367ZM385.363 70.5059C384.853 70.5059 384.424 70.6927 384.078 71.0664C383.732 71.4355 383.518 71.9551 383.436 72.625H387.141V72.5293C387.104 71.8867 386.931 71.39 386.621 71.0391C386.311 70.6836 385.892 70.5059 385.363 70.5059Z" fill="#969DAC"/>
<path d="M395.918 77H394.653V73.8418H391.256V77H389.984V69.6035H391.256V72.8096H394.653V69.6035H395.918V77Z" fill="#969DAC"/>
<path d="M399.336 72.1533H401.257C402.095 72.1624 402.758 72.3812 403.246 72.8096C403.734 73.238 403.978 73.819 403.978 74.5527C403.978 75.291 403.727 75.8835 403.226 76.3301C402.724 76.7767 402.05 77 401.202 77H398.071V69.6035H399.336V72.1533ZM399.336 73.1855V75.9678H401.216C401.69 75.9678 402.057 75.847 402.316 75.6055C402.576 75.3594 402.706 75.0244 402.706 74.6006C402.706 74.1904 402.578 73.8555 402.323 73.5957C402.073 73.3314 401.719 73.1947 401.264 73.1855H399.336Z" fill="#969DAC"/>
<path d="M410.335 70.6494H406.924V77H405.652V69.6035H410.335V70.6494Z" fill="#969DAC"/>
<path d="M416.221 69.6035H417.485V77H416.221V71.6064L412.81 77H411.545V69.6035H412.81V75.0039L416.221 69.6035Z" fill="#969DAC"/>
<path d="M184 55H168C166.895 55 166 54.1046 166 53V41C166 39.8954 166.895 39 168 39H184C185.105 39 186 39.8954 186 41V53C186 54.1046 185.105 55 184 55ZM168 47V53H184V47H168ZM168 41V43H184V41H168ZM177 51H170V49H177V51Z" fill="#55A5FF"/>
<g clip-path="url(#clip0_1311_1288)">
<path d="M197.803 527.966C197.647 524.359 197.647 520.439 197.647 516.205C197.96 469.477 212.679 442.036 168.208 423.063C155.367 417.574 139.708 408.793 116.69 402.051C92.1049 394.838 98.5251 397.346 98.5251 397.346L64.0752 422.279C136.42 471.672 131.096 467.909 142.684 475.749C140.804 487.353 144.406 510.09 145.189 532.827C162.571 531.572 180.265 530.161 197.803 527.966Z" fill="white"/>
<path d="M143.779 533.924V532.67C143.466 523.889 142.84 515.421 142.214 507.11C141.117 494.409 140.335 483.433 141.274 476.063C133.914 471.045 133.445 470.732 111.678 455.992L61.8828 421.965L96.4892 397.033C96.4892 396.876 96.4892 396.562 96.4892 396.406C96.959 394.994 96.959 394.838 116.846 400.796C133.914 405.814 147.068 411.929 157.716 416.947C161.631 418.829 165.232 420.397 168.677 421.965C204.38 437.175 202.814 457.717 200.309 488.764C199.682 496.918 198.899 506.17 198.899 516.205C198.899 520.439 198.899 524.359 199.056 527.966V529.063L197.96 529.22C181.048 531.259 163.666 532.827 145.032 533.924H143.779ZM65.7976 422.122L112.775 454.11C135.01 469.32 135.01 469.32 142.997 474.652L143.623 475.122L143.466 475.906C142.37 482.962 143.31 494.096 144.249 507.11C144.876 515.108 145.502 523.261 145.815 531.572C163.666 530.475 180.108 528.906 196.394 527.025C196.237 523.732 196.237 520.125 196.237 516.205C196.237 506.17 197.02 496.761 197.647 488.607C199.995 458.501 201.718 438.743 167.425 424.16C163.98 422.749 160.378 421.024 156.463 419.142C145.972 414.282 132.818 408.166 115.906 403.148C105.102 400.012 100.561 398.758 98.6815 398.287L65.7976 422.122Z" fill="#2D3C5A"/>
<path d="M130.783 487.196C132.505 484.06 160.221 436.548 168.051 422.906C156.15 415.379 139.552 408.636 116.533 401.894C91.9481 394.681 98.3683 397.19 98.3683 397.19L63.9185 422.122C103.536 466.655 123.579 482.335 130.783 487.196Z" fill="#2D3C5A"/>
<path d="M131.252 488.921L130.156 488.137C121.544 482.335 101.5 466.184 62.9791 422.749L62.0396 421.808L96.4894 397.033C96.4894 396.876 96.4894 396.562 96.4894 396.406C96.9592 394.994 96.9592 394.838 116.846 400.796C140.178 407.696 156.62 414.438 168.678 421.965L169.617 422.592L168.991 423.533C166.329 428.237 161.318 436.705 155.837 446.113C145.502 463.675 132.818 485.628 131.722 487.667L131.252 488.921ZM65.4846 422.279C102.753 464.146 122.64 480.14 130.313 485.471C133.132 480.454 144.093 461.637 153.801 445.015C158.969 436.234 163.667 428.237 166.485 423.376C154.741 416.163 138.612 409.734 116.22 402.992C105.415 399.855 100.874 398.601 98.9949 398.13L65.4846 422.279Z" fill="#2D3C5A"/>
<path d="M39.3338 403.776C33.0702 427.61 40.4299 492.057 24.1446 524.829C14.7491 543.646 -26.4341 616.874 -26.4341 616.874L41.3695 657.801C41.3695 657.801 48.1029 649.804 41.3695 640.866C34.6361 631.928 27.1198 626.753 50.6083 588.022C83.6489 533.611 96.0195 505.542 96.0195 447.995C96.0195 422.435 93.8272 399.385 93.8272 399.385L39.3338 403.776Z" fill="white"/>
<path d="M41.6827 659.212L-28 617.188L-27.3736 616.247C-26.9038 615.463 13.9662 543.019 23.205 524.359C33.2268 504.288 34.1664 470.888 34.9493 444.231C35.4191 427.296 35.8888 412.713 38.2377 403.619L38.3943 402.835H39.1773L94.7668 398.287L94.9234 399.385C94.9234 399.542 97.1157 422.749 97.1157 448.152C97.1157 504.445 85.6845 532.67 51.5478 588.806C29.7818 624.558 35.1059 631.144 41.0564 638.67C41.5261 639.141 41.8393 639.611 42.3091 640.238C49.5122 649.804 42.3091 658.585 42.3091 658.585L41.6827 659.212ZM-24.8682 616.247L41.0564 656.076C42.4657 653.881 45.4409 647.922 40.43 641.493C39.9602 641.023 39.647 640.552 39.1773 639.925C32.6005 631.614 26.9632 624.401 49.5122 587.395C83.4923 531.572 94.7668 503.661 94.7668 447.995C94.7668 425.885 93.0443 405.5 92.5745 400.639L40.1168 405.03C37.9245 413.968 37.6114 428.08 37.1416 444.388C36.3587 472.77 35.4191 504.915 25.2407 525.457C16.6282 542.705 -19.8573 607.466 -24.8682 616.247Z" fill="#2D3C5A"/>
<path d="M44.658 598.215C46.3805 595.078 48.2595 591.629 50.6084 588.022C83.6489 533.611 96.0196 505.542 96.0196 447.995C96.0196 422.435 93.8273 399.385 93.8273 399.385L39.3339 403.932C33.0703 427.767 40.43 492.214 24.1446 524.986C19.6035 533.924 8.01586 555.407 -3.10205 575.164C12.557 583.161 28.5292 591.001 44.658 598.215Z" fill="white"/>
<path d="M45.1277 599.783L44.1882 599.312C28.6858 592.256 13.0268 584.729 -3.57182 576.105L-4.66797 575.478L-4.04167 574.38C10.3646 548.664 19.4469 531.729 23.2051 524.202C33.2269 504.131 34.1664 470.731 34.9493 444.075C35.4191 427.14 35.8889 412.557 38.2377 403.462L38.3944 402.678H39.1773L94.7668 398.13L94.9234 399.228C94.9234 399.385 97.1157 422.592 97.1157 447.995C97.1157 504.288 85.6846 532.513 51.5479 588.649C49.3556 592.256 47.32 595.706 45.5975 598.842L45.1277 599.783ZM-1.53616 574.537C14.2795 582.691 29.3121 590.061 44.1882 596.647C45.7541 593.667 47.6332 590.531 49.6689 587.395C83.649 531.572 94.9234 503.661 94.9234 447.995C94.9234 425.885 93.201 405.5 92.7312 400.639L40.2735 405.03C38.0812 413.968 37.768 428.08 37.2982 444.388C36.5153 472.77 35.5757 504.915 25.3974 525.457C21.4826 532.67 12.557 549.291 -1.53616 574.537Z" fill="#2D3C5A"/>
<path d="M100.091 508.835C109.956 472.456 93.8271 399.228 93.8271 399.228L39.3337 403.776C34.636 421.965 37.6112 463.675 32.2871 497.075C33.2267 497.232 92.1046 508.208 100.091 508.835Z" fill="#2D3C5A"/>
<path d="M101.03 510.09H100.091C93.6705 509.619 55.6192 502.72 33.3833 498.486L30.8779 498.016L31.0345 496.918C33.6965 480.14 34.3229 461.01 34.7927 444.075C35.2625 427.14 35.7322 412.557 38.081 403.462L38.2376 402.678H39.0205L94.4535 398.13L94.6101 399.071C95.2364 402.051 110.739 473.084 100.874 509.149L101.03 510.09ZM33.5399 496.134H33.6965C69.2425 502.72 92.731 506.797 99.1512 507.581C107.607 474.024 94.6102 409.421 92.7311 400.483L40.1167 404.873C37.9244 413.811 37.6113 427.924 37.1415 444.231C36.6718 460.696 36.2019 479.356 33.5399 496.134Z" fill="#2D3C5A"/>
<path d="M101.031 461.637C100.404 461.637 99.7778 461.166 99.7778 460.382C99.7778 451.445 100.561 444.859 100.561 444.859L100.717 444.075L101.5 443.918C101.5 443.918 107.451 442.663 113.558 438.116C114.028 437.802 114.81 437.802 115.28 438.273C115.593 438.743 115.593 439.527 115.124 439.998C109.8 443.918 104.945 445.643 102.91 446.113C102.753 448.152 102.283 453.64 102.283 460.539C102.127 461.166 101.657 461.637 101.031 461.637Z" fill="white"/>
<path d="M194.515 463.675C191.54 463.048 189.191 460.696 188.721 457.717C188.564 456.776 186.998 457.089 187.155 458.187C187.781 461.637 190.443 464.616 194.045 465.243C195.141 465.243 195.611 463.832 194.515 463.675Z" fill="#2D3C5A"/>
<path d="M112.618 310.163C141.9 326 153.018 337.604 163.979 327.568C185.119 308.281 174.627 278.174 188.721 254.497C195.611 242.893 199.525 238.973 201.561 243.05C203.597 247.127 196.707 261.082 196.707 261.082C196.707 261.082 215.497 259.985 214.401 275.665C213.932 281.781 211.739 286.328 211.739 286.328C211.739 286.328 209.547 361.908 171.809 371.317C134.071 380.725 106.98 348.266 106.98 348.266L112.618 310.163Z" fill="white"/>
<path d="M158.185 374.139C127.494 374.139 106.197 349.207 106.041 348.894L105.728 348.423L111.678 308.281L113.087 309.065C119.977 312.828 125.771 316.121 130.782 319.257C147.537 329.293 155.21 333.84 163.04 326.627C174.784 315.964 176.506 302.165 178.385 287.426C179.795 276.136 181.361 264.375 187.624 253.869C193.575 243.834 196.706 240.227 199.525 240.384C200.778 240.384 201.717 241.168 202.5 242.579C204.379 246.343 200.465 255.751 198.429 259.985C201.561 260.142 207.824 260.926 211.896 265.003C214.558 267.668 215.81 271.432 215.497 275.979C215.184 281.624 213.305 285.858 212.835 286.955C212.679 292.6 209.547 363.476 172.122 372.728C167.267 373.669 162.57 374.139 158.185 374.139ZM108.233 347.796C111.521 351.402 137.202 378.687 171.652 370.219C208.138 361.124 210.643 287.112 210.643 286.328V286.014L210.8 285.858C210.8 285.858 212.992 281.467 213.305 275.665C213.618 271.745 212.522 268.766 210.33 266.571C205.632 261.866 196.863 262.337 196.863 262.337L194.827 262.494L195.767 260.612C198.272 255.437 201.874 246.186 200.621 243.52C200.465 243.05 200.151 242.579 199.682 242.579C198.586 242.579 195.924 244.775 189.817 254.967C183.866 265.159 182.3 276.606 180.891 287.739C179.012 302.165 177.133 317.219 164.762 328.352C155.68 336.663 146.441 331.174 129.686 321.296C124.988 318.473 119.664 315.337 113.557 312.044L108.233 347.796Z" fill="#2D3C5A"/>
<path d="M146.911 329.293C138.925 326 128.433 318.63 112.618 310.163L106.98 348.266C106.98 348.266 117.002 360.184 133.131 367.553C137.516 354.695 142.37 341.994 146.911 329.293Z" fill="white"/>
<path d="M133.914 369.121L132.661 368.651C116.376 361.281 106.354 349.521 106.041 349.05L105.728 348.58L111.678 308.281L113.087 309.065C119.977 312.828 125.615 316.121 130.782 319.257C137.515 323.177 142.839 326.314 147.224 328.195L148.32 328.666L148.007 329.763C146.441 334.154 144.718 338.701 143.153 343.092C140.177 351.246 137.046 359.713 134.227 368.024L133.914 369.121ZM108.233 347.796C110.112 349.834 119.038 359.4 132.504 365.829C135.166 357.831 138.142 349.834 140.96 342.151C142.526 338.074 143.936 333.997 145.501 329.92C141.117 328.038 136.106 324.902 129.686 321.296C124.988 318.473 119.664 315.337 113.557 312.044L108.233 347.796Z" fill="#2D3C5A"/>
<path d="M192.635 277.233C194.201 274.097 197.176 268.452 194.044 265.63C190.756 262.807 187.937 267.512 186.528 269.864C185.902 270.648 187.311 271.432 187.937 270.648C188.407 270.02 188.877 269.236 189.347 268.452C192.478 264.689 194.514 269.08 193.575 271.118C193.575 273 192.009 275.352 191.226 276.92C191.069 277.39 191.226 277.704 191.539 278.018C195.297 280.84 194.671 285.544 194.044 289.621C193.888 290.562 195.454 291.032 195.61 290.092C196.08 285.231 196.393 280.526 192.635 277.233Z" fill="#2D3C5A"/>
<path d="M203.127 278.488C200.935 278.488 199.525 278.488 198.742 275.665C198.586 274.881 198.742 273.784 198.742 272.843C198.742 270.491 198.899 268.295 199.212 265.943C199.369 265.002 197.803 265.002 197.646 265.943C197.333 269.236 196.237 274.097 197.49 277.39C198.429 279.742 200.935 280.056 203.127 280.056C204.067 280.056 204.067 278.488 203.127 278.488Z" fill="#2D3C5A"/>
<path d="M210.8 282.094C203.91 283.192 207.042 272.216 207.511 268.609C207.668 267.668 206.102 267.198 205.946 268.139C205.319 273 202.031 285.074 211.113 283.662C212.209 283.506 211.739 281.938 210.8 282.094Z" fill="#2D3C5A"/>
<path d="M67.5197 268.139C67.05 269.079 66.7368 270.02 66.5802 270.961C61.4127 272.372 57.0282 276.763 55.9321 282.408C55.6189 284.133 55.6189 285.858 55.7755 287.426C52.4871 289.307 49.5119 292.6 48.2591 295.423C45.5971 300.754 47.946 307.81 52.4871 311.574C52.1739 315.023 52.9569 318.63 55.1492 321.296C56.0887 322.393 57.0282 323.334 58.1243 323.961C59.5336 326.313 61.8825 327.882 65.3275 328.509C73.6268 330.077 82.8656 323.648 88.3462 318.003C91.478 314.71 93.9835 310.633 95.5494 306.399C97.1153 305.929 98.368 305.145 99.6207 303.89C106.511 299.029 111.365 288.21 103.379 283.035C102.753 281.31 101.656 279.899 100.09 279.115C98.2114 277.547 96.4889 276.92 94.923 277.233C96.9587 276.606 98.6812 275.508 100.247 273.94C101.343 270.491 102.126 267.041 102.596 263.434C102.909 260.769 104.318 259.044 106.041 258.103C97.8983 250.89 78.1679 248.538 67.5197 268.139Z" fill="#2D3C5A"/>
<path d="M123.11 411.302C91.9481 417.104 34.9492 412.87 34.9492 412.87C34.9492 412.87 35.1058 377.589 43.7182 344.033C51.5477 313.612 67.6766 302.009 83.962 301.068C90.3822 300.597 96.8024 302.009 102.909 304.361C106.824 305.929 109.956 307.81 112.461 310.163C127.651 323.648 123.266 349.05 118.412 362.379C112.931 377.903 123.11 411.302 123.11 411.302Z" fill="white"/>
<path d="M112.618 310.163C105.885 315.494 94.7668 318.003 84.1187 301.068C90.5389 300.597 96.959 302.009 103.066 304.361C106.824 305.772 109.956 307.81 112.618 310.163Z" fill="white"/>
<path d="M118.256 358.772C118.099 358.772 118.099 358.772 117.942 358.772C117.316 358.616 117.003 357.988 117.16 357.361C117.16 357.204 121.701 339.328 115.594 328.038C115.28 327.411 115.437 326.784 116.063 326.47C116.69 326.157 117.316 326.314 117.629 326.941C124.206 339.015 119.665 357.204 119.352 357.988C119.352 358.459 118.882 358.772 118.256 358.772Z" fill="#2D3C5A"/>
<path d="M65.4842 307.497C46.067 319.571 1.90858 369.435 45.7539 435.607L76.1323 417.888C76.1323 417.888 67.0501 394.367 67.0501 371.63C67.0501 353.598 82.7091 332.272 82.7091 332.272L65.4842 307.497Z" fill="white"/>
<path d="M69.3988 357.988C73.7834 344.346 82.709 332.115 82.709 332.115L65.4841 307.497C57.8111 312.358 46.2235 323.021 37.7676 338.388C48.4157 344.66 58.9073 351.402 69.3988 357.988Z" fill="white"/>
<path d="M71.1213 354.539C70.9647 354.539 70.8081 354.539 70.6515 354.382C70.0252 354.068 69.8686 353.441 70.0252 352.814L74.8795 342.465C75.1927 341.837 75.819 341.681 76.4454 341.837C77.0718 342.151 77.2284 342.778 77.0718 343.405L72.2174 353.755C72.0609 354.225 71.5911 354.539 71.1213 354.539Z" fill="#2D3C5A"/>
<path d="M124.362 411.773C93.2008 417.574 34.9492 413.341 34.9492 413.341C34.9492 413.341 36.3585 378.059 45.1276 344.503C52.9571 314.083 69.0859 302.479 85.3713 301.538C91.7915 301.068 98.2117 302.479 104.319 304.831C108.233 306.399 111.365 308.281 113.871 310.633C129.06 324.118 124.675 349.521 119.821 362.849C114.184 378.373 124.362 411.773 124.362 411.773Z" fill="white"/>
<path d="M78.4811 416.006C55.4623 416.006 35.1056 414.595 34.7924 414.595L33.6963 414.438V413.341C33.6963 413.027 35.1056 377.432 43.8747 344.189C53.4267 307.497 73.9399 300.911 85.2144 300.284C91.478 299.97 98.0549 301.068 104.632 303.577C108.39 305.145 111.835 307.183 114.497 309.535C132.974 326 122.953 356.891 120.76 363.006C115.28 378.216 125.302 410.989 125.302 411.302L125.615 412.557L124.362 412.87C111.835 415.222 94.6099 416.006 78.4811 416.006ZM36.2017 412.243C44.3444 412.713 94.2967 415.693 122.953 410.832C121.074 404.403 113.557 376.648 118.725 362.379C120.76 356.577 130.312 326.784 113.088 311.417C110.582 309.065 107.45 307.183 103.849 305.772C97.5851 303.263 91.4781 302.166 85.5276 302.636C67.05 303.734 53.1135 318.63 46.2235 344.817C38.5506 374.453 36.5149 405.814 36.2017 412.243Z" fill="#2D3C5A"/>
<path d="M113.871 310.476C107.137 315.808 96.0192 318.316 85.3711 301.381C91.7913 300.911 98.2115 302.322 104.318 304.674C108.077 306.242 111.209 308.124 113.871 310.476Z" fill="white"/>
<path d="M103.379 315.651C102.596 315.651 101.656 315.651 100.873 315.494C94.9231 314.553 89.4424 310.006 84.4315 302.165L83.3354 300.441L85.3711 300.284C91.6347 299.97 98.2114 301.068 104.788 303.577C108.546 305.145 111.991 307.183 114.654 309.535L115.75 310.476L114.654 311.417C111.991 313.455 108.077 315.651 103.379 315.651ZM87.5633 302.479C91.7912 308.751 96.489 312.201 101.343 313.142C105.728 313.926 109.486 312.201 111.991 310.476C109.643 308.595 106.981 307.026 103.849 305.772C98.3681 303.577 93.044 302.479 87.72 302.479C87.5634 302.479 87.5633 302.479 87.5633 302.479Z" fill="#2D3C5A"/>
<path d="M73.6272 350.775C65.0147 342.621 54.5231 336.349 44.5014 329.92C28.216 353.127 16.9415 390.761 47.0069 436.078L77.3853 418.359C77.3853 418.359 68.3031 394.838 68.3031 372.101C68.3031 364.888 70.652 357.361 73.6272 350.775Z" fill="white"/>
<path d="M46.6933 437.646L46.0669 436.705C13.0264 386.841 30.4079 347.953 43.5615 329.293L44.1879 328.352L48.729 331.331C57.498 336.976 66.7369 342.778 74.4098 349.991L75.0361 350.618L74.723 351.402C71.278 359.243 69.5555 366.142 69.5555 372.101C69.5555 394.367 78.4812 417.731 78.6378 418.045L78.9509 418.986L46.6933 437.646ZM44.8142 331.488C32.1304 349.991 16.4714 386.997 47.3197 434.509L75.9757 417.731C74.2532 413.027 67.0501 392.015 67.0501 371.944C67.0501 365.829 68.7725 358.929 72.2175 351.089C64.8578 344.346 56.0887 338.701 47.4763 333.213L44.8142 331.488Z" fill="#2D3C5A"/>
<path d="M66.737 307.967C59.0641 312.828 47.4764 323.491 39.0205 338.858C49.6686 345.287 60.1602 352.03 70.6518 358.615C75.0363 344.973 83.9619 332.743 83.9619 332.743" fill="white"/>
<path d="M71.2781 360.184L70.0254 359.399C67.0502 357.518 63.9183 355.636 60.9431 353.755C53.5834 349.05 45.9105 344.346 38.3942 339.799L37.4546 339.172L38.081 338.231C46.5369 322.864 58.2811 312.044 66.2672 307.026C66.8936 306.713 67.52 306.87 67.8331 307.34C68.1463 307.967 67.9897 308.595 67.5199 308.908C59.847 313.612 49.0423 323.805 40.743 338.231C47.9462 342.621 55.3059 347.169 62.3525 351.716C65.0145 353.284 67.52 355.009 70.182 356.577C74.7231 343.405 82.8658 332.272 83.179 331.802C83.4921 331.331 84.2751 331.174 84.7449 331.488C85.2146 331.802 85.3712 332.586 85.0581 333.056C84.9015 333.213 76.289 345.287 71.9044 358.615L71.2781 360.184Z" fill="#2D3C5A"/>
<path d="M104.318 250.106C100.247 246.656 95.0797 244.774 89.7556 245.558C78.6377 247.126 71.1214 258.573 72.8439 270.961C72.8439 270.961 72.8439 270.961 72.8439 271.118C73.0005 272.372 73.3136 273.627 73.7834 274.881C69.5555 278.174 70.6516 284.76 74.4098 287.896C77.6982 290.718 82.0827 291.346 86.1541 288.68C89.2859 290.091 92.7309 290.718 96.3324 290.562C112.305 289.621 117.316 277.39 113.244 265.159C111.365 259.671 108.86 253.869 104.318 250.106Z" fill="white"/>
<path d="M95.0797 291.816C92.1045 291.816 89.1293 291.189 86.3106 290.091C82.0827 292.443 77.5416 291.973 73.6269 288.837C71.278 286.798 69.8687 283.662 69.8687 280.526C69.8687 278.174 70.8083 276.136 72.3742 274.567C72.061 273.47 71.7478 272.372 71.5912 271.431V271.275C70.6517 265.002 72.0609 258.887 75.3493 253.712C78.7943 248.695 83.6486 245.402 89.4424 244.461C94.7665 243.677 100.247 245.402 104.945 249.322C109.799 253.399 112.461 259.671 114.184 264.846C116.533 271.745 116.063 278.644 112.618 283.662C109.329 288.523 103.692 291.346 96.3324 291.816C96.0193 291.816 95.5495 291.816 95.0797 291.816ZM86.1541 287.426L86.7804 287.739C89.7556 289.15 93.2006 289.621 96.3324 289.464C103.066 288.994 108.077 286.642 110.895 282.251C113.871 277.86 114.34 271.745 112.148 265.473C110.426 260.455 108.077 254.653 103.692 251.047C99.4643 247.597 94.61 246.029 90.0688 246.656C85.0579 247.44 80.5168 250.263 77.5416 254.81C74.5664 259.357 73.3137 265.002 74.0966 270.804V270.961C74.2532 272.059 74.5664 273.156 74.8796 274.411L75.1928 275.195L74.5664 275.665C72.6873 277.076 72.3742 278.958 72.3742 280.369C72.3742 282.721 73.4702 285.23 75.3493 286.798C78.4811 289.464 82.2393 289.778 85.6843 287.582L86.1541 287.426Z" fill="#2D3C5A"/>
<path d="M98.7107 267.833C98.9244 266.994 98.4183 266.14 97.5803 265.926C96.7423 265.712 95.8897 266.219 95.676 267.058C95.4623 267.897 95.9684 268.751 96.8064 268.965C97.6444 269.179 98.497 268.672 98.7107 267.833Z" fill="#2D3C5A"/>
<path d="M109.486 272.529C108.546 269.079 107.137 265.943 105.258 262.964C104.788 262.18 103.379 262.964 103.848 263.748C105.728 266.57 106.98 269.707 107.92 272.843C108.233 273.94 109.799 273.47 109.486 272.529Z" fill="#2D3C5A"/>
<path d="M85.0576 280.056C82.239 277.704 78.1677 277.39 75.1925 279.585C74.4095 280.213 75.1925 281.467 75.9754 280.997C78.3243 279.272 81.6126 279.272 83.9615 281.31C84.7444 281.781 85.8406 280.683 85.0576 280.056Z" fill="#2D3C5A"/>
<path d="M81.7697 272.529C85.3712 274.724 84.7449 268.452 90.3821 260.612C92.8876 257.162 107.92 256.535 109.33 245.715C110.112 234.425 92.7309 239.443 89.7557 245.715C78.6378 247.283 67.3633 260.612 74.0967 276.292C76.289 274.411 80.0472 272.529 81.7697 272.529Z" fill="#2D3C5A"/>
</g>
<defs>
<filter id="filter0_d_1311_1288" x="100" y="1" width="430" height="380" filterUnits="userSpaceOnUse" color-interpolation-filters="sRGB">
<feFlood flood-opacity="0" result="BackgroundImageFix"/>
<feColorMatrix in="SourceAlpha" type="matrix" values="0 0 0 0 0 0 0 0 0 0 0 0 0 0 0 0 0 0 127 0" result="hardAlpha"/>
<feOffset dy="40"/>
<feGaussianBlur stdDeviation="25"/>
<feColorMatrix type="matrix" values="0 0 0 0 0.176471 0 0 0 0 0.235294 0 0 0 0 0.352941 0 0 0 0.05 0"/>
<feBlend mode="normal" in2="BackgroundImageFix" result="effect1_dropShadow_1311_1288"/>
<feBlend mode="normal" in="SourceGraphic" in2="effect1_dropShadow_1311_1288" result="shape"/>
</filter>
<filter id="filter1_d_1311_1288" x="99.5" y="0.5" width="431" height="381" filterUnits="userSpaceOnUse" color-interpolation-filters="sRGB">
<feFlood flood-opacity="0" result="BackgroundImageFix"/>
<feColorMatrix in="SourceAlpha" type="matrix" values="0 0 0 0 0 0 0 0 0 0 0 0 0 0 0 0 0 0 127 0" result="hardAlpha"/>
<feOffset dy="40"/>
<feGaussianBlur stdDeviation="25"/>
<feColorMatrix type="matrix" values="0 0 0 0 0.176471 0 0 0 0 0.235294 0 0 0 0 0.352941 0 0 0 0.05 0"/>
<feBlend mode="normal" in2="BackgroundImageFix" result="effect1_dropShadow_1311_1288"/>
<feBlend mode="normal" in="SourceGraphic" in2="effect1_dropShadow_1311_1288" result="shape"/>
</filter>
<linearGradient id="paint0_linear_1311_1288" x1="315" y1="11" x2="315" y2="291" gradientUnits="userSpaceOnUse">
<stop stop-color="#F0F0F0"/>
<stop offset="1" stop-color="#F0F0F0" stop-opacity="0.3"/>
</linearGradient>
<clipPath id="clip0_1311_1288">
<rect width="227" height="252" fill="white" transform="translate(0 239)"/>
</clipPath>
</defs>
</svg>
