<svg width="227" height="252" viewBox="0 0 227 252" fill="none" xmlns="http://www.w3.org/2000/svg">
<g clip-path="url(#clip0_1311_1085)">
<path d="M197.803 288.966C197.647 285.359 197.647 281.439 197.647 277.205C197.96 230.477 212.679 203.036 168.208 184.063C155.367 178.574 139.708 169.793 116.69 163.051C92.1049 155.838 98.5251 158.346 98.5251 158.346L64.0752 183.279C136.42 232.672 131.096 228.909 142.684 236.749C140.804 248.353 144.406 271.09 145.189 293.827C162.571 292.572 180.265 291.161 197.803 288.966Z" fill="white"/>
<path d="M143.779 294.924V293.67C143.466 284.889 142.84 276.421 142.214 268.11C141.117 255.409 140.335 244.433 141.274 237.063C133.914 232.045 133.445 231.732 111.678 216.992L61.8828 182.965L96.4892 158.033C96.4892 157.876 96.4892 157.562 96.4892 157.406C96.959 155.994 96.959 155.838 116.846 161.796C133.914 166.814 147.068 172.929 157.716 177.947C161.631 179.829 165.232 181.397 168.677 182.965C204.38 198.175 202.814 218.717 200.309 249.764C199.682 257.918 198.899 267.17 198.899 277.205C198.899 281.439 198.899 285.359 199.056 288.966V290.063L197.96 290.22C181.048 292.259 163.666 293.827 145.032 294.924H143.779ZM65.7976 183.122L112.775 215.11C135.01 230.32 135.01 230.32 142.997 235.652L143.623 236.122L143.466 236.906C142.37 243.962 143.31 255.096 144.249 268.11C144.876 276.108 145.502 284.261 145.815 292.572C163.666 291.475 180.108 289.906 196.394 288.025C196.237 284.732 196.237 281.125 196.237 277.205C196.237 267.17 197.02 257.761 197.647 249.607C199.995 219.501 201.718 199.743 167.425 185.16C163.98 183.749 160.378 182.024 156.463 180.142C145.972 175.282 132.818 169.166 115.906 164.148C105.102 161.012 100.561 159.758 98.6815 159.287L65.7976 183.122Z" fill="#2D3C5A"/>
<path d="M130.783 248.196C132.505 245.06 160.221 197.548 168.051 183.906C156.15 176.379 139.552 169.636 116.533 162.894C91.9481 155.681 98.3683 158.19 98.3683 158.19L63.9185 183.122C103.536 227.655 123.579 243.335 130.783 248.196Z" fill="#2D3C5A"/>
<path d="M131.252 249.921L130.156 249.137C121.544 243.335 101.5 227.184 62.9791 183.749L62.0396 182.808L96.4894 158.033C96.4894 157.876 96.4894 157.562 96.4894 157.406C96.9592 155.994 96.9592 155.838 116.846 161.796C140.178 168.696 156.62 175.438 168.678 182.965L169.617 183.592L168.991 184.533C166.329 189.237 161.318 197.705 155.837 207.113C145.502 224.675 132.818 246.628 131.722 248.667L131.252 249.921ZM65.4846 183.279C102.753 225.146 122.64 241.14 130.313 246.471C133.132 241.453 144.093 222.637 153.801 206.015C158.969 197.234 163.667 189.237 166.485 184.376C154.741 177.163 138.612 170.734 116.22 163.992C105.415 160.855 100.874 159.601 98.9949 159.13L65.4846 183.279Z" fill="#2D3C5A"/>
<path d="M39.3338 164.776C33.0702 188.61 40.4299 253.057 24.1446 285.829C14.7491 304.646 -26.4341 377.874 -26.4341 377.874L41.3695 418.801C41.3695 418.801 48.1029 410.804 41.3695 401.866C34.6361 392.928 27.1198 387.753 50.6083 349.022C83.6489 294.611 96.0195 266.542 96.0195 208.995C96.0195 183.435 93.8272 160.385 93.8272 160.385L39.3338 164.776Z" fill="white"/>
<path d="M41.6827 420.212L-28 378.188L-27.3736 377.247C-26.9038 376.463 13.9662 304.019 23.205 285.359C33.2268 265.288 34.1664 231.888 34.9493 205.231C35.4191 188.296 35.8888 173.713 38.2377 164.619L38.3943 163.835H39.1773L94.7668 159.287L94.9234 160.385C94.9234 160.542 97.1157 183.749 97.1157 209.152C97.1157 265.445 85.6845 293.67 51.5478 349.806C29.7818 385.558 35.1059 392.144 41.0564 399.67C41.5261 400.141 41.8393 400.611 42.3091 401.238C49.5122 410.804 42.3091 419.585 42.3091 419.585L41.6827 420.212ZM-24.8682 377.247L41.0564 417.076C42.4657 414.881 45.4408 408.922 40.43 402.493C39.9602 402.023 39.647 401.552 39.1773 400.925C32.6005 392.614 26.9632 385.401 49.5122 348.395C83.4923 292.572 94.7668 264.661 94.7668 208.995C94.7668 186.885 93.0443 166.5 92.5745 161.639L40.1168 166.03C37.9245 174.968 37.6114 189.08 37.1416 205.388C36.3587 233.77 35.4191 265.915 25.2407 286.457C16.6282 303.705 -19.8573 368.466 -24.8682 377.247Z" fill="#2D3C5A"/>
<path d="M44.658 359.215C46.3805 356.078 48.2595 352.629 50.6084 349.022C83.6489 294.611 96.0196 266.542 96.0196 208.995C96.0196 183.435 93.8273 160.385 93.8273 160.385L39.3339 164.932C33.0703 188.767 40.43 253.214 24.1446 285.986C19.6035 294.924 8.01586 316.407 -3.10205 336.164C12.557 344.161 28.5292 352.001 44.658 359.215Z" fill="white"/>
<path d="M45.1277 360.783L44.1882 360.312C28.6858 353.256 13.0268 345.729 -3.57182 337.105L-4.66797 336.478L-4.04167 335.38C10.3646 309.664 19.4469 292.729 23.2051 285.202C33.2269 265.131 34.1664 231.731 34.9493 205.075C35.4191 188.14 35.8889 173.557 38.2377 164.462L38.3944 163.678H39.1773L94.7668 159.13L94.9234 160.228C94.9234 160.385 97.1157 183.592 97.1157 208.995C97.1157 265.288 85.6846 293.513 51.5479 349.649C49.3556 353.256 47.32 356.706 45.5975 359.842L45.1277 360.783ZM-1.53616 335.537C14.2795 343.691 29.3121 351.061 44.1882 357.647C45.7541 354.667 47.6332 351.531 49.6689 348.395C83.649 292.572 94.9234 264.661 94.9234 208.995C94.9234 186.885 93.201 166.5 92.7312 161.639L40.2735 166.03C38.0812 174.968 37.768 189.08 37.2982 205.388C36.5153 233.77 35.5757 265.915 25.3974 286.457C21.4826 293.67 12.557 310.291 -1.53616 335.537Z" fill="#2D3C5A"/>
<path d="M100.091 269.835C109.956 233.456 93.8271 160.228 93.8271 160.228L39.3337 164.776C34.636 182.965 37.6112 224.675 32.2871 258.075C33.2267 258.232 92.1046 269.208 100.091 269.835Z" fill="#2D3C5A"/>
<path d="M101.03 271.09H100.091C93.6705 270.619 55.6192 263.72 33.3833 259.486L30.8779 259.016L31.0345 257.918C33.6965 241.14 34.3229 222.01 34.7927 205.075C35.2625 188.14 35.7322 173.557 38.081 164.462L38.2376 163.678H39.0205L94.4535 159.13L94.6101 160.071C95.2364 163.051 110.739 234.084 100.874 270.149L101.03 271.09ZM33.5399 257.134H33.6965C69.2425 263.72 92.731 267.797 99.1512 268.581C107.607 235.024 94.6102 170.421 92.7311 161.483L40.1167 165.873C37.9244 174.811 37.6113 188.924 37.1415 205.231C36.6718 221.696 36.2019 240.356 33.5399 257.134Z" fill="#2D3C5A"/>
<path d="M101.031 222.637C100.404 222.637 99.7778 222.166 99.7778 221.382C99.7778 212.445 100.561 205.859 100.561 205.859L100.717 205.075L101.5 204.918C101.5 204.918 107.451 203.663 113.558 199.116C114.028 198.802 114.81 198.802 115.28 199.273C115.593 199.743 115.593 200.527 115.124 200.998C109.8 204.918 104.945 206.643 102.91 207.113C102.753 209.152 102.283 214.64 102.283 221.539C102.127 222.166 101.657 222.637 101.031 222.637Z" fill="white"/>
<path d="M194.515 224.675C191.54 224.048 189.191 221.696 188.721 218.717C188.564 217.776 186.998 218.089 187.155 219.187C187.781 222.637 190.443 225.616 194.045 226.243C195.141 226.243 195.611 224.832 194.515 224.675Z" fill="#2D3C5A"/>
<path d="M112.618 71.1626C141.9 87 153.018 98.6035 163.979 88.568C185.119 69.2809 174.627 39.1742 188.721 15.4966C195.611 3.89296 199.525 -0.0271602 201.561 4.04979C203.597 8.12673 196.707 22.0824 196.707 22.0824C196.707 22.0824 215.497 20.9848 214.401 36.6653C213.932 42.7808 211.739 47.3281 211.739 47.3281C211.739 47.3281 209.547 122.908 171.809 132.317C134.071 141.725 106.98 109.266 106.98 109.266L112.618 71.1626Z" fill="white"/>
<path d="M158.185 135.139C127.494 135.139 106.197 110.207 106.041 109.894L105.728 109.423L111.678 69.2809L113.087 70.0649C119.977 73.8282 125.771 77.1211 130.782 80.2573C147.537 90.2928 155.21 94.8402 163.04 87.6271C174.784 76.9644 176.506 63.1655 178.385 48.4257C179.795 37.1357 181.361 25.3753 187.624 14.8693C193.575 4.83371 196.706 1.22722 199.525 1.38403C200.778 1.38403 201.717 2.168 202.5 3.57925C204.379 7.34258 200.465 16.751 198.429 20.9847C201.561 21.1415 207.824 21.9256 211.896 26.0025C214.558 28.6682 215.81 32.4316 215.497 36.9789C215.184 42.6239 213.305 46.8577 212.835 47.9553C212.679 53.6003 209.547 124.476 172.122 133.728C167.267 134.669 162.57 135.139 158.185 135.139ZM108.233 108.796C111.521 112.402 137.202 139.687 171.652 131.219C208.138 122.124 210.643 48.1121 210.643 47.3281V47.0144L210.8 46.8577C210.8 46.8577 212.992 42.4671 213.305 36.6653C213.618 32.7452 212.522 29.7659 210.33 27.5706C205.632 22.8664 196.863 23.3368 196.863 23.3368L194.827 23.4936L195.767 21.6119C198.272 16.4373 201.874 7.18584 200.621 4.52014C200.465 4.04972 200.151 3.57925 199.682 3.57925C198.586 3.57925 195.924 5.77457 189.817 15.9669C183.866 26.1593 182.3 37.6062 180.891 48.7394C179.012 63.1655 177.133 78.2188 164.762 89.352C155.68 97.6627 146.441 92.1745 129.686 82.2957C124.988 79.4732 119.664 76.3372 113.557 73.0442L108.233 108.796Z" fill="#2D3C5A"/>
<path d="M146.911 90.2929C138.925 87 128.433 79.6301 112.618 71.1626L106.98 109.266C106.98 109.266 117.002 121.184 133.131 128.553C137.516 115.695 142.37 102.994 146.911 90.2929Z" fill="white"/>
<path d="M133.914 130.121L132.661 129.651C116.376 122.281 106.354 110.521 106.041 110.05L105.728 109.58L111.678 69.2809L113.087 70.0649C119.977 73.8282 125.615 77.1212 130.782 80.2573C137.515 84.1774 142.839 87.3136 147.224 89.1952L148.32 89.6656L148.007 90.7633C146.441 95.1538 144.718 99.7012 143.153 104.092C140.177 112.246 137.046 120.713 134.227 129.024L133.914 130.121ZM108.233 108.796C110.112 110.834 119.038 120.4 132.504 126.829C135.166 118.831 138.142 110.834 140.96 103.151C142.526 99.0739 143.936 94.997 145.501 90.92C141.117 89.0384 136.106 85.9023 129.686 82.2957C124.988 79.4732 119.664 76.3372 113.557 73.0443L108.233 108.796Z" fill="#2D3C5A"/>
<path d="M192.635 38.2335C194.201 35.0974 197.176 29.4523 194.044 26.6298C190.756 23.8073 187.937 28.5115 186.528 30.8636C185.902 31.6476 187.311 32.4317 187.937 31.6476C188.407 31.0204 188.877 30.2363 189.347 29.4523C192.478 25.689 194.514 30.0795 193.575 32.118C193.575 33.9997 192.009 36.3518 191.226 37.9198C191.069 38.3903 191.226 38.7039 191.539 39.0175C195.297 41.84 194.671 46.5441 194.044 50.6211C193.888 51.5619 195.454 52.0324 195.61 51.0916C196.08 46.2306 196.393 41.5264 192.635 38.2335Z" fill="#2D3C5A"/>
<path d="M203.127 39.4878C200.935 39.4878 199.525 39.4878 198.742 36.6653C198.586 35.8812 198.742 34.7836 198.742 33.8428C198.742 31.4907 198.899 29.2954 199.212 26.9433C199.369 26.0025 197.803 26.0025 197.646 26.9433C197.333 30.2362 196.237 35.0972 197.49 38.3901C198.429 40.7422 200.935 41.0558 203.127 41.0558C204.067 41.0558 204.067 39.4878 203.127 39.4878Z" fill="#2D3C5A"/>
<path d="M210.8 43.0943C203.91 44.192 207.042 33.2156 207.511 29.6091C207.668 28.6683 206.102 28.1979 205.946 29.1387C205.319 33.9997 202.031 46.0737 211.113 44.6624C212.209 44.5056 211.739 42.9375 210.8 43.0943Z" fill="#2D3C5A"/>
<path d="M67.5197 29.1386C67.05 30.0794 66.7368 31.0202 66.5802 31.961C61.4127 33.3723 57.0282 37.7628 55.9321 43.4078C55.6189 45.1327 55.6189 46.8576 55.7755 48.4256C52.4871 50.3073 49.5119 53.6002 48.2591 56.4227C45.5971 61.7541 47.946 68.8103 52.4871 72.5737C52.1739 76.0234 52.9569 79.6299 55.1492 82.2956C56.0887 83.3933 57.0282 84.3341 58.1243 84.9613C59.5336 87.3134 61.8825 88.8815 65.3275 89.5087C73.6268 91.0768 82.8656 84.6477 88.3462 79.0027C91.478 75.7098 93.9835 71.6328 95.5494 67.3991C97.1153 66.9287 98.368 66.1447 99.6207 64.8902C106.511 60.0293 111.365 49.2097 103.379 44.0351C102.753 42.3102 101.656 40.899 100.09 40.115C98.2114 38.5469 96.4889 37.9197 94.923 38.2333C96.9587 37.606 98.6812 36.5083 100.247 34.9403C101.343 31.4906 102.126 28.0409 102.596 24.4344C102.909 21.7687 104.318 20.0438 106.041 19.103C97.8983 11.8899 78.1679 9.53784 67.5197 29.1386Z" fill="#2D3C5A"/>
<path d="M123.11 172.302C91.9481 178.104 34.9492 173.87 34.9492 173.87C34.9492 173.87 35.1058 138.589 43.7182 105.033C51.5477 74.6123 67.6766 63.0087 83.962 62.0679C90.3822 61.5974 96.8024 63.0087 102.909 65.3607C106.824 66.9288 109.956 68.8105 112.461 71.1626C127.651 84.6479 123.266 110.05 118.412 123.379C112.931 138.903 123.11 172.302 123.11 172.302Z" fill="white"/>
<path d="M112.618 71.1626C105.885 76.494 94.7668 79.0029 84.1187 62.0679C90.5389 61.5974 96.959 63.0087 103.066 65.3607C106.824 66.772 109.956 68.8105 112.618 71.1626Z" fill="white"/>
<path d="M118.256 119.772C118.099 119.772 118.099 119.772 117.942 119.772C117.316 119.616 117.003 118.988 117.16 118.361C117.16 118.204 121.701 100.328 115.594 89.0384C115.28 88.4112 115.437 87.784 116.063 87.4704C116.69 87.1567 117.316 87.3136 117.629 87.9408C124.206 100.015 119.665 118.204 119.352 118.988C119.352 119.459 118.882 119.772 118.256 119.772Z" fill="#2D3C5A"/>
<path d="M65.4842 68.4969C46.067 80.5709 1.90858 130.435 45.7539 196.607L76.1323 178.888C76.1323 178.888 67.0501 155.367 67.0501 132.63C67.0501 114.598 82.7091 93.2722 82.7091 93.2722L65.4842 68.4969Z" fill="white"/>
<path d="M69.3988 118.988C73.7834 105.346 82.709 93.1154 82.709 93.1154L65.4841 68.4969C57.8111 73.3579 46.2235 84.0207 37.7676 99.3876C48.4157 105.66 58.9073 112.402 69.3988 118.988Z" fill="white"/>
<path d="M71.1213 115.539C70.9647 115.539 70.8081 115.539 70.6515 115.382C70.0252 115.068 69.8686 114.441 70.0252 113.814L74.8795 103.465C75.1927 102.837 75.819 102.681 76.4454 102.837C77.0718 103.151 77.2284 103.778 77.0718 104.405L72.2174 114.755C72.0609 115.225 71.5911 115.539 71.1213 115.539Z" fill="#2D3C5A"/>
<path d="M124.362 172.773C93.2008 178.574 34.9492 174.341 34.9492 174.341C34.9492 174.341 36.3585 139.059 45.1276 105.503C52.9571 75.0827 69.0859 63.4791 85.3713 62.5383C91.7915 62.0678 98.2117 63.4791 104.319 65.8311C108.233 67.3992 111.365 69.2809 113.871 71.633C129.06 85.1183 124.675 110.521 119.821 123.849C114.184 139.373 124.362 172.773 124.362 172.773Z" fill="white"/>
<path d="M78.4811 177.006C55.4623 177.006 35.1056 175.595 34.7924 175.595L33.6963 175.438V174.341C33.6963 174.027 35.1056 138.432 43.8747 105.189C53.4267 68.4969 73.9399 61.9111 85.2144 61.2838C91.478 60.9702 98.0549 62.0678 104.632 64.5767C108.39 66.1448 111.835 68.1832 114.497 70.5353C132.974 86.9999 122.953 117.891 120.76 124.006C115.28 139.216 125.302 171.989 125.302 172.302L125.615 173.557L124.362 173.87C111.835 176.222 94.6099 177.006 78.4811 177.006ZM36.2017 173.243C44.3444 173.713 94.2967 176.693 122.953 171.832C121.074 165.403 113.557 137.648 118.725 123.379C120.76 117.577 130.312 87.784 113.088 72.417C110.582 70.0649 107.45 68.1833 103.849 66.772C97.5851 64.2631 91.4781 63.1655 85.5276 63.6359C67.05 64.7336 53.1135 79.63 46.2235 105.817C38.5506 135.453 36.5149 166.814 36.2017 173.243Z" fill="#2D3C5A"/>
<path d="M113.871 71.4762C107.137 76.8076 96.0192 79.3164 85.3711 62.3814C91.7913 61.911 98.2115 63.3223 104.318 65.6744C108.077 67.2424 111.209 69.1241 113.871 71.4762Z" fill="white"/>
<path d="M103.379 76.6508C102.596 76.6508 101.656 76.6507 100.873 76.4939C94.9231 75.5531 89.4424 71.0057 84.4315 63.1654L83.3354 61.4406L85.3711 61.2838C91.6347 60.9702 98.2114 62.0678 104.788 64.5767C108.546 66.1448 111.991 68.1832 114.654 70.5353L115.75 71.4762L114.654 72.417C111.991 74.4555 108.077 76.6508 103.379 76.6508ZM87.5633 63.4791C91.7912 69.7513 96.489 73.201 101.343 74.1418C105.728 74.9259 109.486 73.2011 111.991 71.4762C109.643 69.5945 106.981 68.0265 103.849 66.772C98.3681 64.5768 93.044 63.4791 87.72 63.4791C87.5634 63.4791 87.5633 63.4791 87.5633 63.4791Z" fill="#2D3C5A"/>
<path d="M73.6272 111.775C65.0147 103.621 54.5231 97.3491 44.5014 90.9201C28.216 114.127 16.9415 151.761 47.0069 197.078L77.3853 179.359C77.3853 179.359 68.3031 155.838 68.3031 133.101C68.3031 125.888 70.652 118.361 73.6272 111.775Z" fill="white"/>
<path d="M46.6933 198.646L46.0669 197.705C13.0264 147.841 30.4079 108.953 43.5615 90.2929L44.1879 89.352L48.729 92.3314C57.498 97.9764 66.7369 103.778 74.4098 110.991L75.0361 111.618L74.723 112.402C71.278 120.243 69.5555 127.142 69.5555 133.101C69.5555 155.367 78.4812 178.731 78.6378 179.045L78.9509 179.986L46.6933 198.646ZM44.8142 92.4881C32.1304 110.991 16.4714 147.997 47.3197 195.509L75.9757 178.731C74.2532 174.027 67.0501 153.015 67.0501 132.944C67.0501 126.829 68.7725 119.929 72.2175 112.089C64.8578 105.346 56.0887 99.7013 47.4763 94.2131L44.8142 92.4881Z" fill="#2D3C5A"/>
<path d="M66.737 68.9673C59.0641 73.8283 47.4764 84.4911 39.0205 99.858C49.6686 106.287 60.1602 113.03 70.6518 119.615C75.0363 105.973 83.9619 93.7426 83.9619 93.7426" fill="white"/>
<path d="M71.2781 121.184L70.0254 120.399C67.0502 118.518 63.9183 116.636 60.9431 114.755C53.5834 110.05 45.9105 105.346 38.3942 100.799L37.4546 100.172L38.081 99.2307C46.5369 83.8638 58.2811 73.0442 66.2672 68.0264C66.8936 67.7128 67.52 67.8696 67.8331 68.3401C68.1463 68.9673 67.9897 69.5945 67.5199 69.9081C59.847 74.6123 49.0423 84.8046 40.743 99.2307C47.9462 103.621 55.3059 108.169 62.3525 112.716C65.0145 114.284 67.52 116.009 70.182 117.577C74.7231 104.405 82.8658 93.2721 83.179 92.8017C83.4921 92.3313 84.2751 92.1745 84.7449 92.4881C85.2146 92.8017 85.3712 93.5857 85.0581 94.0561C84.9015 94.2129 76.289 106.287 71.9044 119.615L71.2781 121.184Z" fill="#2D3C5A"/>
<path d="M104.318 11.1058C100.247 7.65612 95.0797 5.77441 89.7556 6.55844C78.6377 8.1265 71.1214 19.5733 72.8439 31.961C72.8439 31.961 72.8439 31.9609 72.8439 32.1177C73.0005 33.3722 73.3136 34.6267 73.7834 35.8811C69.5555 39.174 70.6516 45.7599 74.4098 48.896C77.6982 51.7185 82.0827 52.3457 86.1541 49.68C89.2859 51.0913 92.7309 51.7185 96.3324 51.5617C112.305 50.6209 117.316 38.39 113.244 26.1591C111.365 20.671 108.86 14.8692 104.318 11.1058Z" fill="white"/>
<path d="M95.0797 52.8161C92.1045 52.8161 89.1293 52.1889 86.3106 51.0913C82.0827 53.4434 77.5416 52.9729 73.6269 49.8368C71.278 47.7983 69.8687 44.6622 69.8687 41.5261C69.8687 39.174 70.8083 37.1356 72.3742 35.5675C72.061 34.4699 71.7478 33.3722 71.5912 32.4314V32.2746C70.6517 26.0024 72.0609 19.8869 75.3493 14.7124C78.7943 9.69458 83.6486 6.40162 89.4424 5.46078C94.7665 4.67676 100.247 6.40168 104.945 10.3218C109.799 14.3988 112.461 20.6709 114.184 25.8455C116.533 32.745 116.063 39.6444 112.618 44.6622C109.329 49.5232 103.692 52.3457 96.3324 52.8161C96.0193 52.8161 95.5495 52.8161 95.0797 52.8161ZM86.1541 48.4256L86.7804 48.7392C89.7556 50.1505 93.2006 50.6208 96.3324 50.464C103.066 49.9936 108.077 47.6416 110.895 43.251C113.871 38.8605 114.34 32.745 112.148 26.4728C110.426 21.455 108.077 15.6532 103.692 12.0466C99.4643 8.59692 94.61 7.02888 90.0688 7.6561C85.0579 8.44013 80.5168 11.2627 77.5416 15.81C74.5664 20.3574 73.3137 26.0023 74.0966 31.8041V31.961C74.2532 33.0586 74.5664 34.1563 74.8796 35.4107L75.1928 36.1948L74.5664 36.6652C72.6873 38.0764 72.3742 39.9581 72.3742 41.3693C72.3742 43.7214 73.4702 46.2303 75.3493 47.7983C78.4811 50.464 82.2393 50.7776 85.6843 48.5823L86.1541 48.4256Z" fill="#2D3C5A"/>
<path d="M98.7107 28.8329C98.9244 27.9937 98.4183 27.14 97.5803 26.926C96.7423 26.712 95.8897 27.2188 95.676 28.0579C95.4623 28.8971 95.9684 29.7509 96.8064 29.9649C97.6444 30.1789 98.497 29.672 98.7107 28.8329Z" fill="#2D3C5A"/>
<path d="M109.486 33.5291C108.546 30.0794 107.137 26.9432 105.258 23.9639C104.788 23.1799 103.379 23.9639 103.848 24.7479C105.728 27.5704 106.98 30.7066 107.92 33.8427C108.233 34.9404 109.799 34.47 109.486 33.5291Z" fill="#2D3C5A"/>
<path d="M85.0576 41.0558C82.239 38.7037 78.1677 38.3901 75.1925 40.5854C74.4095 41.2126 75.1925 42.467 75.9754 41.9966C78.3243 40.2717 81.6126 40.2717 83.9615 42.3102C84.7444 42.7806 85.8406 41.683 85.0576 41.0558Z" fill="#2D3C5A"/>
<path d="M81.7697 33.529C85.3712 35.7243 84.7449 29.452 90.3821 21.6117C92.8876 18.162 107.92 17.5348 109.33 6.71521C110.112 -4.5748 92.7309 0.44298 89.7557 6.71521C78.6378 8.28326 67.3633 21.6117 74.0967 37.2923C76.289 35.4106 80.0472 33.529 81.7697 33.529Z" fill="#2D3C5A"/>
</g>
<defs>
<clipPath id="clip0_1311_1085">
<rect width="227" height="252" fill="white"/>
</clipPath>
</defs>
</svg>
