<svg width="134" height="60" viewBox="0 0 134 60" fill="none" xmlns="http://www.w3.org/2000/svg">
<path d="M80.2452 22.557C80.2452 22.557 80.523 22.1422 80.7563 21.8265C81.1815 21.2526 81.9501 20.4569 82.5279 19.9638C82.7062 19.8138 82.9139 19.6422 82.9139 19.6422C82.9139 19.6422 82.5869 19.6762 82.4028 19.714C81.9638 19.7994 81.3197 20.2253 80.9974 20.5006C80.4667 20.9519 79.8836 21.6876 80.1463 22.3398C80.1856 22.4338 80.2452 22.557 80.2452 22.557ZM83.1962 23.3429C84.0349 23.2869 84.8211 23.0449 85.5517 22.6425C86.2691 22.2433 87.3234 21.4646 87.2159 20.5475C87.1812 20.2521 86.9872 20.0277 86.7409 19.9227C86.4198 19.7838 86.2534 19.8086 85.8439 19.9279C85.5478 20.0153 85.4148 20.0675 85.135 20.2273C84.3107 20.7034 83.1451 21.7215 82.5116 22.5348C82.3648 22.7253 82.2167 22.9399 82.1021 23.086C82.0274 23.1753 81.9717 23.2595 81.9782 23.2823C82.0031 23.3756 82.868 23.3664 83.1962 23.3429ZM81.0596 24.905C80.9738 24.9944 80.8827 25.2161 80.7871 25.3759C80.7366 25.4607 80.6423 25.5703 80.5807 25.6133C80.3625 25.7731 80.1784 25.7803 79.9661 25.5957C79.6713 25.3374 79.5009 24.9337 79.4885 24.5424C79.4819 24.3708 79.5101 24.1837 79.4793 24.0376C79.4249 23.7949 79.1799 23.5458 79.0488 23.3129C78.8942 23.0371 78.7691 22.5603 78.754 22.2524C78.6996 21.2911 79.2093 20.4067 79.8711 19.7075C80.5368 19.0011 81.4075 18.4141 82.3556 18.0156C83.2506 17.6386 84.5636 17.383 85.5471 17.7228C85.8662 17.8323 86.313 18.1037 86.5371 18.3861C86.5843 18.4461 86.6236 18.5113 86.6727 18.542C86.7153 18.5693 86.83 18.5804 86.9211 18.5967C87.2356 18.6509 87.6876 18.887 87.8718 19.0442C88.2406 19.3631 88.4451 19.6677 88.5387 20.1092C88.7274 20.9969 88.2138 21.972 87.6287 22.5642C86.6256 23.5862 85.6356 24.303 84.3527 24.8039C83.7905 25.0231 82.9132 25.2272 82.2737 25.1698C82.0759 25.1535 81.8708 25.102 81.6781 25.0876C81.5805 25.0792 81.2195 24.9885 81.1815 24.9598C81.1337 24.9252 81.0727 24.8926 81.0596 24.905ZM50.4729 27.5282C51.0056 27.4956 51.3358 27.4702 51.7519 27.2908C51.9818 27.1937 52.2478 26.9706 52.1168 26.7045C52.0375 26.5414 51.7558 26.4847 51.5913 26.4971C51.0338 26.5343 50.6321 26.9426 50.4415 27.4885C50.4342 27.508 50.4362 27.5282 50.4729 27.5282ZM52.8041 26.1566C53.1147 26.5434 53.2549 26.9973 53.2896 27.4956C53.3243 27.9978 53.1632 28.4811 52.8821 28.864C52.3999 29.5162 51.5953 29.8417 50.7881 29.9017C50.6773 29.9089 50.0189 29.9284 49.8498 29.8762C49.819 29.8652 49.8 29.8534 49.783 29.858C49.764 29.8599 49.6533 30.3126 49.6329 30.4704C49.5609 31.0255 49.4731 31.4181 49.4089 31.8551C49.3551 32.2021 49.3165 32.5745 49.2857 32.9449C49.1035 35.1038 49.1664 36.1702 49.346 38.2827C49.3584 38.4119 49.365 38.5586 49.346 38.6473C49.2975 38.901 49.1429 39.0778 48.8939 39.1417C48.1456 39.3374 47.4302 38.6003 47.0632 38.0107C46.2062 36.6326 46.486 33.8163 46.733 32.4251C46.8339 31.8492 47.0973 30.5702 47.2801 30.1097C47.3771 29.8619 47.5324 29.3747 47.5206 29.3512C47.5101 29.3297 47.1183 29.181 46.7592 29.0434C46.6243 28.9944 46.1715 28.7603 45.9776 28.6403C45.5786 28.3911 45.3053 28.1883 45.0295 27.8785C44.9456 27.782 44.6665 27.3691 44.6252 27.2771C44.4025 26.7723 44.3894 26.3327 44.5872 25.796C44.6377 25.6583 44.9155 25.0785 45.1003 25.0968C45.3663 25.1203 45.308 25.5585 45.3781 25.7855C45.401 25.8638 45.4757 25.9942 45.5347 26.0647C45.9029 26.4971 47.1392 26.9758 47.6457 27.1265C47.7184 27.1493 48.5106 27.3893 48.6266 27.3365C48.6573 27.3221 48.808 27.0554 48.9044 26.8943C48.9561 26.8036 49.0144 26.7365 49.078 26.668C49.5596 26.1521 50.2711 25.6636 50.9794 25.5188C51.2913 25.4561 51.9026 25.5083 52.2118 25.6838C52.2819 25.7236 52.5125 25.8142 52.8041 26.1566ZM45.3204 32.2771C45.3427 32.2784 45.3768 32.2895 45.4062 32.3019C45.7699 32.4603 45.7699 33.1067 45.6821 33.4106C45.4462 34.2103 44.6842 35.036 44.0762 35.4469C43.7132 35.6882 42.9702 36.0313 42.4388 36.1323C41.6074 36.2915 40.8709 36.0723 40.4261 35.4025C40.0238 34.7966 39.8462 34.0472 39.8141 33.3428C39.7224 31.3203 40.3632 28.3657 41.152 26.6771C41.2582 26.4508 41.7797 25.3955 42.2646 25.2253C42.7468 25.0557 42.9591 25.6185 43.0069 26.0392C43.0685 26.5806 42.8949 27.298 42.7573 27.8785C42.5148 28.894 42.1669 30.4815 42.0844 30.9368C41.9972 31.4181 41.7954 32.4486 41.8682 32.9743C41.9055 33.2534 41.9586 33.393 42.1715 33.3761C42.2685 33.3676 43.6333 32.7428 44.3782 32.4656C44.6573 32.3625 45.0046 32.251 45.3204 32.2771ZM35.2264 31.3444C35.2264 31.3444 35.3817 31.347 35.5415 31.3444C36.0506 31.3379 36.9044 31.2446 36.9044 31.2446C36.9044 31.2446 36.8087 30.4965 36.7314 30.0191C36.679 29.7001 36.637 29.5032 36.5682 29.2508C36.5368 29.1386 36.4588 28.8183 36.3769 28.6931C36.3625 28.6677 36.3415 28.6409 36.3415 28.6409C36.3415 28.6409 35.9294 29.4327 35.6988 29.9845C35.5153 30.4222 35.4236 30.7483 35.2952 31.0137C35.2644 31.0757 35.2303 31.1605 35.2264 31.2335C35.2225 31.2844 35.2264 31.3444 35.2264 31.3444ZM32.4955 31.4305C32.4955 31.4305 32.7399 30.8839 32.9299 30.4704C33.1298 30.036 34.1394 28.0174 34.5555 27.4467C35.0167 26.8088 35.8986 25.6049 35.9058 25.5683C35.9248 25.4359 35.9537 25.2005 36.0775 25.012C36.1738 24.862 36.4117 24.7987 36.6429 24.7837C36.8991 24.7687 37.1645 24.9572 37.2798 25.1672C37.5019 25.5664 37.8806 26.7025 37.9625 26.9739C38.4048 28.4864 38.8824 31.3111 39.039 32.7623C39.0796 33.1432 39.2067 35.1273 39.2166 35.574C39.2257 35.8878 39.2166 36.4082 39.0357 36.6652C38.9689 36.763 38.8405 36.8446 38.7166 36.8426C38.5496 36.8367 38.2128 36.6039 38.0654 36.4669C37.6572 36.0834 37.3853 35.6941 37.2981 35.2173C37.2234 34.8025 37.118 33.6122 37.118 33.6122L35.3384 33.6833L34.3471 33.6996C34.3471 33.6996 34.2534 33.9298 34.1768 34.1215C34.011 34.5324 33.8623 34.9433 33.7981 35.1742C33.6683 35.638 33.4187 36.5576 33.3591 36.7011C33.2339 37.0024 33.1239 37.1779 32.8297 37.217C32.5034 37.2594 32.2793 37.2829 32.0434 37.1557C31.5992 36.9131 31.3967 36.4004 31.3214 35.8715C31.189 34.9707 31.5553 34.2442 31.9314 33.1758C32.0893 32.7264 31.8718 32.5771 31.497 31.9927C31.4485 31.9177 31.3987 31.8388 31.3895 31.7788C31.3764 31.7188 31.4341 31.5629 31.516 31.4983C31.5415 31.4774 31.5488 31.4748 31.5953 31.4729L32.4955 31.4305ZM22.3334 25.5983C22.3334 25.5983 22.3104 25.0263 22.2626 24.7074C22.2226 24.4374 22.1682 24.2345 22.0392 24.0284C21.8976 23.8021 21.7895 23.6599 21.5661 23.626C21.2922 23.5862 21.1409 23.7721 20.9699 24.0395C20.7425 24.4028 20.5158 25.0766 20.3822 25.5025C20.1889 26.1077 20.107 26.4795 20.0035 27.1682C19.8325 28.2979 19.6595 30.2193 19.8436 31.5264C19.8777 31.7514 19.934 32.0808 19.934 32.0808C19.934 32.0808 20.2079 31.7749 20.4077 31.5609C20.4929 31.4683 20.8991 30.8637 20.9352 30.8004C21.0053 30.6791 21.1933 30.3595 21.2195 30.2943C21.2595 30.2245 21.5524 29.5991 21.6035 29.4523C21.7017 29.1718 21.8446 28.7401 21.9546 28.3957C22.2121 27.6026 22.1663 27.3091 22.3334 26.4286C22.3524 26.3275 22.3687 25.5983 22.3504 25.5983C22.3425 25.5957 22.3334 25.5983 22.3334 25.5983ZM20.39 33.9781C20.39 33.9781 20.4981 34.1666 20.5833 34.3081C21.057 35.094 21.8138 35.544 22.7278 35.589C23.6641 35.636 24.8664 35.096 25.5524 34.6212C27.5121 33.2645 28.5433 30.8187 29.1055 28.4746C29.7679 25.7262 29.7981 22.827 29.0085 20.1673C28.5506 18.6235 27.6595 16.691 26.5555 15.5352C26.2266 15.1921 25.7227 14.7245 25.5792 14.5328C25.4298 14.3351 25.3938 14.1688 25.6218 14.0364C25.8623 13.8988 26.389 14.1845 26.6518 14.3423C27.9406 15.1217 28.7831 15.8985 29.5465 17.0145C29.7391 17.2962 30.5129 18.5635 30.6544 18.8283C31.5206 20.4556 31.9648 21.8735 32.2026 23.6697C32.5027 25.9557 32.3107 28.5516 31.5153 30.8435C31.1681 31.8492 30.6321 32.8843 30.0739 33.757C29.9415 33.9618 29.1278 35.0503 29.0275 35.1573C28.7478 35.4508 28.0565 36.0469 27.7335 36.3058C26.1178 37.5966 24.3723 38.4425 22.4565 38.209C21.403 38.0799 20.5381 37.7322 19.6942 37.0494C19.3705 36.7846 18.8241 36.2334 18.6053 35.8408C18.4631 35.589 18.2862 35.2832 18.2632 35.2792C18.2384 35.2734 18.1447 35.3366 18.0424 35.4077C17.9533 35.469 17.574 35.6445 17.3728 35.7188C16.0585 36.2067 14.5882 36.0919 13.3807 35.3119C12.5047 34.7477 11.7637 33.6754 11.4361 32.703C10.9532 31.2609 10.9145 29.7673 11.1111 28.2333C11.4472 25.6303 12.3887 23.1642 13.7922 20.9813C14.678 19.6057 15.8266 18.2471 17.1972 17.2727C17.3512 17.1619 18.1872 16.6779 18.3583 16.5996C18.6675 16.4548 19.079 16.3211 19.3168 16.5742C19.4406 16.7053 19.4367 16.8116 19.345 16.9845C19.1995 17.2525 18.8274 17.6165 18.6216 17.8343C18.4434 18.026 17.4338 19.2581 17.2254 19.5464C16.9967 19.8542 15.9694 21.3863 15.8344 21.6217C14.5384 23.8556 13.5091 27.3945 13.6087 30.1391C13.6297 30.7059 13.7135 31.5231 13.8413 32.0553C14.0149 32.7728 14.4441 33.7439 15.0881 34.1972C15.7663 34.6759 16.3946 34.6485 17.2064 34.3277C17.422 34.2409 17.7286 34.1033 17.7286 34.1033C17.7286 34.1033 17.4921 33.5 17.3375 33.0467C16.9122 31.7873 16.7412 29.7784 16.8978 28.3957C17.0269 27.2621 17.2811 26.394 17.7961 25.494C18.2062 24.7726 18.7586 24.065 19.4485 23.4793C20.1135 22.9144 21.1763 22.4227 22.1112 22.3979C22.8883 22.3796 23.6929 22.7162 24.1011 23.4193C24.81 24.6422 24.8552 26.5721 24.6554 27.8439C24.3553 29.7673 23.3548 31.5733 21.9114 32.7969C21.3931 33.2352 20.39 33.9781 20.39 33.9781ZM82.2056 26.8747C82.2442 26.8819 82.3052 26.8995 82.3569 26.9178C82.8064 27.0887 82.9912 27.5035 83.1019 27.9574C83.3587 29.014 83.4688 31.3496 83.5107 32.266C83.5422 32.9508 83.5592 33.6285 83.5881 34.3061C83.6123 34.8807 83.6582 35.6451 83.5389 36.1845C83.495 36.3782 83.3653 36.6013 83.1786 36.718C82.9643 36.8537 82.4788 36.8641 82.2121 36.8094C81.5537 36.6737 81.3394 36.2524 81.2464 35.6047C81.0229 34.0583 81.1297 31.0235 81.2621 29.7425C81.3047 29.3219 81.4659 27.9665 81.688 27.3991C81.7627 27.2061 81.9245 26.8199 82.2056 26.8747ZM61.9258 29.1953C61.9258 29.1953 60.9509 29.2638 60.2813 29.3382C59.4275 29.4288 57.8243 29.7047 56.9004 30.0354C56.622 30.1319 56.0578 30.3674 56.0087 30.6504C55.9589 30.9465 56.141 31.1755 56.3461 31.4148C56.4641 31.5525 57.1324 32.1923 57.3191 32.3482C58.1047 32.9997 59.6968 34.0074 60.8716 34.4966C61.2726 34.6629 61.9396 34.9003 61.9396 34.9003C61.9396 34.9003 61.8898 33.0108 61.8996 31.15C61.9035 30.1665 61.9258 29.1953 61.9258 29.1953ZM79.7872 29.9473C79.8436 30.4548 79.7112 31.4148 79.6896 31.5414C79.6477 31.8329 79.4262 32.5053 79.3908 32.5882C79.212 32.9958 79.037 33.333 78.8496 33.6663C78.5299 34.2389 77.7712 35.1462 77.3191 35.5343C75.6431 36.977 73.0472 37.7988 70.8195 38.0694C69.3093 38.2514 67.573 38.2234 65.971 37.9292C65.4207 37.8281 64.6017 37.6416 64.6017 37.6416C64.6017 37.6416 64.6036 37.9677 64.5768 38.1979C64.5643 38.301 64.4844 38.5775 64.4405 38.6669C64.3232 38.9062 64.1325 39.0295 63.8554 39.0817C63.5199 39.1456 63.1641 39.1645 62.8536 39.0341C62.3451 38.8195 62.1617 38.3447 62.0739 37.8007C62.0018 37.3624 61.9265 36.6013 61.9265 36.6013C61.9265 36.6013 61.5465 36.4226 61.2287 36.2647C60.2537 35.786 59.3266 35.2081 58.5175 34.6107C58.2934 34.4457 57.3289 33.6409 57.1153 33.44C56.5184 32.8784 55.9818 32.3162 55.573 31.5962C55.2552 31.0339 55.1641 30.5337 55.4053 29.9382C55.7394 29.1079 56.9352 28.4811 57.7542 28.1244C58.3563 27.8602 60.2243 27.253 61.0013 27.1408C61.3676 27.0887 61.9363 26.9882 61.971 26.9647C61.9854 26.9543 61.9959 26.9452 62.0057 26.9328C62.0234 26.9073 62.0536 26.0842 62.0477 25.7842C62.0411 25.4881 62.2678 23.5464 62.3406 23.1362C62.3799 22.9125 62.5489 22.0574 62.7219 21.8337C62.8339 21.6824 63.0338 21.6928 63.1962 21.7939C64.0867 22.3437 64.3566 24.2561 64.4228 25.2292C64.4627 25.8214 64.4824 26.713 64.4824 26.713C64.4824 26.713 65.5039 26.6836 66.1329 26.6999C66.7428 26.7149 67.4157 26.8115 68.05 26.9119C68.8618 27.0397 70.4434 27.3835 71.3502 27.842C72.0978 28.2183 72.7962 28.8542 73.0223 29.5267C73.2333 30.143 73.2012 30.5683 72.8808 31.1246C72.5211 31.7533 71.839 32.219 71.1478 32.2575C70.9414 32.2712 70.1676 32.1681 69.9297 31.9849C69.8354 31.9105 69.8406 31.7788 69.9088 31.6894C69.9343 31.6568 70.2953 31.4683 70.5096 31.3548C70.6164 31.2968 70.7055 31.2348 70.7881 31.1592C70.9663 31.002 71.1255 30.8311 71.1078 30.6315C71.0829 30.3706 70.8071 30.2095 70.5424 30.1065C69.304 29.6173 66.8313 29.2097 65.6349 29.1392C65.1671 29.1118 64.5027 29.0884 64.5027 29.0884L64.6429 35.6575C64.6429 35.6575 65.1933 35.7625 65.6264 35.833C65.876 35.8695 66.9296 35.9641 67.2094 35.9712C69.342 36.0273 71.7224 35.8382 73.6795 34.9166C74.5384 34.5142 75.3266 34.0139 75.9229 33.3363C76.7104 32.4369 77.1225 31.2094 77.0131 29.9271C76.8932 28.5235 75.9019 26.8617 75.1117 25.8488C73.021 23.1714 69.4377 20.9715 66.2862 19.6814C63.0672 18.3645 59.8868 17.6054 56.47 17.4788C55.59 17.4475 53.669 17.4919 52.6999 17.7593C52.5597 17.7978 52.4208 17.8447 52.2917 17.8721C52.1895 17.8969 52.031 17.9641 51.9864 17.9987C51.9628 18.0202 51.9373 18.0456 51.9373 18.0456C51.9373 18.0456 51.9976 18.0782 52.0546 18.1037C52.1574 18.1487 52.5905 18.1741 52.8146 18.2145C53.0138 18.2524 53.2241 18.3587 53.3053 18.5054C53.384 18.6437 53.3951 18.7526 53.3001 18.8681C53.08 19.1361 52.2518 19.0892 51.8881 19.0331C51.5094 18.9718 51.0383 18.8576 50.9512 18.5289C50.8516 18.1421 51.0344 17.7632 51.2342 17.4123C51.6352 16.7112 52.2079 16.3459 53.0492 16.1183C54.2416 15.7922 55.7479 15.5633 56.8749 15.5202C59.4256 15.4256 61.8387 15.8678 64.3088 16.6159C65.7227 17.0405 67.5756 17.7547 68.9299 18.405C69.9009 18.8707 71.4341 19.7303 72.295 20.2919C72.5663 20.4699 74.1551 21.6315 74.4015 21.8357C74.9165 22.2544 75.5907 22.8564 76.0768 23.3384C77.0203 24.2691 78.1938 25.6949 78.7651 26.8258C78.9007 27.0984 79.0082 27.3652 79.1838 27.6789C79.2447 27.7859 79.5062 28.4303 79.5494 28.6168C79.592 28.8007 79.6549 29.0714 79.6641 29.0812C79.6772 29.181 79.7964 29.7328 79.7872 29.9473ZM90.7749 30.4248C90.8228 30.4293 90.8346 30.4313 90.8785 30.4378C91.6595 30.5435 92.4247 30.683 93.0098 30.9439C93.553 31.1839 93.8727 31.4853 94.163 32.0247C94.6052 32.8419 94.6347 33.9852 94.2351 34.8514C93.9356 35.4951 93.2804 36.0358 92.6829 36.3228C92.0598 36.6228 91.4498 36.765 90.7474 36.8446C89.5222 36.9783 88.1948 36.7265 87.0901 36.1943C86.4369 35.8767 85.6388 35.3301 85.2359 34.6251C84.9397 34.1072 84.9489 33.4361 85.3099 32.9456C85.8832 32.1642 87.1117 31.992 88.0388 32.0247C88.7451 32.0507 90.0149 32.2692 90.6865 32.5053C90.8732 32.5725 91.5579 32.8386 91.6772 32.9586C91.761 33.0447 91.8167 33.1667 91.7787 33.2821C91.6241 33.7485 90.4873 33.9944 90.1591 34.0433C89.2778 34.177 88.8218 33.8463 87.8213 33.453C87.573 33.3565 87.2421 33.2495 86.9879 33.2261C86.5345 33.183 85.9861 33.3076 85.9003 33.8026C85.8557 34.0576 86.1558 34.295 86.3844 34.3935C86.9211 34.6251 87.3574 34.7066 87.8868 34.7151C89.4455 34.7386 91.1982 34.4835 92.4752 33.5835C92.6514 33.4602 92.8218 33.2776 92.8244 33.0486C92.8244 33.0193 92.7825 32.7728 92.7026 32.7473C92.6908 32.7421 92.6783 32.748 92.6691 32.746C92.6396 32.7375 92.5905 32.6573 92.5492 32.6045C92.4575 32.493 92.0873 32.3345 92.0146 32.3038C91.155 31.947 89.5668 31.7736 88.7471 31.7064C87.8888 31.6333 86.5384 31.5198 86.2134 31.4729C85.8799 31.4259 85.517 31.36 85.2267 31.2303C84.9378 31.0998 84.6534 30.8076 84.5682 30.4848C84.4188 29.9017 84.6108 29.1855 84.9358 28.7186C85.7889 27.4976 87.7846 27.0352 89.2778 26.8512C90.7225 26.6719 93.0577 26.6738 94.4762 27.4245C94.6957 27.5406 94.8084 27.6496 94.7612 27.8831C94.6695 28.3207 94.3366 28.6025 93.9376 28.7264C93.5183 28.8594 92.6488 28.911 92.2675 28.9344C90.5568 29.0303 88.4896 28.9801 86.8614 29.423C86.7337 29.4595 86.5135 29.5162 86.4408 29.5971C86.1859 29.8723 86.9145 29.9506 87.0711 29.9845C87.117 29.9936 87.1268 29.9956 87.1746 30.0002L90.7749 30.4248ZM96.1116 36.7937C95.421 36.5413 95.2644 35.4312 95.2323 34.8696C95.1229 33.0415 95.6084 30.4978 96.2249 28.7844C96.4012 28.2966 96.6547 27.4996 97.2031 27.5446C97.5805 27.5778 97.8498 27.8674 98.0614 28.1648C98.6026 28.9247 99.3142 29.9545 99.7859 30.6713C100.313 31.4748 100.82 32.2842 101.318 33.0167C101.379 33.1054 101.436 33.1915 101.503 33.2463C101.594 33.3187 101.675 33.3226 101.712 33.2554C101.729 33.2293 101.696 32.3058 101.673 32.1205C101.634 31.8257 101.617 31.587 101.583 31.3327C101.491 30.5937 101.255 29.554 101.069 28.851C100.865 28.0644 100.615 27.2445 100.429 26.4834C100.369 26.2362 100.313 25.9864 100.315 25.7509C100.317 25.4105 100.537 25.222 100.893 25.3492C101.596 25.5957 102.527 27.1134 102.798 27.6404C102.89 27.8185 103.256 28.7238 103.338 28.9775C103.629 29.8469 103.806 30.6713 103.886 31.619C103.963 32.5399 103.899 33.8815 103.507 34.7894C103.364 35.1234 103.069 35.5727 102.824 35.7991C102.439 36.1539 101.673 36.4311 101.145 36.131C100.567 35.8049 99.6175 34.1679 99.4557 33.8881C98.9047 32.9306 97.9566 31.0581 97.8098 30.8481C97.7777 30.8017 97.7358 30.7574 97.6624 30.7352C97.6067 30.7189 97.5844 30.8344 97.57 30.9094C97.4757 31.4546 97.4108 34.0048 97.4095 34.0759C97.3938 34.5051 97.3728 35.5577 97.2483 36.0763C97.1671 36.4148 97.0845 36.6926 96.772 36.8348C96.5499 36.9346 96.3808 36.8928 96.1116 36.7937ZM105.632 36.6306C105.557 36.5739 105.436 36.4513 105.349 36.3528C105.335 36.3391 105.086 35.9686 105.037 35.8545C104.994 35.756 104.961 35.6849 104.93 35.6027C104.704 35.0216 104.71 34.4496 104.835 33.8254C104.951 33.243 105.061 33.2176 105.361 32.4179C105.38 32.3742 105.389 32.3364 105.396 32.2882C105.408 32.1786 105.23 31.4416 105.219 31.2048C105.207 30.8435 105.489 30.5872 105.961 30.5376C106.004 30.5337 106.036 30.5343 106.067 30.5252C106.255 30.4795 106.376 30.1208 106.479 29.8332C106.622 29.4288 106.846 28.8125 106.846 28.8125C106.846 28.8125 106.25 28.6755 105.931 28.5555C105.575 28.4218 105.305 28.249 105.144 27.9235C104.951 27.5426 105.078 27.3313 105.478 27.208C105.624 27.1611 106.782 26.9399 107.147 26.8884C107.603 26.8219 108.032 26.7652 108.466 26.7117C108.843 26.666 110.574 26.4664 111.125 26.4808C111.965 26.5049 112.511 26.8493 113.001 27.5569C113.265 27.9346 113.446 28.3833 113.047 28.6266C112.435 28.9964 110.453 29.0244 110.089 29.0284C109.51 29.0342 108.71 29.0244 108.71 29.0244L108.307 30.3674C108.307 30.3674 109.727 30.3524 110.525 30.3491C110.719 30.3491 110.913 30.3595 111.022 30.3824C111.429 30.4724 111.57 30.7841 111.587 31.2335C111.609 31.7592 111.509 32.0012 111.089 32.0716C110.871 32.1062 108.431 32.1205 108.1 32.159C107.894 32.1812 107.676 32.2138 107.676 32.2138C107.676 32.2138 107.5 32.6717 107.346 33.1341C107.192 33.6161 107.059 34.1072 107.059 34.1072C107.059 34.1072 107.183 34.1124 107.286 34.1124C107.458 34.1137 107.632 34.0889 107.768 34.0655C108.513 33.9298 109.619 33.7667 110.527 33.6246C111.015 33.5469 111.261 33.5124 111.518 33.8346C111.74 34.1196 111.855 34.3583 111.871 34.7027C111.885 35.0268 111.637 35.2414 111.333 35.4723C110.373 36.2028 108.733 36.9946 107.51 37.1302C106.945 37.1935 106.808 37.1309 106.313 37.0024C106.219 36.9783 105.877 36.8191 105.88 36.8022C105.88 36.8022 105.695 36.6796 105.632 36.6306ZM121.058 29.8815C120.429 30.4058 119.616 31.4748 119.228 32.0299C118.71 32.7656 118.223 33.6083 117.756 34.2611C117.656 34.4079 117.355 34.9329 117.366 34.9505C117.387 34.9877 117.689 34.976 118 34.9238C118.663 34.8129 119.564 34.3498 120.045 33.9676C120.778 33.3826 121.288 32.579 121.529 31.6392C121.636 31.212 121.691 30.3165 121.387 29.918C121.327 29.8417 121.175 29.7817 121.058 29.8815ZM116.062 37.5594C116.062 37.5594 115.863 38.1412 115.717 38.5977C115.465 39.3856 114.91 41.5073 114.781 42.1667C114.588 43.145 114.038 45.7089 114.01 45.7637C113.971 45.838 113.945 45.8615 113.852 45.9209C113.626 46.0533 113.535 46.0096 113.26 45.8635C112.904 45.6769 112.59 45.4865 112.323 45.1349C111.786 44.4403 111.914 43.1333 112.019 42.3663C112.388 39.6837 112.761 38.5038 113.786 35.8336C113.803 35.788 113.803 35.7775 113.782 35.7371C113.463 35.0594 113.29 34.2409 113.29 33.5796C113.293 31.4866 114.501 29.4158 115.856 27.7526C115.958 27.6261 116.623 26.833 116.925 26.8486C117.228 26.863 117.277 27.2145 117.232 27.508C117.08 28.4746 116.397 29.4595 115.929 30.2748C115.404 31.1859 115.29 31.5609 115.033 32.3964C114.992 32.5269 114.889 33.1373 114.894 33.2156C114.904 33.44 114.953 33.723 114.953 33.723C114.953 33.723 115.808 32.5321 116.372 31.797C116.68 31.3933 116.901 31.1266 117.158 30.8389C117.418 30.5467 118.42 29.5103 118.708 29.2371C119.314 28.6612 119.583 28.4218 120.238 28.0833C120.758 27.8159 121.224 27.7494 121.731 28.0826C122.534 28.6077 122.884 29.7184 122.974 30.6191C123.08 31.6953 122.859 32.9058 122.382 33.8274C121.816 34.927 121.044 35.7188 119.994 36.4115C118.92 37.1198 117.66 37.6018 116.424 37.5731C116.257 37.5692 116.062 37.5594 116.062 37.5594Z" fill="#231F20"/>
</svg>
