<svg width="60" height="60" viewBox="0 0 60 60" fill="none" xmlns="http://www.w3.org/2000/svg">
<g clip-path="url(#clip0_1319_641)">
<path d="M29.3775 14.2711L14.2664 29.3821C13.9035 29.745 13.9035 30.3333 14.2664 30.6961L20.9185 37.3483C21.2814 37.7111 21.8697 37.7111 22.2325 37.3483L37.3436 22.2372C37.7065 21.8744 37.7065 21.2861 37.3436 20.9232L30.6915 14.2711C30.3286 13.9082 29.7403 13.9082 29.3775 14.2711Z" fill="#DE2939"/>
<path d="M20.0201 31.3531C20.7458 30.6274 20.7458 29.4508 20.0201 28.7251C19.2944 27.9994 18.1178 27.9994 17.3921 28.7251C16.6664 29.4508 16.6664 30.6274 17.3921 31.3531C18.1178 32.0788 19.2944 32.0788 20.0201 31.3531Z" fill="white"/>
<path d="M25.8014 31.3923C26.5271 30.6665 26.5271 29.4899 25.8014 28.7642C25.0757 28.0385 23.8991 28.0385 23.1734 28.7642C22.4477 29.4899 22.4477 30.6665 23.1734 31.3923C23.8991 32.118 25.0757 32.118 25.8014 31.3923Z" fill="white"/>
<path d="M31.3951 22.8531C32.1209 22.1274 32.1209 20.9508 31.3951 20.2251C30.6694 19.4994 29.4928 19.4994 28.7671 20.2251C28.0414 20.9508 28.0414 22.1274 28.7671 22.8531C29.4928 23.5788 30.6694 23.5788 31.3951 22.8531Z" fill="white"/>
<path d="M22.3209 21.3354L21.8281 21.8281L29.7943 29.7943L30.287 29.3015L22.3209 21.3354Z" fill="white"/>
<path d="M37.7524 22.6461L22.6414 37.7572C22.2785 38.12 22.2785 38.7083 22.6414 39.0712L29.2935 45.7234C29.6564 46.0862 30.2447 46.0862 30.6075 45.7234L45.7186 30.6123C46.0815 30.2494 46.0815 29.6611 45.7186 29.2983L39.0665 22.6461C38.7036 22.2832 38.1153 22.2832 37.7524 22.6461Z" fill="#007BAD"/>
<path fill-rule="evenodd" clip-rule="evenodd" d="M26.4176 41.2068L23.5433 38.3324L24.5288 37.3469C25.9249 36.2793 28.3886 38.7431 27.4031 40.2213L26.4176 41.2068ZM24.9394 38.2503L26.4176 39.7286C26.9104 39.0716 25.5964 37.7576 24.9394 38.2503ZM27.321 36.1151C28.4708 34.9653 30.565 37.0595 29.4152 38.2092C28.2655 39.359 26.1713 37.2648 27.321 36.1151ZM27.8548 36.6489C28.1423 36.3614 29.1688 37.388 28.8814 37.6754C28.594 37.9629 27.5674 36.9363 27.8548 36.6489ZM28.5529 35.1295L29.292 34.3904L29.5384 34.6368C29.5045 34.5007 29.5063 34.3581 29.5438 34.2229C29.5813 34.0877 29.6532 33.9645 29.7524 33.8653C29.8516 33.7661 29.9748 33.6942 30.11 33.6567C30.2452 33.6192 30.3878 33.6174 30.5239 33.6513C30.49 33.5152 30.4918 33.3726 30.5293 33.2374C30.5668 33.1022 30.6387 32.979 30.7379 32.8798C30.8371 32.7806 30.9603 32.7087 31.0955 32.6712C31.2307 32.6337 31.3733 32.6319 31.5094 32.6658L33.234 34.3904L32.536 35.0885L31.3041 33.8566C31.2514 33.8323 31.1985 33.821 31.1508 33.8239C31.1032 33.8269 31.0626 33.8439 31.0333 33.8732C31.0039 33.9026 30.9869 33.9432 30.984 33.9908C30.9811 34.0384 30.9924 34.0913 31.0167 34.144L32.2485 35.3759L31.5094 36.1151L30.2775 34.8832C30.2248 34.8589 30.1719 34.8476 30.1243 34.8505C30.0766 34.8534 30.0361 34.8704 30.0067 34.8998C29.9774 34.9291 29.9604 34.9697 29.9574 35.0173C29.9545 35.065 29.9658 35.1179 29.9901 35.1706L31.222 36.4025L30.5239 37.1006L28.5529 35.1295ZM31.5915 32.0909L32.3307 31.3518L34.3017 33.3228L33.5625 34.0619L31.5915 32.0909ZM30.8113 30.5716C30.6984 30.685 30.635 30.8386 30.6353 30.9987C30.6355 31.1588 30.6993 31.3122 30.8126 31.4253C30.9259 31.5384 31.0794 31.6018 31.2395 31.6018C31.3996 31.6017 31.5531 31.5381 31.6663 31.4249C31.7795 31.3117 31.8431 31.1582 31.8432 30.9981C31.8432 30.838 31.7798 30.6845 31.6667 30.5712C31.5536 30.4579 31.4002 30.3941 31.2401 30.3939C31.08 30.3936 30.9264 30.457 30.813 30.5699L30.8113 30.5716ZM32.6592 31.0233L33.3572 30.3252L33.6857 30.6537C33.6295 30.503 33.6246 30.3379 33.6716 30.1841C33.7187 30.0302 33.8151 29.8962 33.946 29.8027C34.077 29.7092 34.235 29.6614 34.3958 29.6668C34.5566 29.6722 34.7111 29.7304 34.8355 29.8325L36.3138 31.3107L35.6157 32.0088L34.3838 30.7769C34.3311 30.7526 34.2782 30.7413 34.2305 30.7442C34.1829 30.7472 34.1423 30.7642 34.113 30.7935C34.0836 30.8229 34.0666 30.8635 34.0637 30.9111C34.0608 30.9587 34.0721 31.0116 34.0964 31.0643L35.3282 32.2962L34.6302 32.9943L32.6592 31.0233ZM35.3693 28.0668C36.5191 26.917 38.6133 29.0112 37.4635 30.161C36.3138 31.3107 34.2196 29.2165 35.3693 28.0668ZM35.9031 28.6006C36.1906 28.3131 37.2171 29.3397 36.9297 29.6271C36.6423 29.9146 35.6157 28.888 35.9031 28.6006ZM35.9442 25.9315L36.6833 25.1924L37.4635 26.9581L36.9297 27.4919L35.9442 25.9315ZM38.9828 25.6851C37.9152 26.0958 38.4901 26.5064 39.065 26.0958C39.8862 25.7673 40.8717 26.7528 39.9683 27.6561C39.6672 27.9025 39.3524 28.0531 39.0239 28.1078L38.8596 27.4508C39.8862 27.0813 39.3935 26.5885 38.5722 27.0813C37.5867 27.4098 36.7654 25.603 38.7364 24.946L38.9828 25.6851ZM30.8524 43.9991L30.0312 44.8203L27.0746 41.8638L27.8959 41.0426C28.1573 40.7812 28.5118 40.6344 28.8814 40.6344C29.251 40.6344 29.6055 40.7812 29.8669 41.0426C30.1283 41.3039 30.2751 41.6584 30.2751 42.0281C30.2751 42.3977 30.1283 42.7522 29.8669 43.0136L30.8524 43.9991ZM28.4708 41.6175C28.5846 41.5036 28.7348 41.4356 28.8885 41.4283C29.0421 41.421 29.1865 41.475 29.29 41.5784C29.3934 41.6819 29.4474 41.8263 29.4401 41.98C29.4328 42.1336 29.3648 42.2838 29.251 42.3976L28.4708 41.6175ZM30.0722 40.673L30.8113 39.9339L32.8645 41.987L32.1254 42.7261L30.0722 40.673ZM29.407 39.2687C29.294 39.3821 29.2307 39.5357 29.2309 39.6958C29.2312 39.8558 29.2949 40.0093 29.4082 40.1224C29.5215 40.2354 29.6751 40.2989 29.8352 40.2988C29.9952 40.2988 30.1487 40.2351 30.2619 40.1219C30.3751 40.0088 30.4387 39.8553 30.4388 39.6952C30.4389 39.5351 30.3754 39.3816 30.2623 39.2683C30.1493 39.155 29.9958 39.0912 29.8357 39.091C29.6757 39.0907 29.5221 39.154 29.4086 39.267L29.407 39.2687ZM31.0988 39.6464L32.6592 38.0861L33.4394 40.1803L34.0553 39.5643L34.6712 40.1803L33.0698 41.7817L32.2485 39.6464L31.6737 40.2213L31.0988 39.6464ZM32.9466 37.7986L34.507 36.2382L35.2872 38.3324L35.9031 37.7165L36.5191 38.3324L34.8766 39.9749L34.0964 37.7986L33.4804 38.4146L32.9466 37.7986ZM37.4635 36.731C37.5137 36.966 37.4931 37.1795 37.4042 37.3448C37.3154 37.5101 37.1622 37.6198 36.964 37.6602C36.7658 37.7005 36.5314 37.6697 36.2901 37.5716C36.0487 37.4735 35.8113 37.3124 35.6076 37.1087C35.4038 36.9049 35.2428 36.6675 35.1447 36.4262C35.0466 36.1849 35.0157 35.9504 35.0561 35.7522C35.0964 35.554 35.2061 35.4009 35.3714 35.312C35.5367 35.2232 35.7502 35.2025 35.9852 35.2527L35.7389 35.0064L36.5191 34.2262L38.5722 36.2793L37.792 37.0595L37.4635 36.731ZM36.9708 36.2382C37.019 36.3279 37.0411 36.4076 37.0339 36.4662C37.0267 36.5248 36.9905 36.5593 36.9306 36.5648C36.8706 36.5702 36.7899 36.5464 36.6998 36.4966C36.6098 36.4468 36.5149 36.3737 36.4287 36.2875C36.3425 36.2013 36.2694 36.1065 36.2196 36.0164C36.1699 35.9263 36.146 35.8456 36.1515 35.7856C36.1569 35.7257 36.1914 35.6895 36.25 35.6823C36.3086 35.6751 36.3884 35.6972 36.478 35.7455L36.9708 36.2382Z" fill="white"/>
</g>
<defs>
<clipPath id="clip0_1319_641">
<rect width="32" height="32" fill="white" transform="translate(14 14)"/>
</clipPath>
</defs>
</svg>
