<svg width="60" height="60" viewBox="0 0 60 60" fill="none" xmlns="http://www.w3.org/2000/svg">
    <circle cx="30" cy="30" r="30" fill="#4A99F7"/>
    <svg x="15" y="15" width="32" height="32" viewBox="0 0 32 32" fill="none" xmlns="http://www.w3.org/2000/svg">
        <path d="M16.0001 2.66663C8.48008 2.66663 2.66675 8.17329 2.66675 15.6C2.66675 19.48 4.25341 22.8533 6.85341 25.16C7.06675 25.3333 7.20008 25.6266 7.21341 25.92L7.28008 28.2933C7.33342 29.0533 8.09342 29.5466 8.78675 29.24L11.4267 28.08C11.6534 28 11.9067 27.96 12.1334 28C13.3334 28.36 14.6667 28.5333 16.0001 28.5333C23.5201 28.5333 29.3334 23.0266 29.3334 15.6C29.3334 8.17329 23.5201 2.66663 16.0001 2.66663ZM24.0001 12.6133L20.0934 18.84C19.4667 19.8133 18.1334 20.0666 17.2001 19.3333L14.0801 17.0266C13.9416 16.9228 13.7732 16.8666 13.6001 16.8666C13.427 16.8666 13.2586 16.9228 13.1201 17.0266L8.90675 20.2266C8.34675 20.6666 7.61341 20 8.00008 19.3866L11.9067 13.16C12.5334 12.1866 13.8667 11.9333 14.8001 12.6266L17.9201 14.9733C18.0586 15.0772 18.227 15.1333 18.4001 15.1333C18.5732 15.1333 18.7416 15.0772 18.8801 14.9733L23.0934 11.7733C23.6534 11.3333 24.3867 12 24.0001 12.6133Z"
              fill="white"/>
    </svg>
</svg>
