<svg width="56" height="56" viewBox="0 0 56 56" fill="none" xmlns="http://www.w3.org/2000/svg">
<path fill-rule="evenodd" clip-rule="evenodd" d="M34.86 26.6L36.75 26.6C38.6286 26.6 40.388 27.1104 41.8971 28C40.388 28.8896 38.6286 29.4 36.75 29.4L34.86 29.4C34.9518 28.9476 35 28.4795 35 28C35 27.5205 34.9518 27.0524 34.86 26.6ZM34.0635 24.5L36.75 24.5C39.3272 24.5 41.7185 25.2959 43.6916 26.6552C45.6663 24.8034 46.9 22.1708 46.9 19.25C46.9 13.6443 42.3557 9.1 36.75 9.1L19.25 9.1C13.6443 9.1 9.1 13.6443 9.1 19.25C9.1 22.1708 10.3337 24.8034 12.3084 26.6552C14.2815 25.2959 16.6728 24.5 19.25 24.5L21.9365 24.5C23.1468 22.4077 25.409 21 28 21C30.591 21 32.8532 22.4077 34.0635 24.5ZM21.14 26.6L19.25 26.6C17.3714 26.6 15.612 27.1104 14.1029 28C15.612 28.8896 17.3714 29.4 19.25 29.4L21.14 29.4C21.0482 28.9476 21 28.4795 21 28C21 27.5205 21.0482 27.0524 21.14 26.6ZM23.3023 29.4L32.6977 29.4C32.8292 28.9575 32.9 28.4879 32.9 28C32.9 25.2938 30.7062 23.1 28 23.1C25.2938 23.1 23.1 25.2938 23.1 28C23.1 28.4879 23.1708 28.9575 23.3023 29.4ZM21.9365 31.5L19.25 31.5C16.6728 31.5 14.2815 30.7041 12.3084 29.3448C10.3337 31.1966 9.1 33.8292 9.1 36.75C9.1 42.3557 13.6443 46.9 19.25 46.9L36.75 46.9C42.3557 46.9 46.9 42.3557 46.9 36.75C46.9 33.8292 45.6663 31.1966 43.6916 29.3448C41.7185 30.7041 39.3272 31.5 36.75 31.5L34.0635 31.5L21.9365 31.5ZM49 36.75C49 33.3223 47.5922 30.2234 45.3232 28C47.5922 25.7766 49 22.6777 49 19.25C49 12.4845 43.5155 7 36.75 7L19.25 7C12.4845 7 7 12.4845 7 19.25C7 22.6777 8.40782 25.7766 10.6768 28C8.40782 30.2234 7 33.3223 7 36.75C7 43.5155 12.4845 49 19.25 49L36.75 49C43.5155 49 49 43.5155 49 36.75Z" fill="#55A5FF"/>
</svg>
