<svg width="150" height="60" viewBox="0 0 150 60" fill="none" xmlns="http://www.w3.org/2000/svg">
<g clip-path="url(#clip0_1319_560)">
<path d="M47.9176 26.0139V38.9995H41.9618V27.64C41.9618 27.64 41.7238 25.9921 39.9726 25.9921H36.872V38.9995H31.0831V25.9921H25.8536V38.9995H20V21H41.7238C47.7967 21 47.9176 26.0139 47.9176 26.0139ZM69.4184 21H83.5647L77.0868 25.9921H69.4189V21H69.4184ZM53.6199 27.769H62.2527V26.944C62.2527 26.944 62.2527 25.7662 60.1769 25.7662H49.1842V21H61.9954C68.6771 21 68.0422 26.8577 68.0422 26.8577V34.9649L86.0492 21H101.897C109.092 21 110 25.1204 110 30.0982C110 33.6591 109.508 38.9995 102.309 38.9995H89.1953L89.184 25.0082L71.0749 38.9995L53.6199 38.9954C52.7539 38.9954 47.9214 39.2899 47.9214 33.1997C47.9214 27.4065 52.7539 27.769 53.6199 27.769V27.769ZM95.2029 34.0074H100.244C103.462 34.0074 104.142 32.9662 104.142 30.1383C104.142 27.3024 103.462 25.9926 100.244 25.9926H95.2029V34.0074ZM55.3935 34.4948H62.1506L62.1543 31.8574H55.3973C54.841 31.8574 53.7595 31.8574 53.7595 33.1423C53.7595 34.4455 54.8373 34.4948 55.3935 34.4948H55.3935ZM87.4853 34.0074V39H73.5401L79.8778 34.0074H87.4853ZM115.562 27.769H124.199V26.944C124.199 26.944 124.199 25.7662 122.119 25.7662H111.127V21H123.942C130.615 21 129.984 26.8577 129.984 26.8577V38.9954H115.561C114.696 38.9954 109.864 39.2899 109.864 33.1997C109.864 27.4065 114.697 27.769 115.562 27.769L115.562 27.769ZM117.335 34.4948H124.089L124.097 31.8574H117.34C116.784 31.8574 115.699 31.8574 115.699 33.1423C115.699 34.4455 116.78 34.4948 117.335 34.4948" fill="#0080C5"/>
</g>
<defs>
<clipPath id="clip0_1319_560">
<rect width="110" height="18" fill="white" transform="translate(20 21)"/>
</clipPath>
</defs>
</svg>
