<svg width="24" height="24" viewBox="0 0 24 24" fill="none" xmlns="http://www.w3.org/2000/svg">
<path d="M0 6C0 2.68629 2.68629 0 6 0H18C21.3137 0 24 2.68629 24 6V18C24 21.3137 21.3137 24 18 24H6C2.68629 24 0 21.3137 0 18V6Z" fill="#FF5F5F" fill-opacity="0.15"/>
<path d="M13.1381 10.862C12.9613 10.862 12.7918 10.9323 12.6668 11.0573L10.6668 13.0573L6.47148 8.862L5.52881 9.80467L10.0001 14.276C10.1251 14.401 10.2947 14.4713 10.4715 14.4713H10.8621C11.0389 14.4713 11.2085 14.401 11.3335 14.276L13.3335 12.276L16.1955 15.138L14.6668 16.6667H18.6668V12.6667L17.1381 14.1953L14.0001 11.0573C13.8751 10.9323 13.7056 10.862 13.5288 10.862H13.1381Z" fill="#FF5F5F"/>
</svg>
