<svg width="24" height="24" viewBox="0 0 24 24" fill="none" xmlns="http://www.w3.org/2000/svg">
<path d="M0 6C0 2.68629 2.68629 0 6 0H18C21.3137 0 24 2.68629 24 6V18C24 21.3137 21.3137 24 18 24H6C2.68629 24 0 21.3137 0 18V6Z" fill="#14D2A5" fill-opacity="0.15"/>
<path d="M7.19625 8.70388C7.19625 7.87122 7.87159 7.19588 8.70359 7.19588H9.38959C9.78692 7.19588 10.1689 7.03855 10.4516 6.75788L10.9309 6.27788C11.5183 5.68788 12.4729 5.68521 13.0629 6.27255L13.0689 6.27788L13.5489 6.75788C13.8309 7.03855 14.2129 7.19588 14.6109 7.19588H15.2963C16.1289 7.19588 16.8043 7.87122 16.8043 8.70388V9.38855C16.8043 9.78722 16.9616 10.1685 17.2423 10.4512L17.7223 10.9312C18.3123 11.5185 18.3156 12.4725 17.7283 13.0632L17.7223 13.0692L17.2423 13.5492C16.9616 13.8305 16.8043 14.2132 16.8043 14.6105V15.2965C16.8043 16.1292 16.1289 16.8039 15.2963 16.8039H14.6109C14.2129 16.8039 13.8309 16.9619 13.5489 17.2425L13.0689 17.7219C12.4823 18.3126 11.5276 18.3152 10.9369 17.7279C10.9349 17.7259 10.9329 17.7239 10.9309 17.7219L10.4516 17.2425C10.1689 16.9619 9.78692 16.8039 9.38959 16.8039H8.70359C7.87159 16.8039 7.19625 16.1292 7.19625 15.2965V14.6105C7.19625 14.2132 7.03825 13.8305 6.75759 13.5492L6.27825 13.0692C5.68759 12.4819 5.68492 11.5272 6.27225 10.9372L6.27825 10.9312L6.75759 10.4512C7.03825 10.1685 7.19625 9.78722 7.19625 9.38855V8.70388" stroke="#14D2A5" stroke-width="1.5" stroke-linecap="round" stroke-linejoin="round"/>
<path d="M10.2866 13.713L13.7133 10.2863" stroke="#14D2A5" stroke-width="1.5" stroke-linecap="round" stroke-linejoin="round"/>
<path d="M13.7114 14.2149C13.5781 14.2149 13.4514 14.1616 13.3581 14.0683C13.3114 14.0216 13.2781 13.9616 13.2514 13.9016C13.2248 13.8416 13.2114 13.7823 13.2114 13.7149C13.2114 13.6483 13.2248 13.5816 13.2514 13.5216C13.2781 13.4616 13.3114 13.4083 13.3581 13.3616C13.5448 13.1749 13.8781 13.1749 14.0648 13.3616C14.1114 13.4083 14.1514 13.4616 14.1781 13.5216C14.1981 13.5816 14.2114 13.6483 14.2114 13.7149C14.2114 13.7823 14.1981 13.8416 14.1781 13.9016C14.1514 13.9616 14.1114 14.0216 14.0648 14.0683C13.9714 14.1616 13.8448 14.2149 13.7114 14.2149Z" fill="#14D2A5"/>
<path d="M10.2847 10.7885C10.218 10.7885 10.158 10.7745 10.098 10.7479C10.038 10.7212 9.978 10.6885 9.93133 10.6419C9.88467 10.5885 9.85133 10.5352 9.82467 10.4752C9.798 10.4145 9.78467 10.3552 9.78467 10.2885C9.78467 10.2212 9.798 10.1552 9.82467 10.0952C9.85133 10.0352 9.88467 9.97521 9.93133 9.93521C10.1247 9.74787 10.4513 9.74787 10.638 9.93521C10.7313 10.0279 10.7847 10.1552 10.7847 10.2885C10.7847 10.3552 10.778 10.4145 10.7513 10.4752C10.7247 10.5352 10.6847 10.5885 10.638 10.6419C10.5913 10.6885 10.538 10.7212 10.478 10.7479C10.418 10.7745 10.3513 10.7885 10.2847 10.7885Z" fill="#14D2A5"/>
</svg>
