<svg width="24" height="24" viewBox="0 0 24 24" fill="none" xmlns="http://www.w3.org/2000/svg">
<path d="M0 6C0 2.68629 2.68629 0 6 0H18C21.3137 0 24 2.68629 24 6V18C24 21.3137 21.3137 24 18 24H6C2.68629 24 0 21.3137 0 18V6Z" fill="#14D2A5" fill-opacity="0.15"/>
<path d="M12.6668 12.9427C12.7918 13.0677 12.9613 13.138 13.1381 13.138H13.5288C13.7056 13.138 13.8751 13.0677 14.0001 12.9427L17.1381 9.80468L18.6668 11.3333V7.33334H14.6668L16.1955 8.86201L13.3335 11.724L11.3335 9.72401C11.2085 9.59898 11.0389 9.52871 10.8621 9.52868H10.4715C10.2947 9.52871 10.1251 9.59898 10.0001 9.72401L5.52881 14.1953L6.47148 15.138L10.6668 10.9427L12.6668 12.9427Z" fill="#14D2A5"/>
</svg>
