<svg width="24" height="24" viewBox="0 0 24 24" fill="none" xmlns="http://www.w3.org/2000/svg">
<path d="M0 6C0 2.68629 2.68629 0 6 0H18C21.3137 0 24 2.68629 24 6V18C24 21.3137 21.3137 24 18 24H6C2.68629 24 0 21.3137 0 18V6Z" fill="#14D2A5" fill-opacity="0.15"/>
<path fill-rule="evenodd" clip-rule="evenodd" d="M11.8405 17.9025C10.3934 17.0119 9.04724 15.9638 7.82603 14.7768C6.96746 13.922 6.31384 12.8798 5.91523 11.7303C5.19793 9.5002 6.03579 6.94722 8.38058 6.19168C9.61291 5.79496 10.9588 6.0217 11.9972 6.80098C13.0361 6.02265 14.3815 5.79599 15.6139 6.19168C17.9587 6.94722 18.8026 9.5002 18.0853 11.7303C17.6866 12.8798 17.033 13.922 16.1745 14.7768C14.9532 15.9638 13.6071 17.0119 12.16 17.9025L12.0033 18L11.8405 17.9025Z" stroke="#14D2A5" stroke-width="1.5" stroke-linecap="round" stroke-linejoin="round"/>
<path d="M14.4927 8.702C15.2029 8.92886 15.7075 9.56646 15.7706 10.3167" stroke="#14D2A5" stroke-width="1.5" stroke-linecap="round" stroke-linejoin="round"/>
</svg>
