<svg width="10" height="16" viewBox="0 0 10 16" fill="none" xmlns="http://www.w3.org/2000/svg">
<path d="M3.28857 8.30451H6.0258L6.71321 7.6958H3.97598L3.28857 8.30451Z" fill="#C0C5CE"/>
<path d="M4.99981 14.2855C4.9469 14.2855 4.89449 14.2844 4.84142 14.282C3.91305 14.2403 3.15564 13.7478 2.81532 12.9645C2.53951 12.3301 2.53645 11.3938 3.35418 10.6696L4.1103 10H1.47678C0.663406 11.038 0.476473 12.3546 1.00905 13.5804C1.62307 14.9934 3.05402 15.9184 4.74239 15.9941C4.82755 15.9979 4.91352 15.9999 4.99981 15.9999C7.75687 15.9999 9.99975 14.0133 9.99975 11.5714H8.06429C8.06429 13.068 6.68963 14.2855 4.99981 14.2855Z" fill="#C0C5CE"/>
<path d="M4.99994 1.71427C5.05284 1.71427 5.10526 1.71541 5.15833 1.71784C6.0867 1.75956 6.84411 2.25198 7.18443 3.03526C7.46024 3.66968 7.4633 4.60596 6.64557 5.33024L5.88945 5.99995H8.52297C9.33634 4.96196 9.52344 3.6454 8.9907 2.41955C8.37668 1.00656 6.94573 0.0815708 5.25736 0.00585714C5.17204 0.00200003 5.08623 0 4.99994 0C2.24288 0 0 1.9867 0 4.42853H1.93546C1.93546 2.93183 3.31012 1.71427 4.99994 1.71427Z" fill="#C0C5CE"/>
<path d="M9.59725 8.59033H0.403809V9.71447H9.59725V8.59033Z" fill="#C0C5CE"/>
<path d="M9.59725 6.28589H0.403809V7.41002H9.59725V6.28589Z" fill="#C0C5CE"/>
</svg>
