<svg width="24" height="24" viewBox="0 0 24 24" fill="none" xmlns="http://www.w3.org/2000/svg">
<path d="M0 6C0 2.68629 2.68629 0 6 0H18C21.3137 0 24 2.68629 24 6V18C24 21.3137 21.3137 24 18 24H6C2.68629 24 0 21.3137 0 18V6Z" fill="#14D2A5" fill-opacity="0.15"/>
<path d="M13.2332 6.83356V8.44689" stroke="#14D2A5" stroke-width="1.5" stroke-linecap="round" stroke-linejoin="round"/>
<path d="M13.2332 15.8401V17.1894" stroke="#14D2A5" stroke-width="1.5" stroke-linecap="round" stroke-linejoin="round"/>
<path d="M13.2332 13.5498V10.3358" stroke="#14D2A5" stroke-width="1.5" stroke-linecap="round" stroke-linejoin="round"/>
<path fill-rule="evenodd" clip-rule="evenodd" d="M16.4682 17.3334C17.683 17.3334 18.6668 16.3617 18.6668 15.1621V13.4338C17.863 13.4338 17.2157 12.7945 17.2157 12.0007C17.2157 11.2069 17.863 10.5669 18.6668 10.5669L18.6661 8.83792C18.6661 7.63832 17.6816 6.66669 16.4676 6.66669H7.53277C6.31876 6.66669 5.33419 7.63832 5.33419 8.83792L5.3335 10.6233C6.13728 10.6233 6.78462 11.2069 6.78462 12.0007C6.78462 12.7945 6.13728 13.4338 5.3335 13.4338V15.1621C5.3335 16.3617 6.31736 17.3334 7.53208 17.3334H16.4682Z" stroke="#14D2A5" stroke-width="1.5" stroke-linecap="round" stroke-linejoin="round"/>
</svg>
