<svg width="52" height="16" viewBox="0 0 52 16" fill="none" xmlns="http://www.w3.org/2000/svg">
<path fill-rule="evenodd" clip-rule="evenodd" d="M13.3707 15.8755H8.99872L5.72025 3.46313C5.56464 2.89217 5.23424 2.3874 4.74822 2.14949C3.53531 1.55163 2.19877 1.07583 0.740723 0.835855V0.35798H7.78369C8.75572 0.35798 9.48474 1.07583 9.60624 1.90952L11.3073 10.863L15.6772 0.35798H19.9277L13.3707 15.8755ZM22.3577 15.8746H18.2287L21.6287 0.357117H25.7577L22.3577 15.8746ZM31.1005 4.6567C31.222 3.82093 31.951 3.34306 32.8016 3.34306C34.1381 3.22307 35.594 3.46304 36.8091 4.05884L37.5381 0.717847C36.3231 0.239972 34.9865 0 33.7736 0C29.7661 0 26.85 2.1494 26.85 5.1325C26.85 7.4019 28.9156 8.59348 30.3736 9.31133C31.951 10.0271 32.5586 10.505 32.4371 11.2208C32.4371 12.2944 31.222 12.7723 30.0091 12.7723C28.5511 12.7723 27.093 12.4144 25.7586 11.8166L25.0296 15.1596C26.4876 15.7554 28.065 15.9954 29.5231 15.9954C34.0166 16.1133 36.8091 13.966 36.8091 10.7429C36.8091 6.68405 31.1005 6.44615 31.1005 4.6567ZM51.2592 15.8746L47.9807 0.357117H44.4593C43.7302 0.357117 43.0012 0.834992 42.7582 1.55077L36.6873 15.8746H40.9378L41.7862 13.6073H47.0087L47.4947 15.8746H51.2592ZM45.067 4.53571L46.2799 10.384H42.8799L45.067 4.53571Z" fill="#172B85"/>
</svg>
