<svg width="150" height="60" viewBox="0 0 150 60" fill="none" xmlns="http://www.w3.org/2000/svg">
<g clip-path="url(#clip0_1319_533)">
<path d="M11.6401 20.9913C11.6401 20.9913 14.7912 33.927 15.2941 36.0267C15.881 38.4774 16.9386 39.3794 19.9879 38.7711L21.9555 30.751C22.4542 28.7589 22.7886 27.3386 23.1092 25.3121H23.1656C23.3908 27.3585 23.7116 28.7648 24.1219 30.758C24.1219 30.758 24.9229 34.3989 25.333 36.3112C25.7443 38.2229 26.8888 39.4277 29.8756 38.7718L34.5638 20.9926H30.7786L29.1781 28.6794C28.7477 30.9169 28.3573 32.6652 28.0562 34.7121H28.0028C27.7292 32.6856 27.3812 31.0066 26.9437 28.8266L25.2771 20.9926H21.3333L19.5507 28.6292C19.0456 30.9497 18.5733 32.8236 18.2729 34.8011H18.2185C17.9109 32.9388 17.5012 30.5837 17.0575 28.3374C17.0575 28.3374 15.9984 22.8754 15.6268 20.9926L11.6405 20.9931L11.6401 20.9913ZM47.7242 20.9913V38.7704H51.328V34.9951V20.9904H47.7242V20.9913ZM98.4806 20.9913V34.1072C98.4806 35.9156 98.8203 37.1826 99.547 37.9566C100.182 38.6335 101.228 39.0719 102.481 39.0719C103.546 39.0719 104.595 38.8694 105.089 38.685L105.042 35.8636C104.675 35.9542 104.252 36.0268 103.673 36.0268C102.446 36.0268 102.034 35.2391 102.034 33.6154V28.5973H105.173V25.1956H102.034V20.9913H98.4804L98.4806 20.9913ZM39.6704 25.1129C37.4307 25.1129 35.6528 25.7429 34.6837 26.3039L35.393 28.7369C36.2799 28.1767 37.6921 27.713 39.0292 27.713C41.2431 27.7073 41.605 28.9671 41.605 29.7751V29.9662C36.781 29.9589 33.734 31.6312 33.734 35.0401C33.734 37.1214 35.2851 39.0718 37.9823 39.0718C39.6427 39.0718 41.0313 38.4084 41.8635 37.3455H41.9451C41.9451 37.3455 42.4962 39.6539 45.5323 38.7711C45.3728 37.8104 45.321 36.786 45.321 35.5522V30.8026C45.321 27.7754 44.0308 25.1129 39.6704 25.1129L39.6704 25.1129ZM61.2281 25.1129C58.9729 25.1129 57.9595 26.2578 57.345 27.2292H57.2916V25.4144H53.8524V38.7713H57.4754V30.938C57.4754 30.5708 57.5173 30.1824 57.6452 29.8446C57.9454 29.056 58.6778 28.1334 59.8472 28.1334C61.309 28.1334 61.9931 29.3716 61.9931 31.1585V38.7711H65.6122V30.8431C65.6122 30.4925 65.6602 30.0703 65.7631 29.7604C66.0607 28.8632 66.8503 28.1333 67.9373 28.1333C69.4193 28.1333 70.1306 29.3499 70.1306 31.4526V38.7712H73.7522V30.9044C73.7522 26.7556 71.6494 25.1129 69.2758 25.1129C68.2245 25.1129 67.3948 25.377 66.6446 25.8384C66.014 26.226 65.4496 26.7768 64.9562 27.502H64.9028C64.3287 26.0625 62.9819 25.1129 61.2274 25.1129L61.2281 25.1129ZM81.123 25.1129C78.8839 25.1129 77.1063 25.7429 76.1364 26.3039L76.8466 28.7369C77.7326 28.1767 79.1457 27.713 80.4821 27.713C82.6945 27.7073 83.0572 28.9671 83.0572 29.7751V29.9662C78.234 29.9589 75.1866 31.6312 75.1866 35.0401C75.1866 37.1214 76.7385 39.0718 79.4371 39.0718C81.0961 39.0718 82.4852 38.4084 83.3159 37.3455H83.3978C83.3978 37.3455 83.9488 39.6539 86.9854 38.7711C86.8256 37.8104 86.7744 36.786 86.7744 35.5522V30.8026C86.7744 27.7754 85.4839 25.1129 81.123 25.1129L81.123 25.1129ZM96.1684 25.1129C94.781 25.1129 93.2026 26.01 92.5401 27.9333H92.4389V25.4142H89.1775V38.7711H92.8955V31.9315C92.8955 31.5625 92.9178 31.2408 92.9761 30.9458C93.251 29.5131 94.3449 28.5972 95.9148 28.5972C96.3458 28.5972 96.6542 28.644 96.9879 28.6923V25.1955C96.7081 25.1388 96.5167 25.1127 96.1686 25.1127L96.1684 25.1129ZM41.7214 32.3331V33.9994C41.7214 34.2458 41.6999 34.5001 41.6318 34.7225C41.3529 35.6479 40.3959 36.43 39.1997 36.43C38.2024 36.43 37.4101 35.8629 37.4101 34.6633C37.4101 32.8284 39.4263 32.3212 41.7215 32.3331H41.7214ZM83.174 32.3331V33.9994C83.174 34.2458 83.1521 34.5001 83.0844 34.7225C82.8055 35.6479 81.8489 36.43 80.6527 36.43C79.6551 36.43 78.8627 35.8629 78.8627 34.6633C78.8627 32.8284 80.8789 32.3212 83.1741 32.3331H83.174Z" fill="#007DC6"/>
<path d="M124.658 14.5614C123.495 14.5614 122.57 15.2123 122.57 16.0047L123.277 24.0202C123.355 24.5031 123.945 24.8756 124.659 24.8756C125.374 24.8747 125.963 24.5025 126.042 24.0202L126.752 16.0047C126.752 15.2124 125.825 14.5615 124.66 14.5615L124.658 14.5614ZM113.144 20.991C112.54 21.0054 111.854 21.4635 111.417 22.2217C110.833 23.2312 110.937 24.3593 111.62 24.7551L118.901 28.1522C119.356 28.3217 119.974 27.9981 120.332 27.3802C120.332 27.3802 120.332 27.38 120.332 27.3799C120.691 26.759 120.663 26.0608 120.285 25.7511L113.709 21.1301C113.538 21.031 113.346 20.9864 113.144 20.9911L113.144 20.991ZM136.173 20.991C135.971 20.9863 135.78 21.0309 135.609 21.13L129.032 25.751C128.656 26.0607 128.628 26.7589 128.986 27.3798L128.986 27.3801C129.345 27.998 129.961 28.3216 130.416 28.1521L137.7 24.7552C138.386 24.3594 138.484 23.2313 137.904 22.2217C137.466 21.4636 136.779 21.0055 136.175 20.9911L136.173 20.991ZM119.173 31.5663C119.079 31.5651 118.988 31.5796 118.902 31.6119L111.621 35.0049C110.938 35.4024 110.835 36.531 111.418 37.5416C112 38.5491 113.026 39.0281 113.709 38.633L120.286 34.0155C120.664 33.702 120.692 33.0041 120.333 32.3837L120.336 32.3851C120.045 31.8798 119.581 31.5718 119.173 31.5662L119.173 31.5663ZM130.147 31.5663C129.739 31.5719 129.276 31.8799 128.985 32.3852L128.988 32.3838C128.63 33.0042 128.657 33.7021 129.034 34.0156L135.611 38.6331C136.293 39.0282 137.319 38.5492 137.904 37.5417C138.484 36.5311 138.385 35.4025 137.7 35.005L130.417 31.612C130.332 31.5797 130.241 31.5652 130.147 31.5664L130.147 31.5663ZM124.657 34.8883C123.945 34.8891 123.356 35.26 123.278 35.7417L122.571 43.7568C122.571 44.5506 123.496 45.2002 124.659 45.2002C125.825 45.2002 126.751 44.5506 126.751 43.7568L126.043 35.7417C125.964 35.26 125.375 34.8892 124.66 34.8883H124.657H124.657Z" fill="#FFC220"/>
</g>
<defs>
<clipPath id="clip0_1319_533">
<rect width="128" height="32" fill="white" transform="translate(11 14)"/>
</clipPath>
</defs>
</svg>
